<svg width="101" height="101" viewBox="0 0 101 101" fill="none" xmlns="http://www.w3.org/2000/svg">
<path d="M90.2763 81.7893L90.3531 81.7563L92.04 81.0316L91.5589 80.5505C91.5445 80.5356 91.5299 80.521 91.5151 80.5067C91.3599 80.3568 91.1786 80.2362 90.9801 80.1509C90.7625 80.0574 90.5285 80.0082 90.2917 80.0061C90.0549 80.0041 89.8201 80.0492 89.6009 80.1389C89.3818 80.2285 89.1826 80.3609 89.0152 80.5284C88.8478 80.6958 88.7153 80.8949 88.6257 81.1141C88.536 81.3333 88.4909 81.5681 88.4929 81.8049C88.495 82.0417 88.5442 82.2757 88.6377 82.4932C88.723 82.6918 88.8436 82.8731 88.9935 83.0283C89.0078 83.0431 89.0224 83.0577 89.0373 83.0721L89.5184 83.5532L89.5185 83.5533L89.9466 83.9814C90.0491 83.9968 90.1528 84.0051 90.2569 84.006L90.2758 81.8336L90.2763 81.7893ZM90.2763 81.7893L90.2762 81.7892L90.2763 81.7893ZM90.2763 81.7893L90.353 81.7564L92.0401 81.0317L91.1156 83.841M90.2763 81.7893L90.2762 81.7896L90.2758 81.8336L90.257 84.006C90.5513 84.0085 90.8432 83.9525 91.1156 83.841M91.1156 83.841L91.1155 83.841L91.1156 83.841Z" fill="black" stroke="#343434" stroke-width="8"/>
<mask id="path-2-inside-1_52_13820" fill="white">
<path d="M32.2921 29.3787C31.8191 29.3787 31.3655 29.5665 31.0311 29.901C30.6967 30.2354 30.5088 30.689 30.5088 31.162V65.7869C30.5088 66.2598 30.6967 66.7134 31.0311 67.0479C31.3655 67.3823 31.8191 67.5702 32.2921 67.5702C32.7651 67.5702 33.2187 67.3823 33.5531 67.0479C33.8875 66.7134 34.0754 66.2598 34.0754 65.7869V39.9894C34.0754 38.457 34.6842 36.9873 35.7677 35.9038C36.8513 34.8202 38.321 34.2114 39.8534 34.2114C41.3858 34.2114 42.8554 34.8202 43.939 35.9038C45.0226 36.9873 45.6313 38.457 45.6313 39.9894V65.7869C45.6313 66.2598 45.8192 66.7134 46.1536 67.0479C46.4881 67.3823 46.9417 67.5702 47.4146 67.5702C47.8876 67.5702 48.3412 67.3823 48.6756 67.0479C49.0101 66.7134 49.198 66.2598 49.198 65.7869V39.9894C49.2246 38.4748 49.8449 37.0312 50.9254 35.9695C52.0059 34.9078 53.4602 34.3129 54.975 34.3129C56.4898 34.3129 57.9441 34.9078 59.0246 35.9695C60.1051 37.0312 60.7255 38.4748 60.7521 39.9894V65.7869C60.7521 66.2598 60.94 66.7134 61.2744 67.0479C61.6088 67.3823 62.0624 67.5702 62.5354 67.5702C63.0084 67.5702 63.462 67.3823 63.7964 67.0479C64.1308 66.7134 64.3187 66.2598 64.3187 65.7869V39.9894C64.323 38.013 63.699 36.0863 62.5369 34.4876C61.3748 32.8889 59.7348 31.7009 57.8535 31.095C55.9722 30.4892 53.9471 30.4968 52.0704 31.1169C50.1938 31.737 48.5628 32.9375 47.4129 34.5449C46.6843 33.5141 45.7519 32.6438 44.6733 31.9879C43.5948 31.332 42.3931 30.9044 41.1427 30.7317C39.8922 30.559 38.6196 30.6449 37.4037 30.9839C36.1877 31.3229 35.0543 31.908 34.0736 32.7028V31.162C34.0736 30.689 33.8858 30.2354 33.5513 29.901C33.2169 29.5665 32.7651 29.3787 32.2921 29.3787ZM83.0774 30.215C83.8582 29.0661 84.2763 27.7094 84.2776 26.3203C84.2776 24.4596 83.5385 22.6752 82.2228 21.3595C80.9071 20.0438 79.1227 19.3047 77.262 19.3047C75.4014 19.3047 73.6169 20.0438 72.3013 21.3595C70.9856 22.6752 70.2465 24.4596 70.2465 26.3203C70.2465 26.7932 70.4343 27.2468 70.7688 27.5813C71.1032 27.9157 71.5568 28.1036 72.0298 28.1036C72.5027 28.1036 72.9563 27.9157 73.2908 27.5813C73.6252 27.2468 73.8131 26.7932 73.8131 26.3203C73.8131 25.4055 74.1765 24.5283 74.8233 23.8815C75.4701 23.2347 76.3473 22.8713 77.262 22.8713C78.1767 22.8713 79.054 23.2347 79.7008 23.8815C80.3476 24.5283 80.711 25.4055 80.711 26.3203C80.7129 26.9725 80.5238 27.611 80.167 28.1571L71.8247 37.1093C71.4945 37.462 71.2746 37.9034 71.192 38.3793C71.1093 38.8552 71.1675 39.345 71.3594 39.7883C71.5513 40.2316 71.8686 40.6091 72.2722 40.8746C72.6758 41.14 73.1481 41.2817 73.6312 41.2823H82.3284C82.8014 41.2823 83.255 41.0944 83.5894 40.76C83.9239 40.4255 84.1117 39.9719 84.1117 39.499C84.1117 39.026 83.9239 38.5724 83.5894 38.238C83.255 37.9035 82.8014 37.7157 82.3284 37.7157H76.1546L82.5442 30.9194C82.5906 30.8695 83.0792 30.215 83.0792 30.215H83.0774Z"/>
</mask>
<path d="M32.2921 29.3787C31.8191 29.3787 31.3655 29.5665 31.0311 29.901C30.6967 30.2354 30.5088 30.689 30.5088 31.162V65.7869C30.5088 66.2598 30.6967 66.7134 31.0311 67.0479C31.3655 67.3823 31.8191 67.5702 32.2921 67.5702C32.7651 67.5702 33.2187 67.3823 33.5531 67.0479C33.8875 66.7134 34.0754 66.2598 34.0754 65.7869V39.9894C34.0754 38.457 34.6842 36.9873 35.7677 35.9038C36.8513 34.8202 38.321 34.2114 39.8534 34.2114C41.3858 34.2114 42.8554 34.8202 43.939 35.9038C45.0226 36.9873 45.6313 38.457 45.6313 39.9894V65.7869C45.6313 66.2598 45.8192 66.7134 46.1536 67.0479C46.4881 67.3823 46.9417 67.5702 47.4146 67.5702C47.8876 67.5702 48.3412 67.3823 48.6756 67.0479C49.0101 66.7134 49.198 66.2598 49.198 65.7869V39.9894C49.2246 38.4748 49.8449 37.0312 50.9254 35.9695C52.0059 34.9078 53.4602 34.3129 54.975 34.3129C56.4898 34.3129 57.9441 34.9078 59.0246 35.9695C60.1051 37.0312 60.7255 38.4748 60.7521 39.9894V65.7869C60.7521 66.2598 60.94 66.7134 61.2744 67.0479C61.6088 67.3823 62.0624 67.5702 62.5354 67.5702C63.0084 67.5702 63.462 67.3823 63.7964 67.0479C64.1308 66.7134 64.3187 66.2598 64.3187 65.7869V39.9894C64.323 38.013 63.699 36.0863 62.5369 34.4876C61.3748 32.8889 59.7348 31.7009 57.8535 31.095C55.9722 30.4892 53.9471 30.4968 52.0704 31.1169C50.1938 31.737 48.5628 32.9375 47.4129 34.5449C46.6843 33.5141 45.7519 32.6438 44.6733 31.9879C43.5948 31.332 42.3931 30.9044 41.1427 30.7317C39.8922 30.559 38.6196 30.6449 37.4037 30.9839C36.1877 31.3229 35.0543 31.908 34.0736 32.7028V31.162C34.0736 30.689 33.8858 30.2354 33.5513 29.901C33.2169 29.5665 32.7651 29.3787 32.2921 29.3787ZM83.0774 30.215C83.8582 29.0661 84.2763 27.7094 84.2776 26.3203C84.2776 24.4596 83.5385 22.6752 82.2228 21.3595C80.9071 20.0438 79.1227 19.3047 77.262 19.3047C75.4014 19.3047 73.6169 20.0438 72.3013 21.3595C70.9856 22.6752 70.2465 24.4596 70.2465 26.3203C70.2465 26.7932 70.4343 27.2468 70.7688 27.5813C71.1032 27.9157 71.5568 28.1036 72.0298 28.1036C72.5027 28.1036 72.9563 27.9157 73.2908 27.5813C73.6252 27.2468 73.8131 26.7932 73.8131 26.3203C73.8131 25.4055 74.1765 24.5283 74.8233 23.8815C75.4701 23.2347 76.3473 22.8713 77.262 22.8713C78.1767 22.8713 79.054 23.2347 79.7008 23.8815C80.3476 24.5283 80.711 25.4055 80.711 26.3203C80.7129 26.9725 80.5238 27.611 80.167 28.1571L71.8247 37.1093C71.4945 37.462 71.2746 37.9034 71.192 38.3793C71.1093 38.8552 71.1675 39.345 71.3594 39.7883C71.5513 40.2316 71.8686 40.6091 72.2722 40.8746C72.6758 41.14 73.1481 41.2817 73.6312 41.2823H82.3284C82.8014 41.2823 83.255 41.0944 83.5894 40.76C83.9239 40.4255 84.1117 39.9719 84.1117 39.499C84.1117 39.026 83.9239 38.5724 83.5894 38.238C83.255 37.9035 82.8014 37.7157 82.3284 37.7157H76.1546L82.5442 30.9194C82.5906 30.8695 83.0792 30.215 83.0792 30.215H83.0774Z" fill="black"/>
<path d="M34.0754 39.9894H26.0754H34.0754ZM39.8534 34.2114V26.2114V34.2114ZM45.6313 39.9894H53.6313H45.6313ZM49.198 39.9894L41.1992 39.8488L41.198 39.9191V39.9894H49.198ZM54.975 34.3129V42.3129V34.3129ZM60.7521 39.9894H68.7521V39.9191L68.7508 39.8488L60.7521 39.9894ZM64.3187 39.9894L56.3187 39.9722L56.3187 39.9808V39.9894H64.3187ZM47.4129 34.5449L40.8799 39.1623L47.3734 48.3499L53.9194 39.1995L47.4129 34.5449ZM34.0736 32.7028H26.0736V49.4836L39.1106 38.9179L34.0736 32.7028ZM83.0774 30.215L76.4608 25.7184L67.9681 38.215H83.0774V30.215ZM84.2776 26.3203L92.2776 26.3277V26.3203H84.2776ZM73.8131 26.3203H65.8131H73.8131ZM80.711 26.3203H72.711V26.3321L72.711 26.3439L80.711 26.3203ZM80.167 28.1571L86.0198 33.611L86.4883 33.1082L86.8643 32.5328L80.167 28.1571ZM71.8247 37.1093L77.6646 42.577L77.671 42.5701L77.6774 42.5633L71.8247 37.1093ZM73.6312 41.2823L73.6215 49.2823H73.6312V41.2823ZM76.1546 37.7157L70.3261 32.2358L57.6527 45.7157H76.1546V37.7157ZM82.5442 30.9194L88.3727 36.3993L88.3897 36.3812L88.4066 36.363L82.5442 30.9194ZM83.0792 30.215L89.4896 35.0011L99.0358 22.215H83.0792V30.215ZM32.2921 21.3787C29.6974 21.3787 27.209 22.4094 25.3743 24.2441L36.688 35.5578C35.5221 36.7237 33.9409 37.3787 32.2921 37.3787V21.3787ZM25.3743 24.2441C23.5395 26.0788 22.5088 28.5673 22.5088 31.162H38.5088C38.5088 32.8108 37.8538 34.392 36.688 35.5578L25.3743 24.2441ZM22.5088 31.162V65.7869H38.5088V31.162H22.5088ZM22.5088 65.7869C22.5088 68.3816 23.5395 70.87 25.3743 72.7047L36.688 61.391C37.8538 62.5568 38.5088 64.1381 38.5088 65.7869H22.5088ZM25.3743 72.7047C27.209 74.5394 29.6974 75.5702 32.2921 75.5702V59.5702C33.9409 59.5702 35.5221 60.2251 36.688 61.391L25.3743 72.7047ZM32.2921 75.5702C34.8868 75.5702 37.3752 74.5395 39.21 72.7047L27.8962 61.391C29.0621 60.2251 30.6434 59.5702 32.2921 59.5702V75.5702ZM39.21 72.7047C41.0447 70.87 42.0754 68.3815 42.0754 65.7869H26.0754C26.0754 64.1381 26.7304 62.5569 27.8962 61.391L39.21 72.7047ZM42.0754 65.7869V39.9894H26.0754V65.7869H42.0754ZM42.0754 39.9894C42.0754 40.5787 41.8413 41.1439 41.4246 41.5606L30.1109 30.2469C27.527 32.8308 26.0754 36.3352 26.0754 39.9894H42.0754ZM41.4246 41.5606C41.0079 41.9773 40.4427 42.2114 39.8534 42.2114V26.2114C36.1992 26.2114 32.6948 27.663 30.1109 30.2469L41.4246 41.5606ZM39.8534 42.2114C39.264 42.2114 38.6989 41.9773 38.2821 41.5606L49.5959 30.2469C47.012 27.663 43.5075 26.2114 39.8534 26.2114V42.2114ZM38.2821 41.5606C37.8654 41.1439 37.6313 40.5787 37.6313 39.9894H53.6313C53.6313 36.3353 52.1797 32.8308 49.5959 30.2469L38.2821 41.5606ZM37.6313 39.9894V65.7869H53.6313V39.9894H37.6313ZM37.6313 65.7869C37.6313 68.3816 38.6621 70.87 40.4968 72.7047L51.8105 61.391C52.9763 62.5568 53.6313 64.1381 53.6313 65.7869H37.6313ZM40.4968 72.7047C42.3315 74.5394 44.8199 75.5702 47.4146 75.5702V59.5702C49.0634 59.5702 50.6446 60.2251 51.8105 61.391L40.4968 72.7047ZM47.4146 75.5702C50.0093 75.5702 52.4977 74.5395 54.3325 72.7047L43.0188 61.391C44.1847 60.2251 45.7659 59.5702 47.4146 59.5702V75.5702ZM54.3325 72.7047C56.1672 70.87 57.198 68.3815 57.198 65.7869H41.198C41.198 64.1381 41.8529 62.5569 43.0188 61.391L54.3325 72.7047ZM57.198 65.7869V39.9894H41.198V65.7869H57.198ZM57.1967 40.1299C57.1865 40.7124 56.9479 41.2676 56.5324 41.6759L45.3185 30.2632C42.7419 32.7949 41.2626 36.2372 41.1992 39.8488L57.1967 40.1299ZM56.5324 41.6759C56.1168 42.0842 55.5576 42.3129 54.975 42.3129V26.3129C51.3628 26.3129 47.8951 27.7315 45.3185 30.2632L56.5324 41.6759ZM54.975 42.3129C54.3924 42.3129 53.8332 42.0842 53.4176 41.6759L64.6315 30.2632C62.055 27.7315 58.5872 26.3129 54.975 26.3129V42.3129ZM53.4176 41.6759C53.0021 41.2676 52.7635 40.7124 52.7533 40.1299L68.7508 39.8488C68.6874 36.2372 67.2081 32.7949 64.6315 30.2632L53.4176 41.6759ZM52.7521 39.9894V65.7869H68.7521V39.9894H52.7521ZM52.7521 65.7869C52.7521 68.3815 53.7828 70.87 55.6175 72.7047L66.9312 61.391C68.0971 62.5569 68.7521 64.1381 68.7521 65.7869H52.7521ZM55.6175 72.7047C57.4523 74.5395 59.9407 75.5702 62.5354 75.5702V59.5702C64.1841 59.5702 65.7654 60.2251 66.9312 61.391L55.6175 72.7047ZM62.5354 75.5702C65.1301 75.5702 67.6185 74.5395 69.4532 72.7047L58.1395 61.391C59.3054 60.2251 60.8866 59.5702 62.5354 59.5702V75.5702ZM69.4532 72.7047C71.288 70.87 72.3187 68.3815 72.3187 65.7869H56.3187C56.3187 64.1381 56.9737 62.5569 58.1395 61.391L69.4532 72.7047ZM72.3187 65.7869V39.9894H56.3187V65.7869H72.3187ZM72.3187 40.0066C72.3266 36.3342 71.1672 32.7544 69.008 29.7839L56.0658 39.1914C56.2308 39.4183 56.3193 39.6917 56.3187 39.9722L72.3187 40.0066ZM69.008 29.7839C66.8488 26.8134 63.8014 24.6059 60.3058 23.4802L55.4012 38.7099C55.6682 38.7959 55.9009 38.9645 56.0658 39.1914L69.008 29.7839ZM60.3058 23.4802C56.8103 22.3544 53.0474 22.3687 49.5605 23.5209L54.5804 38.713C54.8467 38.625 55.1342 38.6239 55.4012 38.7099L60.3058 23.4802ZM49.5605 23.5209C46.0736 24.6731 43.043 26.9036 40.9063 29.8903L53.9194 39.1995C54.0826 38.9714 54.3141 38.801 54.5804 38.713L49.5605 23.5209ZM53.9458 29.9276C52.5853 28.0026 50.8442 26.3774 48.8302 25.1526L40.5165 38.8231C40.6596 38.9101 40.7832 39.0256 40.8799 39.1623L53.9458 29.9276ZM48.8302 25.1526C46.8161 23.9278 44.5721 23.1294 42.2371 22.807L40.0482 38.6565C40.2141 38.6794 40.3735 38.7361 40.5165 38.8231L48.8302 25.1526ZM42.2371 22.807C39.902 22.4845 37.5256 22.6448 35.255 23.2779L39.5523 38.69C39.7136 38.645 39.8824 38.6336 40.0482 38.6565L42.2371 22.807ZM35.255 23.2779C32.9844 23.911 30.868 25.0034 29.0366 26.4876L39.1106 38.9179C39.2407 38.8125 39.391 38.7349 39.5523 38.69L35.255 23.2779ZM42.0736 32.7028V31.162H26.0736V32.7028H42.0736ZM42.0736 31.162C42.0736 28.5673 41.0429 26.0789 39.2082 24.2441L27.8945 35.5578C26.7286 34.392 26.0736 32.8107 26.0736 31.162H42.0736ZM39.2082 24.2441C37.3794 22.4154 34.8953 21.3787 32.2921 21.3787V37.3787C30.6349 37.3787 29.0543 36.7177 27.8945 35.5578L39.2082 24.2441ZM89.6941 34.7117C91.3748 32.2385 92.2748 29.3179 92.2776 26.3277L76.2776 26.3128C76.2778 26.1008 76.3416 25.8937 76.4608 25.7184L89.6941 34.7117ZM92.2776 26.3203C92.2776 22.3379 90.6956 18.5186 87.8796 15.7026L76.5659 27.0164C76.3813 26.8317 76.2776 26.5813 76.2776 26.3203H92.2776ZM87.8796 15.7026C85.0637 12.8867 81.2444 11.3047 77.262 11.3047V27.3047C77.0009 27.3047 76.7505 27.201 76.5659 27.0164L87.8796 15.7026ZM77.262 11.3047C73.2796 11.3047 69.4604 12.8867 66.6444 15.7026L77.9581 27.0164C77.7735 27.201 77.5231 27.3047 77.262 27.3047V11.3047ZM66.6444 15.7026C63.8285 18.5186 62.2465 22.3379 62.2465 26.3203H78.2465C78.2465 26.5814 78.1427 26.8317 77.9581 27.0164L66.6444 15.7026ZM62.2465 26.3203C62.2465 28.915 63.2772 31.4034 65.1119 33.2381L76.4256 21.9244C77.5914 23.0902 78.2465 24.6714 78.2465 26.3203H62.2465ZM65.1119 33.2381C66.9466 35.0728 69.435 36.1036 72.0298 36.1036V20.1036C73.6786 20.1036 75.2598 20.7586 76.4256 21.9244L65.1119 33.2381ZM72.0298 36.1036C74.6245 36.1036 77.1129 35.0728 78.9476 33.2381L67.6339 21.9244C68.7998 20.7586 70.381 20.1036 72.0298 20.1036V36.1036ZM78.9476 33.2381C80.7824 31.4034 81.8131 28.915 81.8131 26.3203H65.8131C65.8131 24.6715 66.4681 23.0903 67.6339 21.9244L78.9476 33.2381ZM81.8131 26.3203C81.8131 27.5273 81.3336 28.6849 80.4801 29.5383L69.1664 18.2246C67.0193 20.3717 65.8131 23.2838 65.8131 26.3203H81.8131ZM80.4801 29.5383C79.6266 30.3919 78.469 30.8713 77.262 30.8713V14.8713C74.2256 14.8713 71.3135 16.0775 69.1664 18.2246L80.4801 29.5383ZM77.262 30.8713C76.055 30.8713 74.8974 30.3918 74.0439 29.5383L85.3576 18.2246C83.2105 16.0775 80.2985 14.8713 77.262 14.8713V30.8713ZM74.0439 29.5383C73.1904 28.6849 72.711 27.5273 72.711 26.3203H88.711C88.711 23.2838 87.5047 20.3717 85.3576 18.2246L74.0439 29.5383ZM72.711 26.3439C72.7083 25.4339 72.9721 24.5431 73.4698 23.7814L86.8643 32.5328C88.0755 30.679 88.7175 28.5111 88.7109 26.2966L72.711 26.3439ZM74.3143 22.7031L65.972 31.6554L77.6774 42.5633L86.0198 33.611L74.3143 22.7031ZM65.9847 31.6417C64.5891 33.1324 63.6594 34.9984 63.31 37.0103L79.074 39.7483C78.8898 40.8084 78.4 41.7916 77.6646 42.577L65.9847 31.6417ZM63.31 37.0103C62.9605 39.0223 63.2066 41.0925 64.0178 42.9665L78.701 36.61C79.1284 37.5974 79.2581 38.6882 79.074 39.7483L63.31 37.0103ZM64.0178 42.9665C64.8291 44.8405 66.1702 46.4366 67.8764 47.5587L76.6679 34.1905C77.5669 34.7817 78.2736 35.6227 78.701 36.61L64.0178 42.9665ZM67.8764 47.5587C69.5826 48.6807 71.5794 49.2798 73.6215 49.2823L73.6409 33.2823C74.7169 33.2836 75.769 33.5993 76.6679 34.1905L67.8764 47.5587ZM73.6312 49.2823H82.3284V33.2823H73.6312V49.2823ZM82.3284 49.2823C84.9231 49.2823 87.4115 48.2516 89.2463 46.4168L77.9326 35.1031C79.0984 33.9372 80.6797 33.2823 82.3284 33.2823V49.2823ZM89.2463 46.4168C91.081 44.5821 92.1117 42.0937 92.1117 39.499H76.1117C76.1117 37.8502 76.7667 36.269 77.9326 35.1031L89.2463 46.4168ZM92.1117 39.499C92.1117 36.9043 91.081 34.4159 89.2463 32.5811L77.9326 43.8948C76.7667 42.729 76.1117 41.1477 76.1117 39.499H92.1117ZM89.2463 32.5811C87.4115 30.7464 84.9231 29.7157 82.3284 29.7157V45.7157C80.6797 45.7157 79.0984 45.0607 77.9326 43.8948L89.2463 32.5811ZM82.3284 29.7157H76.1546V45.7157H82.3284V29.7157ZM81.9831 43.1955L88.3727 36.3993L76.7157 25.4396L70.3261 32.2358L81.9831 43.1955ZM88.4066 36.363C88.608 36.1461 88.7607 35.9555 88.7658 35.9493C88.8121 35.8923 88.8507 35.8434 88.8734 35.8144C88.9209 35.7539 88.9666 35.6945 89.0004 35.6503C89.0714 35.5576 89.1512 35.452 89.219 35.362C89.289 35.269 89.3564 35.1792 89.4055 35.1135C89.4303 35.0804 89.4509 35.0529 89.4655 35.0334C89.4728 35.0236 89.4786 35.0158 89.4827 35.0103C89.4848 35.0076 89.4864 35.0054 89.4876 35.0039C89.4881 35.0031 89.4886 35.0025 89.4889 35.002C89.4891 35.0018 89.4893 35.0016 89.4894 35.0014C89.4894 35.0014 89.4895 35.0013 89.4895 35.0012C89.4896 35.0012 89.4896 35.0012 89.4896 35.0012C89.4896 35.0011 89.4896 35.0011 83.0792 30.215C76.6688 25.429 76.6688 25.4289 76.6688 25.4289C76.6688 25.4289 76.6688 25.4289 76.6688 25.4289C76.6689 25.4289 76.6689 25.4289 76.6689 25.4289C76.6689 25.4289 76.6688 25.4289 76.6688 25.429C76.6686 25.4291 76.6684 25.4295 76.6681 25.4299C76.6674 25.4308 76.6662 25.4324 76.6647 25.4344C76.6616 25.4386 76.6569 25.4449 76.6507 25.4531C76.6384 25.4696 76.6205 25.4936 76.5987 25.5226C76.5549 25.5812 76.4971 25.6582 76.4392 25.7351C76.3791 25.8149 76.328 25.8823 76.2943 25.9264C76.2758 25.9505 76.2757 25.9504 76.2876 25.9352C76.2925 25.929 76.3159 25.8992 76.35 25.8573C76.367 25.8363 76.3987 25.7976 76.4399 25.7489C76.47 25.7132 76.5598 25.6072 76.6819 25.4758L88.4066 36.363ZM83.0792 22.215H83.0774V38.215H83.0792V22.215Z" fill="#343434" mask="url(#path-2-inside-1_52_13820)"/>
</svg>
