<svg width="65" height="65" viewBox="0 0 65 65" fill="none" xmlns="http://www.w3.org/2000/svg">
<path d="M46.8403 47.6431C45.0794 47.6431 43.6467 46.2104 43.6467 44.4495C43.6467 44.1671 43.5345 43.8964 43.3349 43.6967C43.1352 43.4971 42.8645 43.3849 42.5821 43.3849C42.2998 43.3849 42.029 43.4971 41.8294 43.6967C41.6297 43.8964 41.5176 44.1671 41.5176 44.4495C41.5176 46.2104 40.0849 47.6431 38.324 47.6431C38.0416 47.6431 37.7709 47.7553 37.5712 47.9549C37.3716 48.1545 37.2594 48.4253 37.2594 48.7076C37.2594 48.99 37.3716 49.2607 37.5712 49.4604C37.7709 49.66 38.0416 49.7722 38.324 49.7722C40.0849 49.7722 41.5176 51.2049 41.5176 52.9658C41.5176 53.2481 41.6297 53.5189 41.8294 53.7186C42.029 53.9182 42.2998 54.0304 42.5821 54.0304C42.8645 54.0304 43.1352 53.9182 43.3349 53.7186C43.5345 53.5189 43.6467 53.2481 43.6467 52.9658C43.6467 51.2049 45.0794 49.7722 46.8403 49.7722C47.1226 49.7722 47.3934 49.66 47.5931 49.4604C47.7927 49.2607 47.9049 48.99 47.9049 48.7076C47.9049 48.4253 47.7927 48.1545 47.5931 47.9549C47.3934 47.7553 47.1226 47.6431 46.8403 47.6431ZM42.5821 49.7755C42.2783 49.371 41.9188 49.0115 41.5143 48.7076C41.9188 48.4038 42.2783 48.0443 42.5821 47.6398C42.8859 48.0443 43.2455 48.4038 43.65 48.7076C43.2455 49.0115 42.8859 49.371 42.5821 49.7755ZM10.6459 22.0941C12.4067 22.0941 13.8395 23.5268 13.8395 25.2877C13.8395 25.57 13.9516 25.8408 14.1513 26.0405C14.3509 26.2401 14.6217 26.3522 14.904 26.3522C15.1864 26.3522 15.4571 26.2401 15.6568 26.0405C15.8564 25.8408 15.9686 25.57 15.9686 25.2877C15.9686 23.5268 17.4013 22.0941 19.1622 22.0941C19.4445 22.0941 19.7153 21.9819 19.9149 21.7823C20.1146 21.5826 20.2267 21.3119 20.2267 21.0295C20.2267 20.7472 20.1146 20.4764 19.9149 20.2768C19.7153 20.0771 19.4445 19.965 19.1622 19.965C17.4013 19.965 15.9686 18.5323 15.9686 16.7714C15.9686 16.489 15.8564 16.2183 15.6568 16.0186C15.4571 15.819 15.1864 15.7068 14.904 15.7068C14.6217 15.7068 14.3509 15.819 14.1513 16.0186C13.9516 16.2183 13.8395 16.489 13.8395 16.7714C13.8395 18.5323 12.4067 19.965 10.6459 19.965C10.3635 19.965 10.0928 20.0771 9.89311 20.2768C9.69347 20.4764 9.58131 20.7472 9.58131 21.0295C9.58131 21.3119 9.69347 21.5826 9.89311 21.7823C10.0928 21.9819 10.3635 22.0941 10.6459 22.0941ZM14.904 19.9617C15.2078 20.3662 15.5674 20.7257 15.9719 21.0295C15.5674 21.3333 15.2078 21.6929 14.904 22.0974C14.6002 21.6929 14.2407 21.3333 13.8362 21.0295C14.2407 20.7257 14.6002 20.3662 14.904 19.9617ZM62.8084 31.675C61.0476 31.675 59.6148 30.2422 59.6148 28.4813C59.6148 28.199 59.5027 27.9282 59.303 27.7286C59.1034 27.5289 58.8326 27.4168 58.5503 27.4168C58.2679 27.4168 57.9972 27.5289 57.7975 27.7286C57.5979 27.9282 57.4857 28.199 57.4857 28.4813C57.4857 30.2422 56.053 31.675 54.2921 31.675C54.0098 31.675 53.739 31.7871 53.5394 31.9868C53.3397 32.1864 53.2276 32.4572 53.2276 32.7395C53.2276 33.0218 53.3397 33.2926 53.5394 33.4922C53.739 33.6919 54.0098 33.804 54.2921 33.804C56.053 33.804 57.4857 35.2368 57.4857 36.9977C57.4857 37.28 57.5979 37.5508 57.7975 37.7504C57.9972 37.9501 58.2679 38.0622 58.5503 38.0622C58.8326 38.0622 59.1034 37.9501 59.303 37.7504C59.5027 37.5508 59.6148 37.28 59.6148 36.9977C59.6148 35.2368 61.0476 33.804 62.8084 33.804C63.0908 33.804 63.3616 33.6919 63.5612 33.4922C63.7608 33.2926 63.873 33.0218 63.873 32.7395C63.873 32.4572 63.7608 32.1864 63.5612 31.9868C63.3616 31.7871 63.0908 31.675 62.8084 31.675ZM58.5503 33.8074C58.2465 33.4028 57.8869 33.0433 57.4824 32.7395C57.8869 32.4357 58.2465 32.0762 58.5503 31.6716C58.8541 32.0762 59.2136 32.4357 59.6181 32.7395C59.2136 33.0433 58.8541 33.4028 58.5503 33.8074ZM27.6785 7.19048C29.4394 7.19048 30.8722 8.62322 30.8722 10.3841C30.8722 10.6664 30.9843 10.9372 31.184 11.1369C31.3836 11.3365 31.6544 11.4487 31.9367 11.4487C32.219 11.4487 32.4898 11.3365 32.6895 11.1369C32.8891 10.9372 33.0013 10.6664 33.0013 10.3841C33.0013 8.62322 34.434 7.19048 36.1949 7.19048C36.4772 7.19048 36.748 7.07832 36.9476 6.87868C37.1473 6.67904 37.2594 6.40827 37.2594 6.12594C37.2594 5.84361 37.1473 5.57283 36.9476 5.37319C36.748 5.17355 36.4772 5.0614 36.1949 5.0614C34.434 5.0614 33.0013 3.62866 33.0013 1.86777C33.0013 1.58544 32.8891 1.31466 32.6895 1.11502C32.4898 0.915384 32.219 0.803227 31.9367 0.803227C31.6544 0.803227 31.3836 0.915384 31.184 1.11502C30.9843 1.31466 30.8722 1.58544 30.8722 1.86777C30.8722 3.62866 29.4394 5.0614 27.6785 5.0614C27.3962 5.0614 27.1254 5.17355 26.9258 5.37319C26.7262 5.57283 26.614 5.84361 26.614 6.12594C26.614 6.40827 26.7262 6.67904 26.9258 6.87868C27.1254 7.07832 27.3962 7.19048 27.6785 7.19048ZM31.9367 5.05807C32.2405 5.46261 32.6 5.82213 33.0046 6.12594C32.6 6.42975 32.2405 6.78927 31.9367 7.19381C31.6329 6.78927 31.2734 6.42975 30.8688 6.12594C31.2734 5.82213 31.6329 5.46261 31.9367 5.05807ZM64.0021 3.99685C64.0021 3.10916 63.6565 2.27482 63.0291 1.64728C61.7335 0.351994 59.6255 0.351861 58.3299 1.64741L31.2847 28.6937L29.8698 27.2788C29.6701 27.0792 29.3993 26.9671 29.117 26.9671C28.8347 26.9671 28.5639 27.0792 28.3642 27.2788L25.722 29.921C24.4482 29.3113 23.0441 28.9889 21.5902 28.9889C19.0311 28.9889 16.6251 29.9854 14.8154 31.795L11.8841 34.7263L1.51115 41.4381C1.09643 41.7052 0.747023 42.0621 0.488759 42.4824C0.230496 42.9026 0.0699753 43.3756 0.0190603 43.8662C-0.0339369 44.3566 0.023927 44.8527 0.188377 45.3177C0.352827 45.7828 0.619661 46.2049 0.969165 46.553L18.1232 63.707C18.7489 64.3326 19.5842 64.6758 20.4571 64.6758C20.5742 64.6758 20.6921 64.6697 20.81 64.657C21.3006 64.6061 21.7736 64.4456 22.1938 64.1873C22.6141 63.9291 22.971 63.5797 23.2381 63.1649L29.9499 52.7922L32.8812 49.8608L32.8835 49.8583C34.6915 48.0491 35.6874 45.644 35.6874 43.0859C35.6874 41.632 35.3648 40.2279 34.7552 38.9542L37.3974 36.312C37.4963 36.2131 37.5747 36.0958 37.6282 35.9666C37.6817 35.8374 37.7092 35.699 37.7092 35.5592C37.7092 35.4194 37.6817 35.281 37.6282 35.1518C37.5747 35.0227 37.4963 34.9053 37.3974 34.8064L35.9837 33.3927L63.0289 6.34643C63.6565 5.71888 64.0021 4.88455 64.0021 3.99685ZM21.4504 62.0086C21.3553 62.1563 21.2282 62.2807 21.0785 62.3727C20.9288 62.4647 20.7604 62.5219 20.5856 62.54C20.411 62.5589 20.2343 62.5383 20.0686 62.4797C19.903 62.4211 19.7527 62.326 19.6287 62.2015L17.8265 60.3992L20.8374 57.3883C21.037 57.1887 21.1492 56.9179 21.1492 56.6356C21.1492 56.3532 21.037 56.0824 20.8374 55.8828C20.6377 55.6831 20.367 55.571 20.0846 55.571C19.8023 55.571 19.5315 55.6831 19.3319 55.8828L16.3209 58.8937L14.8155 57.3883L17.8265 54.3774C17.9253 54.2785 18.0037 54.1612 18.0572 54.032C18.1107 53.9029 18.1383 53.7644 18.1383 53.6246C18.1383 53.4848 18.1107 53.3464 18.0572 53.2172C18.0037 53.0881 17.9253 52.9707 17.8265 52.8719C17.7276 52.773 17.6103 52.6946 17.4811 52.6411C17.3519 52.5876 17.2135 52.5601 17.0737 52.5601C16.9339 52.5601 16.7955 52.5876 16.6663 52.6411C16.5371 52.6946 16.4198 52.773 16.3209 52.8719L13.3099 55.8827L11.8045 54.3773L14.8154 51.3663C14.9143 51.2675 14.9927 51.1501 15.0462 51.021C15.0997 50.8918 15.1272 50.7534 15.1272 50.6136C15.1272 50.4738 15.0997 50.3353 15.0462 50.2062C14.9927 50.077 14.9143 49.9597 14.8154 49.8608C14.7165 49.762 14.5992 49.6835 14.47 49.63C14.3409 49.5765 14.2024 49.549 14.0626 49.549C13.9228 49.549 13.7844 49.5765 13.6552 49.63C13.5261 49.6835 13.4087 49.762 13.3099 49.8608L10.2989 52.8717L8.79355 51.3663L11.8045 48.3554C12.0041 48.1558 12.1163 47.885 12.1163 47.6026C12.1163 47.3203 12.0041 47.0495 11.8045 46.8499C11.6048 46.6502 11.3341 46.5381 11.0517 46.5381C10.7694 46.5381 10.4986 46.6502 10.2989 46.8499L7.28802 49.8608L5.78263 48.3554L8.79355 45.3445C8.89241 45.2456 8.97082 45.1283 9.02432 44.9991C9.07782 44.87 9.10536 44.7315 9.10536 44.5917C9.10536 44.4519 9.07782 44.3135 9.02432 44.1843C8.97082 44.0552 8.89241 43.9378 8.79355 43.839C8.6947 43.7401 8.57734 43.6617 8.44818 43.6082C8.31902 43.5547 8.18059 43.5272 8.04079 43.5272C7.90099 43.5272 7.76255 43.5547 7.63339 43.6082C7.50424 43.6617 7.38688 43.7401 7.28802 43.839L4.2771 46.8499L2.47483 45.0476C2.35035 44.9236 2.25531 44.7733 2.19672 44.6077C2.13813 44.4421 2.11748 44.2654 2.1363 44.0907C2.15446 43.916 2.21165 43.7475 2.30364 43.5978C2.39563 43.4482 2.52007 43.3211 2.66778 43.2259L12.413 36.9201L27.7565 52.2636L21.4504 62.0086ZM29.1177 50.6136L14.0626 35.5585L15.5679 34.0533L30.6231 49.1082L29.1177 50.6136ZM32.0755 47.5496L17.1267 32.6007C18.4081 31.6382 19.959 31.1178 21.5902 31.1178C23.5805 31.1178 25.4519 31.8928 26.8592 33.3004L31.3757 37.8168C32.7833 39.2242 33.5583 41.0956 33.5583 43.0861C33.5584 44.7171 33.038 46.2681 32.0755 47.5496ZM33.5915 37.1068L27.5694 31.0847L29.117 29.5371L35.1393 35.5593L33.5915 37.1068ZM61.5234 4.84104L34.4783 31.8873L32.7901 30.1991L59.8353 3.15281C60.3005 2.68733 61.0581 2.68733 61.5234 3.15281C61.7488 3.37809 61.873 3.67789 61.873 3.99685C61.873 4.31582 61.7488 4.61549 61.5234 4.84104Z" fill="black"/>
</svg>
