<svg width="135" height="132" viewBox="0 0 135 132" fill="none" xmlns="http://www.w3.org/2000/svg">
<path d="M111.726 14.6346C111.726 10.7784 108.599 7.65179 104.743 7.65179H97.7599C97.7599 3.79552 94.6333 0.668945 90.777 0.668945C86.9208 0.668945 83.7942 3.79552 83.7942 7.65179H74.4837C74.4837 3.79552 71.3572 0.668945 67.5009 0.668945C63.6446 0.668945 60.518 3.79552 60.518 7.65179H51.2076C51.2076 3.79552 48.081 0.668945 44.2247 0.668945C40.3684 0.668945 37.2419 3.79552 37.2419 7.65179H27.9314C27.9314 3.79552 24.8048 0.668945 20.9485 0.668945C17.0923 0.668945 13.9657 3.79552 13.9657 7.65179H6.98285C3.12657 7.65179 0 10.7784 0 14.6346V112.395C0 113.012 0.24523 113.604 0.681743 114.04C1.11826 114.477 1.71029 114.722 2.32762 114.722H9.31047V121.705C9.31047 122.322 9.5557 122.914 9.99221 123.351C10.4287 123.787 11.0208 124.033 11.6381 124.033H72.9312C72.9621 124.033 72.9847 124.017 73.013 124.017C85.3409 132.519 101.415 133.327 114.534 126.102C127.653 118.878 135.563 104.861 134.969 89.8981C134.374 74.9333 125.376 61.5894 111.726 55.4282V14.6346ZM88.4494 7.65179C88.4494 7.03447 88.6947 6.44243 89.1312 6.00592C89.5677 5.56941 90.1597 5.32418 90.777 5.32418C91.3944 5.32418 91.9864 5.56941 92.4229 6.00592C92.8594 6.44243 93.1047 7.03447 93.1047 7.65179V14.6346H88.4494V7.65179ZM65.1733 7.65179C65.1733 7.03447 65.4185 6.44243 65.855 6.00592C66.2915 5.56941 66.8836 5.32418 67.5009 5.32418C68.1182 5.32418 68.7102 5.56941 69.1468 6.00592C69.5833 6.44243 69.8285 7.03447 69.8285 7.65179V14.6346H65.1733V7.65179ZM41.8971 7.65179C41.8971 7.03447 42.1423 6.44243 42.5788 6.00592C43.0154 5.56941 43.6074 5.32418 44.2247 5.32418C44.842 5.32418 45.4341 5.56941 45.8706 6.00592C46.3071 6.44243 46.5523 7.03447 46.5523 7.65179V14.6346H41.8971V7.65179ZM18.6209 7.65179C18.6209 7.03447 18.8662 6.44243 19.3027 6.00592C19.7392 5.56941 20.3312 5.32418 20.9485 5.32418C21.5659 5.32418 22.1579 5.56941 22.5944 6.00592C23.0309 6.44243 23.2762 7.03447 23.2762 7.65179V14.6346H18.6209V7.65179ZM4.65523 14.6346C4.65523 14.0173 4.90046 13.4253 5.33698 12.9888C5.77349 12.5523 6.36553 12.307 6.98285 12.307H13.9657V16.9623C13.9657 17.2679 14.0259 17.5706 14.1429 17.853C14.2599 18.1354 14.4313 18.392 14.6474 18.6081C14.8636 18.8243 15.1202 18.9957 15.4026 19.1127C15.685 19.2297 15.9876 19.2899 16.2933 19.2899H25.6038C26.2211 19.2899 26.8131 19.0446 27.2497 18.6081C27.6862 18.1716 27.9314 17.5796 27.9314 16.9623V12.307H37.2419V16.9623C37.2419 17.5796 37.4871 18.1716 37.9236 18.6081C38.3601 19.0446 38.9522 19.2899 39.5695 19.2899H48.8799C49.4973 19.2899 50.0893 19.0446 50.5258 18.6081C50.9623 18.1716 51.2076 17.5796 51.2076 16.9623V12.307H60.518V16.9623C60.518 17.5796 60.7633 18.1716 61.1998 18.6081C61.6363 19.0446 62.2283 19.2899 62.8456 19.2899H72.1561C72.7734 19.2899 73.3655 19.0446 73.802 18.6081C74.2385 18.1716 74.4837 17.5796 74.4837 16.9623V12.307H83.7942V16.9623C83.7942 17.5796 84.0394 18.1716 84.4759 18.6081C84.9124 19.0446 85.5045 19.2899 86.1218 19.2899H95.4323C96.0496 19.2899 96.6416 19.0446 97.0781 18.6081C97.5147 18.1716 97.7599 17.5796 97.7599 16.9623V12.307H104.743C105.36 12.307 105.952 12.5523 106.389 12.9888C106.825 13.4253 107.07 14.0173 107.07 14.6346V26.2727H4.65523V14.6346ZM13.9657 114.722H63.5049C64.6931 116.373 66.0066 117.929 67.434 119.377H13.9657V114.722ZM130.347 91.446C130.347 110.729 114.715 126.36 95.4323 126.36C76.15 126.36 60.518 110.729 60.518 91.446C60.518 72.1637 76.15 56.5317 95.4323 56.5317C114.706 56.5533 130.325 72.1727 130.347 91.446ZM95.4323 51.8765C81.5291 51.8675 68.6432 59.1593 61.4933 71.0828C54.3432 83.0049 53.9795 97.8082 60.5361 110.067H4.65523V30.928H107.07V53.6292C103.3 52.4664 99.3774 51.8756 95.4323 51.8765Z" fill="#23C7EF"/>
<path d="M20.9487 40.2385C17.0924 40.2385 13.9658 43.3651 13.9658 47.2214C13.9658 51.0777 17.0924 54.2042 20.9487 54.2042C24.8049 54.2042 27.9315 51.0777 27.9315 47.2214C27.9315 43.3651 24.8049 40.2385 20.9487 40.2385ZM20.9487 49.549C20.3313 49.549 19.7393 49.3038 19.3028 48.8672C18.8663 48.4307 18.6211 47.8387 18.6211 47.2214C18.6211 46.6041 18.8663 46.012 19.3028 45.5755C19.7393 45.139 20.3313 44.8938 20.9487 44.8938C21.566 44.8938 22.158 45.139 22.5945 45.5755C23.0311 46.012 23.2763 46.6041 23.2763 47.2214C23.2763 47.8387 23.0311 48.4307 22.5945 48.8672C22.158 49.3038 21.566 49.549 20.9487 49.549ZM44.2248 40.2385C40.3686 40.2385 37.242 43.3651 37.242 47.2214C37.242 51.0777 40.3686 54.2042 44.2248 54.2042C48.0811 54.2042 51.2077 51.0777 51.2077 47.2214C51.2077 43.3651 48.0811 40.2385 44.2248 40.2385ZM44.2248 49.549C43.6075 49.549 43.0155 49.3038 42.579 48.8672C42.1424 48.4307 41.8972 47.8387 41.8972 47.2214C41.8972 46.6041 42.1424 46.012 42.579 45.5755C43.0155 45.139 43.6075 44.8938 44.2248 44.8938C44.8422 44.8938 45.4342 45.139 45.8707 45.5755C46.3072 46.012 46.5525 46.6041 46.5525 47.2214C46.5525 47.8387 46.3072 48.4307 45.8707 48.8672C45.4342 49.3038 44.8422 49.549 44.2248 49.549ZM67.501 40.2385C63.6447 40.2385 60.5182 43.3651 60.5182 47.2214C60.5182 51.0777 63.6447 54.2042 67.501 54.2042C71.3573 54.2042 74.4838 51.0777 74.4838 47.2214C74.4838 43.3651 71.3573 40.2385 67.501 40.2385ZM67.501 49.549C66.8837 49.549 66.2916 49.3038 65.8551 48.8672C65.4186 48.4307 65.1734 47.8387 65.1734 47.2214C65.1734 46.6041 65.4186 46.012 65.8551 45.5755C66.2916 45.139 66.8837 44.8938 67.501 44.8938C68.1183 44.8938 68.7104 45.139 69.1469 45.5755C69.5834 46.012 69.8286 46.6041 69.8286 47.2214C69.8286 47.8387 69.5834 48.4307 69.1469 48.8672C68.7104 49.3038 68.1183 49.549 67.501 49.549ZM20.9487 58.8595C17.0924 58.8595 13.9658 61.986 13.9658 65.8423C13.9658 69.6986 17.0924 72.8252 20.9487 72.8252C24.8049 72.8252 27.9315 69.6986 27.9315 65.8423C27.9315 61.986 24.8049 58.8595 20.9487 58.8595ZM20.9487 68.1699C20.3313 68.1699 19.7393 67.9247 19.3028 67.4882C18.8663 67.0517 18.6211 66.4596 18.6211 65.8423C18.6211 65.225 18.8663 64.6329 19.3028 64.1964C19.7393 63.7599 20.3313 63.5147 20.9487 63.5147C21.566 63.5147 22.158 63.7599 22.5945 64.1964C23.0311 64.6329 23.2763 65.225 23.2763 65.8423C23.2763 66.4596 23.0311 67.0517 22.5945 67.4882C22.158 67.9247 21.566 68.1699 20.9487 68.1699ZM44.2248 58.8595C40.3686 58.8595 37.242 61.986 37.242 65.8423C37.242 69.6986 40.3686 72.8252 44.2248 72.8252C48.0811 72.8252 51.2077 69.6986 51.2077 65.8423C51.2077 61.986 48.0811 58.8595 44.2248 58.8595ZM44.2248 68.1699C43.6075 68.1699 43.0155 67.9247 42.579 67.4882C42.1424 67.0517 41.8972 66.4596 41.8972 65.8423C41.8972 65.225 42.1424 64.6329 42.579 64.1964C43.0155 63.7599 43.6075 63.5147 44.2248 63.5147C44.8422 63.5147 45.4342 63.7599 45.8707 64.1964C46.3072 64.6329 46.5525 65.225 46.5525 65.8423C46.5525 66.4596 46.3072 67.0517 45.8707 67.4882C45.4342 67.9247 44.8422 68.1699 44.2248 68.1699ZM20.9487 77.4804C17.0924 77.4804 13.9658 80.607 13.9658 84.4632C13.9658 88.3195 17.0924 91.4461 20.9487 91.4461C24.8049 91.4461 27.9315 88.3195 27.9315 84.4632C27.9315 80.607 24.8049 77.4804 20.9487 77.4804ZM20.9487 86.7909C20.3313 86.7909 19.7393 86.5456 19.3028 86.1091C18.8663 85.6726 18.6211 85.0806 18.6211 84.4632C18.6211 83.8459 18.8663 83.2539 19.3028 82.8174C19.7393 82.3809 20.3313 82.1356 20.9487 82.1356C21.566 82.1356 22.158 82.3809 22.5945 82.8174C23.0311 83.2539 23.2763 83.8459 23.2763 84.4632C23.2763 85.0806 23.0311 85.6726 22.5945 86.1091C22.158 86.5456 21.566 86.7909 20.9487 86.7909ZM44.2248 77.4804C40.3686 77.4804 37.242 80.607 37.242 84.4632C37.242 88.3195 40.3686 91.4461 44.2248 91.4461C48.0811 91.4461 51.2077 88.3195 51.2077 84.4632C51.2077 80.607 48.0811 77.4804 44.2248 77.4804ZM44.2248 86.7909C43.6075 86.7909 43.0155 86.5456 42.579 86.1091C42.1424 85.6726 41.8972 85.0806 41.8972 84.4632C41.8972 83.8459 42.1424 83.2539 42.579 82.8174C43.0155 82.3809 43.6075 82.1356 44.2248 82.1356C44.8422 82.1356 45.4342 82.3809 45.8707 82.8174C46.3072 83.2539 46.5525 83.8459 46.5525 84.4632C46.5525 85.0806 46.3072 85.6726 45.8707 86.1091C45.4342 86.5456 44.8422 86.7909 44.2248 86.7909ZM65.1734 91.4461C65.1734 108.158 78.721 121.705 95.4324 121.705C112.144 121.705 125.691 108.158 125.691 91.4461C125.691 74.7344 112.144 61.1871 95.4324 61.1871C78.7288 61.2066 65.1926 74.7425 65.1734 91.4461ZM121.036 91.4461H116.381C115.764 91.4461 115.172 91.6913 114.735 92.1278C114.299 92.5643 114.053 93.1564 114.053 93.7737C114.053 94.391 114.299 94.9831 114.735 95.4196C115.172 95.8561 115.764 96.1013 116.381 96.1013H120.592C118.493 107.368 109.171 115.873 97.76 116.932V112.395C97.76 111.777 97.5148 111.185 97.0783 110.749C96.6418 110.312 96.0497 110.067 95.4324 110.067C94.8151 110.067 94.223 110.312 93.7865 110.749C93.35 111.185 93.1048 111.777 93.1048 112.395V116.932C81.6939 115.873 72.3721 107.368 70.2729 96.1013H74.4838C75.1012 96.1013 75.6932 95.8561 76.1297 95.4196C76.5662 94.9831 76.8115 94.391 76.8115 93.7737C76.8115 93.1564 76.5662 92.5643 76.1297 92.1278C75.6932 91.6913 75.1012 91.4461 74.4838 91.4461H69.8286C69.8458 78.2168 79.9313 67.1743 93.1048 65.9616V70.4975C93.1048 71.1149 93.35 71.7069 93.7865 72.1434C94.223 72.5799 94.8151 72.8252 95.4324 72.8252C96.0497 72.8252 96.6418 72.5799 97.0783 72.1434C97.5148 71.7069 97.76 71.1149 97.76 70.4975V65.9616C110.933 67.1743 121.019 78.2168 121.036 91.4461Z" fill="#23C7EF"/>
<path d="M95.9327 90.3288L92.7139 85.4999C92.3712 84.9864 91.8386 84.6299 91.2333 84.5088C90.6279 84.3877 89.9992 84.5119 89.4852 84.854C89.2309 85.0237 89.0125 85.2418 88.8425 85.4959C88.6724 85.7501 88.5541 86.0352 88.4942 86.335C88.4344 86.6349 88.4342 86.9435 88.4937 87.2435C88.5531 87.5434 88.6711 87.8287 88.8408 88.083L93.496 95.0658C93.6776 95.3368 93.9139 95.5667 94.1897 95.7407C94.4655 95.9147 94.7747 96.0291 95.0974 96.0763C95.4206 96.1239 95.7502 96.1029 96.0646 96.0146C96.3791 95.9262 96.6715 95.7726 96.9226 95.5637L110.888 83.9256C111.123 83.73 111.318 83.4901 111.46 83.2194C111.602 82.9488 111.69 82.6527 111.718 82.3482C111.746 82.0437 111.713 81.7367 111.622 81.4447C111.531 81.1527 111.384 80.8815 111.188 80.6465C110.793 80.1717 110.226 79.8733 109.611 79.8169C108.996 79.7605 108.383 79.9507 107.908 80.3457L95.9327 90.3288Z" fill="#23C7EF"/>
</svg>
