<svg width="29" height="30" viewBox="0 0 29 30" fill="none" xmlns="http://www.w3.org/2000/svg">
<path d="M7.80176 2.96545H10.893V4.12156H7.80176V2.96545ZM18.1057 2.96545H21.1964V4.12156H18.1057V2.96545Z" fill="white"/>
<path d="M26.0917 29.3386H2.90719C2.12415 29.3252 1.37847 29.0079 0.83358 28.4564C0.28869 27.9049 -0.0109594 27.1641 0.000306557 26.3963V5.90817C-0.0108133 5.14049 0.288901 4.3998 0.833776 3.8484C1.37865 3.29699 2.12425 2.97984 2.90719 2.96643H5.74298V4.12307H2.90719C2.43678 4.13599 1.99076 4.33116 1.66683 4.66585C1.34289 5.00053 1.16745 5.44745 1.17892 5.9087V26.3963C1.16745 26.8576 1.34289 27.3045 1.66683 27.6392C1.99076 27.9738 2.43678 28.169 2.90719 28.1819H26.0917C26.5622 28.169 27.0082 27.9739 27.3323 27.6392C27.6563 27.3045 27.8319 26.8576 27.8205 26.3963V5.90817C27.8319 5.44686 27.6563 4.99995 27.3323 4.66528C27.0082 4.33061 26.5622 4.13545 26.0917 4.12253H23.2581V2.96643H26.0917C26.8749 2.97955 27.6209 3.29666 28.166 3.84821C28.7112 4.39977 29.011 5.14076 28.9997 5.9087V26.3963C29.011 27.1643 28.7112 27.9052 28.166 28.4568C27.6209 29.0083 26.8749 29.3255 26.0917 29.3386Z" fill="white"/>
<path d="M12.9546 2.96511H16.0458V4.12121H12.9546V2.96511ZM0.589844 8.74402H28.4106V9.90012H0.589844V8.74402ZM7.80264 7.27369H5.74348C5.66601 7.27369 5.5893 7.25872 5.51773 7.22963C5.44616 7.20055 5.38114 7.15792 5.32639 7.10419C5.27164 7.05046 5.22822 6.98667 5.19862 6.91647C5.16902 6.84628 5.15383 6.77105 5.1539 6.6951V0.916723C5.15383 0.840767 5.16902 0.765542 5.19862 0.695347C5.22822 0.625153 5.27164 0.561366 5.32639 0.507632C5.38114 0.453898 5.44616 0.411271 5.51773 0.382188C5.5893 0.353104 5.66601 0.338135 5.74348 0.338135H7.80428C7.8817 0.338135 7.95837 0.353087 8.0299 0.382136C8.10143 0.411186 8.16643 0.453765 8.22118 0.507442C8.27592 0.561119 8.31935 0.624843 8.34898 0.694976C8.37861 0.765108 8.39386 0.840276 8.39386 0.916187V6.6951C8.39386 6.77117 8.37856 6.84649 8.34883 6.91676C8.31911 6.98703 8.27554 7.05086 8.22063 7.1046C8.16571 7.15834 8.10053 7.20094 8.02881 7.22995C7.95708 7.25897 7.88023 7.27383 7.80264 7.27369ZM6.33142 6.11705H7.21306V1.49478H6.33142V6.11705Z" fill="white"/>
<path d="M12.9545 7.27369H10.8937C10.8163 7.27369 10.7396 7.25872 10.668 7.22963C10.5964 7.20055 10.5314 7.15792 10.4767 7.10419C10.4219 7.05046 10.3785 6.98667 10.3489 6.91647C10.3193 6.84628 10.3041 6.77105 10.3042 6.6951V0.916723C10.3041 0.840767 10.3193 0.765542 10.3489 0.695347C10.3785 0.625153 10.4219 0.561366 10.4767 0.507632C10.5314 0.453898 10.5964 0.411271 10.668 0.382188C10.7396 0.353104 10.8163 0.338135 10.8937 0.338135H12.9545C13.032 0.338135 13.1086 0.353087 13.1802 0.382136C13.2517 0.411186 13.3167 0.453765 13.3714 0.507442C13.4262 0.561119 13.4696 0.624843 13.4992 0.694976C13.5289 0.765108 13.5441 0.840276 13.5441 0.916187V6.6951C13.5441 6.84846 13.482 6.99554 13.3715 7.10403C13.2609 7.21252 13.111 7.27354 12.9545 7.27369ZM11.4861 6.11705H12.3672V1.49478H11.4861V6.11705ZM18.1038 7.27369H16.0457C15.9683 7.27369 15.8916 7.25872 15.82 7.22963C15.7484 7.20055 15.6834 7.15792 15.6287 7.10419C15.5739 7.05046 15.5305 6.98667 15.5009 6.91647C15.4713 6.84628 15.4561 6.77105 15.4562 6.6951V0.916723C15.4561 0.840767 15.4713 0.765542 15.5009 0.695347C15.5305 0.625153 15.5739 0.561366 15.6287 0.507632C15.6834 0.453898 15.7484 0.411271 15.82 0.382188C15.8916 0.353104 15.9683 0.338135 16.0457 0.338135H18.1038C18.2602 0.338135 18.4102 0.399019 18.5209 0.50741C18.6315 0.6158 18.6938 0.762829 18.6939 0.916187V6.6951C18.6939 6.77108 18.6787 6.84632 18.649 6.91651C18.6194 6.98671 18.5759 7.05049 18.5211 7.10422C18.4663 7.15795 18.4012 7.20057 18.3296 7.22964C18.258 7.25872 18.1813 7.27369 18.1038 7.27369ZM16.6326 6.11705H17.5142V1.49478H16.6353L16.6326 6.11705ZM23.2585 7.27369H21.1977C21.1203 7.27369 21.0436 7.25872 20.972 7.22963C20.9004 7.20055 20.8354 7.15792 20.7806 7.10419C20.7259 7.05046 20.6825 6.98667 20.6529 6.91647C20.6233 6.84628 20.6081 6.77105 20.6082 6.6951V0.916723C20.6081 0.840767 20.6233 0.765542 20.6529 0.695347C20.6825 0.625153 20.7259 0.561366 20.7806 0.507632C20.8354 0.453898 20.9004 0.411271 20.972 0.382188C21.0436 0.353104 21.1203 0.338135 21.1977 0.338135H23.2585C23.4147 0.338702 23.5642 0.399911 23.6744 0.508356C23.7846 0.616801 23.8465 0.763643 23.8465 0.916723V6.6951C23.8465 6.84818 23.7846 6.99502 23.6744 7.10347C23.5642 7.21191 23.4147 7.27312 23.2585 7.27369ZM21.7873 6.11705H22.669V1.49478H21.7873V6.11705ZM6.77215 15.1535H3.16575C3.00939 15.1535 2.85942 15.0926 2.74886 14.9842C2.63829 14.8758 2.57617 14.7288 2.57617 14.5755V11.4235C2.5769 11.2707 2.63933 11.1244 2.74982 11.0165C2.86031 10.9087 3.00986 10.8482 3.16575 10.8482H6.77215C6.92852 10.8482 7.07848 10.9091 7.18905 11.0175C7.29961 11.1259 7.36173 11.2729 7.36173 11.4262V14.5782C7.36101 14.731 7.29857 14.8773 7.18808 14.9852C7.07759 15.093 6.92804 15.1535 6.77215 15.1535ZM3.75533 13.9974H6.18093V12.0016H3.75533V13.9974ZM6.77215 20.4069H3.16575C3.00939 20.4069 2.85942 20.346 2.74886 20.2376C2.63829 20.1292 2.57617 19.9822 2.57617 19.8289V16.677C2.57617 16.5236 2.63829 16.3766 2.74886 16.2682C2.85942 16.1598 3.00939 16.0989 3.16575 16.0989H6.77215C6.92852 16.0989 7.07848 16.1598 7.18905 16.2682C7.29961 16.3766 7.36173 16.5236 7.36173 16.677V19.8289C7.36173 19.9822 7.29961 20.1292 7.18905 20.2376C7.07848 20.346 6.92852 20.4069 6.77215 20.4069ZM3.75533 19.2508H6.18093V17.255H3.75533V19.2508ZM6.77215 25.6604H3.16575C3.00939 25.6604 2.85942 25.5994 2.74886 25.491C2.63829 25.3826 2.57617 25.2356 2.57617 25.0823V21.9304C2.5761 21.8544 2.5913 21.7792 2.62089 21.709C2.65049 21.6388 2.69391 21.575 2.74866 21.5213C2.80342 21.4675 2.86844 21.4249 2.94 21.3958C3.01157 21.3667 3.08828 21.3518 3.16575 21.3518H6.77215C6.84962 21.3518 6.92633 21.3667 6.9979 21.3958C7.06947 21.4249 7.13448 21.4675 7.18924 21.5213C7.24399 21.575 7.28741 21.6388 7.31701 21.709C7.3466 21.7792 7.3618 21.8544 7.36173 21.9304V25.0823C7.36173 25.2356 7.29961 25.3826 7.18905 25.491C7.07848 25.5994 6.92852 25.6604 6.77215 25.6604ZM3.75533 24.5037H6.18093V22.5084H3.75533V24.5037ZM12.9545 15.1535H9.34815C9.19178 15.1535 9.04182 15.0926 8.93125 14.9842C8.82068 14.8758 8.75857 14.7288 8.75857 14.5755V11.4235C8.75929 11.2707 8.82172 11.1244 8.93221 11.0165C9.0427 10.9087 9.19225 10.8482 9.34815 10.8482H12.9545C13.1109 10.8482 13.2609 10.9091 13.3714 11.0175C13.482 11.1259 13.5441 11.2729 13.5441 11.4262V14.5782C13.5434 14.731 13.481 14.8773 13.3705 14.9852C13.26 15.093 13.1104 15.1535 12.9545 15.1535ZM9.93773 13.9974H12.3644V12.0016H9.93773V13.9974ZM12.9545 20.4069H9.34815C9.19178 20.4069 9.04182 20.346 8.93125 20.2376C8.82068 20.1292 8.75857 19.9822 8.75857 19.8289V16.677C8.75857 16.5236 8.82068 16.3766 8.93125 16.2682C9.04182 16.1598 9.19178 16.0989 9.34815 16.0989H12.9545C13.1109 16.0989 13.2609 16.1598 13.3714 16.2682C13.482 16.3766 13.5441 16.5236 13.5441 16.677V19.8289C13.5441 19.9822 13.482 20.1292 13.3714 20.2376C13.2609 20.346 13.1109 20.4069 12.9545 20.4069ZM9.93773 19.2508H12.3644V17.255H9.93773V19.2508ZM12.9545 25.6604H9.34815C9.19178 25.6604 9.04182 25.5994 8.93125 25.491C8.82068 25.3826 8.75857 25.2356 8.75857 25.0823V21.9304C8.75849 21.8544 8.77369 21.7792 8.80329 21.709C8.83288 21.6388 8.8763 21.575 8.93106 21.5213C8.98581 21.4675 9.05083 21.4249 9.1224 21.3958C9.19396 21.3667 9.27068 21.3518 9.34815 21.3518H12.9545C13.111 21.3519 13.2609 21.4129 13.3715 21.5214C13.482 21.6299 13.5441 21.777 13.5441 21.9304V25.0823C13.5441 25.2356 13.482 25.3826 13.3714 25.491C13.2609 25.5994 13.1109 25.6604 12.9545 25.6604ZM9.93773 24.5037H12.3644V22.5084H9.93773V24.5037ZM19.1369 15.1535H15.5333C15.3769 15.1535 15.2268 15.0926 15.1162 14.9843C15.0055 14.8759 14.9433 14.7288 14.9431 14.5755V11.4235C14.944 11.2706 15.0066 11.1243 15.1171 11.0165C15.2277 10.9087 15.3773 10.8482 15.5333 10.8482H19.1391C19.2955 10.8482 19.4455 10.9091 19.556 11.0175C19.6666 11.1259 19.7287 11.2729 19.7287 11.4262V14.5782C19.728 14.7314 19.6652 14.878 19.5543 14.9859C19.4433 15.0938 19.2932 15.1541 19.1369 15.1535ZM16.1207 13.9974H18.5474V12.0016H16.1207V13.9974ZM19.1369 20.4069H15.5333C15.3769 20.4069 15.2268 20.3461 15.1162 20.2377C15.0055 20.1293 14.9433 19.9822 14.9431 19.8289V16.677C14.9433 16.5236 15.0055 16.3766 15.1162 16.2682C15.2268 16.1598 15.3769 16.0989 15.5333 16.0989H19.1391C19.2955 16.0989 19.4455 16.1598 19.556 16.2682C19.6666 16.3766 19.7287 16.5236 19.7287 16.677V19.8289C19.7287 19.905 19.7134 19.9803 19.6836 20.0506C19.6539 20.1209 19.6102 20.1847 19.5552 20.2384C19.5003 20.2921 19.435 20.3346 19.3632 20.3636C19.2914 20.3925 19.2145 20.4072 19.1369 20.4069ZM16.1207 19.2508H18.5474V17.255H16.1207V19.2508ZM19.1369 25.6604H15.5333C15.3769 25.6604 15.2268 25.5995 15.1162 25.4911C15.0055 25.3827 14.9433 25.2357 14.9431 25.0823V21.9304C14.9431 21.7769 15.0053 21.6297 15.116 21.5212C15.2267 21.4127 15.3768 21.3518 15.5333 21.3518H19.1391C19.2166 21.3518 19.2933 21.3667 19.3649 21.3958C19.4364 21.4249 19.5015 21.4675 19.5562 21.5213C19.611 21.575 19.6544 21.6388 19.684 21.709C19.7136 21.7792 19.7288 21.8544 19.7287 21.9304V25.0823C19.7287 25.1584 19.7134 25.2337 19.6836 25.304C19.6539 25.3743 19.6102 25.4381 19.5552 25.4918C19.5003 25.5455 19.435 25.588 19.3632 25.617C19.2914 25.6459 19.2145 25.6606 19.1369 25.6604ZM16.1207 24.5037H18.5474V22.5084H16.1207V24.5037ZM25.3193 15.1535H21.7135C21.5571 15.1535 21.4072 15.0926 21.2966 14.9842C21.186 14.8758 21.1239 14.7288 21.1239 14.5755V11.4235C21.1246 11.2707 21.1871 11.1244 21.2976 11.0165C21.408 10.9087 21.5576 10.8482 21.7135 10.8482H25.3199C25.4762 10.8482 25.6262 10.9091 25.7368 11.0175C25.8473 11.1259 25.9095 11.2729 25.9095 11.4262V14.5782C25.9087 14.7311 25.8462 14.8775 25.7356 14.9854C25.625 15.0932 25.4753 15.1537 25.3193 15.1535ZM22.3025 13.9974H24.7297V12.0016H22.3025V13.9974ZM25.3193 20.4069H21.7135C21.5571 20.4069 21.4072 20.346 21.2966 20.2376C21.186 20.1292 21.1239 19.9822 21.1239 19.8289V16.677C21.1239 16.5236 21.186 16.3766 21.2966 16.2682C21.4072 16.1598 21.5571 16.0989 21.7135 16.0989H25.3199C25.4762 16.0989 25.6262 16.1598 25.7368 16.2682C25.8473 16.3766 25.9095 16.5236 25.9095 16.677V19.8289C25.9095 19.9048 25.8942 19.9801 25.8645 20.0502C25.8349 20.1204 25.7914 20.1841 25.7366 20.2378C25.6818 20.2915 25.6167 20.3341 25.5451 20.3631C25.4735 20.3921 25.3968 20.407 25.3193 20.4069ZM22.3025 19.2508H24.7297V17.255H22.3025V19.2508ZM25.3193 25.6604H21.7135C21.5571 25.6604 21.4072 25.5994 21.2966 25.491C21.186 25.3826 21.1239 25.2356 21.1239 25.0823V21.9304C21.1239 21.777 21.186 21.6299 21.2966 21.5214C21.4071 21.4129 21.5571 21.3519 21.7135 21.3518H25.3199C25.3973 21.3518 25.4741 21.3667 25.5456 21.3958C25.6172 21.4249 25.6822 21.4675 25.737 21.5213C25.7917 21.575 25.8351 21.6388 25.8647 21.709C25.8943 21.7792 25.9095 21.8544 25.9095 21.9304V25.0823C25.9095 25.1583 25.8942 25.2335 25.8645 25.3036C25.8349 25.3738 25.7914 25.4375 25.7366 25.4912C25.6818 25.5449 25.6167 25.5875 25.5451 25.6165C25.4735 25.6455 25.3968 25.6604 25.3193 25.6604ZM22.3025 24.5037H24.7297V22.5084H22.3025V24.5037Z" fill="white"/>
</svg>
