<svg width="72" height="51" viewBox="0 0 72 51" fill="none" xmlns="http://www.w3.org/2000/svg">
<path d="M13.7723 40.5962C13.0913 40.5962 12.4256 40.7981 11.8594 41.1765C11.2931 41.5548 10.8518 42.0926 10.5912 42.7217C10.3306 43.3509 10.2624 44.0432 10.3953 44.7111C10.5281 45.379 10.8561 45.9925 11.3376 46.4741C11.8191 46.9556 12.4326 47.2836 13.1006 47.4164C13.7685 47.5493 14.4608 47.4811 15.0899 47.2205C15.7191 46.9599 16.2569 46.5185 16.6352 45.9523C17.0135 45.3861 17.2155 44.7204 17.2155 44.0394C17.2144 43.1265 16.8513 42.2513 16.2058 41.6059C15.5603 40.9604 14.6852 40.5973 13.7723 40.5962ZM13.7723 45.1871C13.5453 45.1871 13.3234 45.1198 13.1347 44.9937C12.9459 44.8676 12.7988 44.6883 12.7119 44.4786C12.6251 44.2689 12.6023 44.0381 12.6466 43.8155C12.6909 43.5928 12.8002 43.3883 12.9607 43.2278C13.1212 43.0673 13.3257 42.958 13.5484 42.9137C13.771 42.8694 14.0018 42.8922 14.2115 42.979C14.4212 43.0659 14.6005 43.213 14.7266 43.4017C14.8527 43.5905 14.92 43.8124 14.92 44.0394C14.9197 44.3437 14.7987 44.6354 14.5835 44.8506C14.3683 45.0657 14.0766 45.1868 13.7723 45.1871ZM58.5338 40.5962C57.8528 40.5962 57.1871 40.7981 56.6209 41.1765C56.0546 41.5548 55.6133 42.0926 55.3527 42.7217C55.0921 43.3509 55.0239 44.0432 55.1568 44.7111C55.2896 45.379 55.6176 45.9925 56.0991 46.4741C56.5806 46.9556 57.1941 47.2836 57.8621 47.4164C58.53 47.5493 59.2223 47.4811 59.8514 47.2205C60.4806 46.9599 61.0184 46.5185 61.3967 45.9523C61.775 45.3861 61.977 44.7204 61.977 44.0394C61.9759 43.1265 61.6128 42.2513 60.9673 41.6059C60.3218 40.9604 59.4467 40.5973 58.5338 40.5962ZM58.5338 45.1871C58.3068 45.1871 58.0849 45.1198 57.8962 44.9937C57.7074 44.8676 57.5603 44.6883 57.4734 44.4786C57.3866 44.2689 57.3638 44.0381 57.4081 43.8155C57.4524 43.5928 57.5617 43.3883 57.7222 43.2278C57.8827 43.0673 58.0872 42.958 58.3099 42.9137C58.5325 42.8694 58.7633 42.8922 58.973 42.979C59.1827 43.0659 59.362 43.213 59.4881 43.4017C59.6142 43.5905 59.6815 43.8124 59.6815 44.0394C59.6812 44.3437 59.5602 44.6354 59.345 44.8506C59.1298 45.0657 58.8381 45.1868 58.5338 45.1871Z" fill="black"/>
<path d="M67.1423 0.425781H25.8239C24.7589 0.426958 23.7378 0.850561 22.9848 1.60365C22.2317 2.35674 21.8081 3.37781 21.8069 4.44284V10.7554H10.3296C10.1272 10.7555 9.92847 10.8091 9.75341 10.9106C9.57834 11.0121 9.43315 11.158 9.33249 11.3335L0.15064 27.4018C0.0518296 27.5753 -8.68026e-05 27.7716 1.08942e-07 27.9713V41.1702C0.00117729 42.2353 0.42478 43.2563 1.17787 44.0094C1.93096 44.7625 2.95203 45.1861 4.01706 45.1873H6.98394C7.2549 46.7918 8.08541 48.2485 9.32815 49.299C10.5709 50.3494 12.1455 50.9258 13.7728 50.9258C15.4 50.9258 16.9746 50.3494 18.2174 49.299C19.4601 48.2485 20.2906 46.7918 20.5616 45.1873H51.7454C52.0164 46.7918 52.8469 48.2485 54.0897 49.299C55.3324 50.3494 56.907 50.9258 58.5343 50.9258C60.1615 50.9258 61.7362 50.3494 62.9789 49.299C64.2216 48.2485 65.0521 46.7918 65.3231 45.1873H67.1423C68.2073 45.1861 69.2283 44.7625 69.9814 44.0094C70.7345 43.2563 71.1581 42.2353 71.1593 41.1702V4.44284C71.1581 3.37781 70.7345 2.35674 69.9814 1.60365C69.2283 0.850561 68.2073 0.426958 67.1423 0.425781ZM9.02834 16.494H17.216V26.8236H3.12613L9.02834 16.494ZM2.29546 32.5622H4.59092C4.89532 32.5622 5.18725 32.6832 5.40249 32.8984C5.61773 33.1136 5.73865 33.4056 5.73865 33.71C5.73865 34.0144 5.61773 34.3063 5.40249 34.5215C5.18725 34.7368 4.89532 34.8577 4.59092 34.8577H2.29546V32.5622ZM13.7728 48.6305C12.8648 48.6305 11.9772 48.3612 11.2222 47.8568C10.4672 47.3523 9.87879 46.6353 9.53131 45.7964C9.18383 44.9575 9.09292 44.0345 9.27006 43.1439C9.4472 42.2534 9.88444 41.4353 10.5265 40.7933C11.1685 40.1512 11.9866 39.714 12.8771 39.5368C13.7677 39.3597 14.6908 39.4506 15.5296 39.7981C16.3685 40.1456 17.0855 40.734 17.59 41.489C18.0944 42.2439 18.3637 43.1316 18.3637 44.0396C18.3621 45.2567 17.8779 46.4234 17.0173 47.2841C16.1567 48.1447 14.9899 48.6289 13.7728 48.6305ZM21.8069 42.8918H20.5616C20.2906 41.2873 19.4601 39.8306 18.2174 38.7802C16.9746 37.7297 15.4 37.1533 13.7728 37.1533C12.1455 37.1533 10.5709 37.7297 9.32815 38.7802C8.08541 39.8306 7.2549 41.2873 6.98394 42.8918H4.01706C3.56058 42.8914 3.1229 42.7099 2.80013 42.3872C2.47735 42.0644 2.29584 41.6267 2.29546 41.1702V37.1532H4.59092C5.50411 37.1532 6.3799 36.7904 7.02563 36.1447C7.67135 35.499 8.03412 34.6232 8.03412 33.71C8.03412 32.7968 7.67135 31.921 7.02563 31.2753C6.3799 30.6295 5.50411 30.2668 4.59092 30.2668H2.29546V29.1191H18.3637C18.6681 29.1191 18.96 28.9981 19.1753 28.7829C19.3905 28.5676 19.5114 28.2757 19.5114 27.9713V15.3463C19.5114 15.0419 19.3905 14.75 19.1753 14.5347C18.96 14.3195 18.6681 14.1986 18.3637 14.1986H10.3396L10.9953 13.0508H21.8069V42.8918ZM58.5343 48.6305C57.6263 48.6305 56.7387 48.3612 55.9837 47.8568C55.2287 47.3523 54.6403 46.6353 54.2928 45.7964C53.9453 44.9575 53.8544 44.0345 54.0316 43.1439C54.2087 42.2534 54.6459 41.4353 55.288 40.7933C55.9301 40.1512 56.7481 39.714 57.6386 39.5368C58.5292 39.3597 59.4523 39.4506 60.2911 39.7981C61.13 40.1456 61.847 40.734 62.3515 41.489C62.8559 42.2439 63.1252 43.1316 63.1252 44.0396C63.1236 45.2567 62.6394 46.4234 61.7788 47.2841C60.9182 48.1447 59.7514 48.6289 58.5343 48.6305ZM68.8638 41.1702C68.8635 41.6267 68.682 42.0644 68.3592 42.3872C68.0364 42.7099 67.5987 42.8914 67.1423 42.8918H65.3231C65.0521 41.2873 64.2216 39.8306 62.9789 38.7802C61.7362 37.7297 60.1615 37.1533 58.5343 37.1533C56.907 37.1533 55.3324 37.7297 54.0897 38.7802C52.8469 39.8306 52.0164 41.2873 51.7454 42.8918H24.1023V34.8577H68.8638V41.1702ZM68.8638 32.5622H24.1023V4.44284C24.1027 3.98636 24.2842 3.54869 24.607 3.22591C24.9298 2.90313 25.3675 2.72162 25.8239 2.72124H67.1423C67.5987 2.72162 68.0364 2.90313 68.3592 3.22591C68.682 3.54869 68.8635 3.98636 68.8638 4.44284V32.5622Z" fill="black"/>
</svg>
