<svg width="71" height="84" viewBox="0 0 71 84" fill="none" xmlns="http://www.w3.org/2000/svg">
<path d="M69.855 50.4072L52.2486 32.7999C51.9844 32.5498 51.6344 32.4104 51.2706 32.4104C50.9068 32.4104 50.5568 32.5498 50.2926 32.7999L42.4667 40.6251C42.2075 40.8846 42.0619 41.2364 42.0619 41.6032C42.0619 41.97 42.2075 42.3218 42.4667 42.5813L43.4447 43.5593L40.8024 46.2017L38.6835 46.6232L34.6415 42.5813C34.3821 42.3219 34.0304 42.1761 33.6635 42.176H28.3679L25.8376 39.6471C26.378 39.1074 26.378 38.2312 25.8376 37.6909L18.0139 29.8645C17.8854 29.7359 17.7328 29.6338 17.5649 29.5641C17.397 29.4945 17.217 29.4586 17.0352 29.4585C16.8533 29.4584 16.6733 29.4943 16.5053 29.5639C16.3374 29.6336 16.1848 29.7358 16.0564 29.8645L0.405236 45.5155C0.276764 45.6439 0.174851 45.7964 0.10532 45.9642C0.0357881 46.132 0 46.3119 0 46.4936C0 46.6752 0.0357881 46.8551 0.10532 47.0229C0.174851 47.1907 0.276764 47.3432 0.405236 47.4716L8.23041 55.2967C8.35882 55.4252 8.51129 55.5271 8.6791 55.5967C8.84691 55.6662 9.02678 55.702 9.20842 55.702C9.39007 55.702 9.56994 55.6662 9.73775 55.5967C9.90556 55.5271 10.058 55.4252 10.1864 55.2967L19.1686 64.2789C18.8714 64.8926 18.7313 65.5704 18.7609 66.2516C18.7905 66.9328 18.9888 67.596 19.3381 68.1816C19.6871 68.7674 20.1761 69.2573 20.7613 69.6074C21.3464 69.9574 22.0094 70.1566 22.6906 70.1871C22.7789 72.3123 24.4832 74.0129 26.6082 74.098C26.6986 76.2169 28.3961 77.9137 30.5144 78.0042C30.5571 78.8022 30.8297 79.5708 31.2995 80.2174C31.7692 80.8639 32.416 81.3607 33.1618 81.6479C33.9076 81.9351 34.7205 82.0004 35.5026 81.8359C36.2847 81.6714 37.0024 81.2841 37.5694 80.7209L39.0398 82.1913C39.6047 82.7635 40.3241 83.1586 41.1099 83.3283C41.8958 83.498 42.7141 83.435 43.4648 83.147C44.2152 82.8587 44.8654 82.358 45.3358 81.706C45.8062 81.054 46.0764 80.2791 46.1133 79.476C48.2355 79.3889 49.9357 77.6881 50.0221 75.5659C52.1457 75.4759 53.8472 73.7751 53.937 71.6522C54.7371 71.6139 55.5089 71.3437 56.1583 70.8747C56.8077 70.4057 57.3068 69.758 57.5949 69.0104C57.8829 68.2629 57.9474 67.4478 57.7806 66.6643C57.6137 65.8807 57.2228 65.1626 56.6552 64.5972L55.1922 63.1333L59.1009 59.2157L60.079 60.1951C60.2074 60.3236 60.3599 60.4256 60.5277 60.4951C60.6955 60.5647 60.8754 60.6004 61.0571 60.6004C61.2387 60.6004 61.4186 60.5647 61.5864 60.4951C61.7543 60.4256 61.9067 60.3236 62.0352 60.1951L69.861 52.37C70.1202 52.1105 70.2658 51.7587 70.2658 51.3919C70.2658 51.0252 70.1202 50.6734 69.861 50.4139L69.855 50.4072ZM43.9344 55.7863C44.0629 55.9147 44.1648 56.0671 44.2343 56.235C44.3039 56.4028 44.3397 56.5826 44.3397 56.7643C44.3397 56.9459 44.3039 57.1258 44.2343 57.2936C44.1648 57.4614 44.0629 57.6139 43.9344 57.7423C43.6715 57.9949 43.321 58.1359 42.9564 58.1359C42.5918 58.1359 42.2413 57.9949 41.9784 57.7423L36.1092 51.8747C35.5689 51.3344 34.6929 51.3344 34.1532 51.8747C32.5321 53.4965 29.9033 53.4965 28.2822 51.8747L26.3313 53.8301C26.8338 54.323 27.4085 54.7364 28.0356 55.056L20.9521 62.1442L16.0563 57.2542L28.3679 44.9425H33.0906L43.9344 55.7863ZM9.21275 52.3625L3.33877 46.4934L17.0345 32.7984L22.9034 38.6675L9.21275 52.3625ZM23.8856 41.603L25.839 43.5593L14.0989 55.2967L12.1428 53.3405L23.8856 41.603ZM34.6313 79.1665C34.4518 79.1673 34.2739 79.1326 34.1078 79.0644C33.9417 78.9963 33.7907 78.896 33.6635 78.7693C33.408 78.5128 33.2632 78.1663 33.2603 77.8042C33.2574 77.4421 33.3965 77.0933 33.6479 76.8326L33.6635 76.8171L36.5057 73.9743L37.5723 72.9104L35.6195 70.9488L34.5497 72.0188L31.6959 74.8611L31.6838 74.8766C31.4185 75.1131 31.0725 75.2385 30.7173 75.2266C30.3621 75.2148 30.0251 75.0668 29.7762 74.8132C29.5271 74.5598 29.3851 74.2202 29.3797 73.8649C29.3743 73.5096 29.5058 73.1659 29.7471 72.905L33.6635 68.9914L31.7073 67.0361L27.7951 70.9488C27.6667 71.0774 27.5142 71.1795 27.3463 71.2491C27.1785 71.3187 26.9986 71.3546 26.8168 71.3547C26.6351 71.3547 26.4552 71.319 26.2873 71.2495C26.1194 71.1799 25.9668 71.078 25.8383 70.9495C25.7098 70.8211 25.6079 70.6687 25.5383 70.5009C25.4687 70.3331 25.4328 70.1533 25.4328 69.9716C25.4327 69.79 25.4684 69.6101 25.5379 69.4423C25.6074 69.2744 25.7092 69.1219 25.8376 68.9935L29.7513 65.0812L27.7951 63.125L23.8802 67.0373C23.6171 67.2889 23.2669 67.4294 22.9028 67.4294C22.5387 67.4294 22.1886 67.2889 21.9254 67.0373C21.6662 66.7778 21.5207 66.426 21.5207 66.0592C21.5207 65.6925 21.6662 65.3407 21.9254 65.0812L31.173 55.8295C32.5441 55.8498 33.89 55.4601 35.038 54.7102L40.0263 59.6985C41.669 61.2662 44.2533 61.2662 45.896 59.6985C47.5164 58.0781 47.5164 55.4512 45.896 53.8301L41.0408 48.9749L53.2361 61.169L52.8208 61.5836C52.2259 61.419 51.6017 61.3907 50.9944 61.5007C50.3871 61.6108 49.8124 61.8564 49.3132 62.2193C48.8138 62.5822 48.4029 63.0531 48.1108 63.5969C47.8188 64.1407 47.6532 64.7435 47.6265 65.3601C45.49 65.4508 43.7838 67.1723 43.7129 69.3103C41.59 69.363 39.8762 71.061 39.804 73.1832C39.1881 73.2095 38.5862 73.3742 38.0428 73.6651C37.4994 73.956 37.0286 74.3657 36.6653 74.8636C36.3021 75.3615 36.0557 75.9349 35.9446 76.5412C35.8335 77.1475 35.8604 77.771 36.0235 78.3654L35.6081 78.7802C35.4787 78.9057 35.3258 79.0044 35.1582 79.0707C34.9906 79.1369 34.8115 79.1695 34.6313 79.1665ZM42.9564 80.2412C42.6931 80.4932 42.3427 80.6339 41.9783 80.6339C41.6138 80.6339 41.2635 80.4932 41.0002 80.2412L39.0429 78.281C38.8097 78.0172 38.6859 77.6743 38.6967 77.3224C38.7074 76.9704 38.852 76.6358 39.1009 76.3867C39.3499 76.1377 39.6844 75.9929 40.0363 75.9819C40.3883 75.9709 40.7312 76.0945 40.9952 76.3276L42.9566 78.281C43.0856 78.4087 43.1879 78.5608 43.2575 78.7285C43.3271 78.8962 43.3626 79.0761 43.3619 79.2576C43.3626 79.4402 43.3271 79.6211 43.2575 79.7899C43.188 79.9587 43.0857 80.1121 42.9566 80.2412H42.9564ZM46.8686 76.3276C46.7402 76.4561 46.5877 76.558 46.4199 76.6275C46.2521 76.6971 46.0722 76.7329 45.8905 76.7329C45.7089 76.7329 45.529 76.6971 45.3612 76.6275C45.1933 76.558 45.0409 76.4561 44.9124 76.3276L42.9564 74.3714C42.6966 74.1119 42.5506 73.7598 42.5504 73.3926C42.5504 73.0261 42.697 72.6733 42.9564 72.4139C43.0841 72.2849 43.2363 72.1826 43.4039 72.113C43.5716 72.0434 43.7515 72.0079 43.933 72.0086C44.2998 72.0086 44.6518 72.1546 44.9112 72.4139L46.8673 74.3701C46.996 74.4985 47.0981 74.6511 47.1678 74.819C47.2375 74.987 47.2733 75.167 47.2733 75.3488C47.2735 75.5306 47.2379 75.7106 47.1684 75.8785C47.099 76.0465 46.9971 76.1991 46.8686 76.3276ZM50.7795 72.4139C50.5163 72.6656 50.1662 72.806 49.8021 72.806C49.438 72.806 49.0879 72.6656 48.8247 72.4139L46.8686 70.4579C46.6155 70.1972 46.475 69.8474 46.4777 69.484C46.4803 69.1207 46.6258 68.7729 46.8827 68.516C47.1397 68.259 47.4874 68.1135 47.8508 68.1108C48.2142 68.1081 48.564 68.2485 48.8247 68.5017L50.7809 70.4579C51.0403 70.7173 51.1861 71.0691 51.1862 71.4359C51.1869 71.6178 51.1512 71.798 51.0814 71.9659C51.0116 72.1338 50.9089 72.2862 50.7795 72.4139ZM54.6938 68.5017C54.5654 68.6304 54.4129 68.7326 54.2449 68.8022C54.077 68.8719 53.8969 68.9078 53.7151 68.9077C53.5333 68.9076 53.3533 68.8717 53.1854 68.8021C53.0174 68.7324 52.8649 68.6303 52.7364 68.5017L50.7807 66.5464C50.6519 66.4179 50.5496 66.2653 50.4799 66.0972C50.4101 65.9292 50.3741 65.7491 50.374 65.5671C50.3739 65.3852 50.4096 65.205 50.4792 65.0369C50.5488 64.8688 50.6508 64.716 50.7795 64.5874C50.908 64.4586 51.0606 64.3564 51.2286 64.2866C51.3966 64.2168 51.5767 64.1808 51.7586 64.1807C51.9406 64.1806 52.1207 64.2164 52.2888 64.2859C52.4569 64.3555 52.6097 64.4575 52.7383 64.5862L54.6897 66.5464C54.8181 66.6747 54.92 66.8271 54.9896 66.9949C55.0591 67.1626 55.0949 67.3424 55.0949 67.524C55.0949 67.7056 55.0591 67.8854 54.9896 68.0532C54.92 68.2209 54.8181 68.3734 54.6897 68.5017H54.6938ZM55.1835 59.2088L43.4459 47.4714L45.4009 45.5152L57.1395 57.254L55.1835 59.2088ZM61.0532 57.254L45.4008 41.6031L51.2706 35.7333L66.9216 51.385L61.0532 57.254ZM8.76351 79.526V57.3927H5.99684V79.526C5.99684 81.8178 7.85431 83.676 10.1468 83.676H28.1302V80.9093H10.1468C9.77996 80.9093 9.4281 80.7636 9.16868 80.5042C8.90925 80.2447 8.76351 79.8929 8.76351 79.526Z" fill="black"/>
<path d="M61.3306 79.5258C61.3306 79.8927 61.1848 80.2445 60.9254 80.5039C60.666 80.7634 60.3141 80.9091 59.9472 80.9091H48.8806V83.6758H59.9472C62.2391 83.6758 64.0972 81.8176 64.0972 79.5258V62.9258H61.3306V79.5258ZM8.76391 4.82578C8.76391 4.4589 8.90965 4.10704 9.16908 3.84762C9.4285 3.58819 9.78036 3.44245 10.1472 3.44245H48.8806V13.1258C48.8806 15.4176 50.738 17.2758 53.0306 17.2758H61.3306V39.4091H64.0972V15.9336C64.0972 15.5926 63.971 15.2635 63.7426 15.0097L51.2926 1.13505C51.163 0.990491 51.0044 0.874875 50.8271 0.795741C50.6498 0.716606 50.4579 0.675731 50.2637 0.675781H10.1471C7.85471 0.675781 5.99707 2.53394 5.99707 4.82578V33.8758H8.76374L8.76391 4.82578ZM51.6472 13.1258V5.67688L59.5763 14.5091H53.0306C52.6637 14.5091 52.3118 14.3634 52.0524 14.1039C51.793 13.8445 51.6472 13.4927 51.6472 13.1258Z" fill="black"/>
<path d="M14.2969 8.97559H17.0635V11.7423H14.2969V8.97559ZM19.8302 8.97559H30.8969V11.7423H19.8302V8.97559ZM14.2969 14.5089H30.8969V17.2756H14.2969V14.5089ZM14.2969 22.8089H19.8302V25.5756H14.2969V22.8089ZM22.5969 22.8089H55.7969V25.5756H22.5969V22.8089ZM25.3635 31.1089H46.1135V33.8756H25.3635V31.1089Z" fill="black"/>
</svg>
