<svg width="111" height="124" viewBox="0 0 111 124" fill="none" xmlns="http://www.w3.org/2000/svg">
<path d="M3.95161 12.4427H63.2257V26.2733C63.2257 27.3664 64.1084 28.2491 65.2015 28.2491H79.0321V44.0556H82.9837V26.2733C82.9839 26.0134 82.9326 25.756 82.8329 25.5159C82.7332 25.2758 82.5871 25.0579 82.4029 24.8745L66.6024 9.07372C66.4188 8.88901 66.2006 8.74244 65.9602 8.64245C65.7197 8.54245 65.4619 8.49102 65.2015 8.49111H11.8548V4.5395H86.9353V48.0072H90.887V2.5637C90.887 1.47058 90.0043 0.587892 88.9111 0.587892H9.87902C9.61946 0.587567 9.36239 0.638451 9.12253 0.737629C8.88267 0.836807 8.66472 0.982332 8.48119 1.16587C8.29766 1.3494 8.15213 1.56734 8.05295 1.8072C7.95377 2.04707 7.90289 2.30414 7.90322 2.5637V8.49111H1.97581C1.71625 8.49078 1.45918 8.54166 1.21931 8.64084C0.979451 8.74002 0.761511 8.88555 0.577976 9.06908C0.394441 9.25261 0.248917 9.47056 0.149739 9.71042C0.0505603 9.95028 -0.000323509 10.2074 1.54761e-06 10.4669V121.112C1.54761e-06 122.205 0.882692 123.088 1.97581 123.088H69.1531V119.136H3.95161V12.4427ZM67.1773 15.2367L76.2383 24.2975H67.1773V15.2367Z" fill="#23C7EF"/>
<path d="M108.669 59.8619H105.694C96.8714 59.8619 88.5737 55.976 82.9271 49.2005L82.5275 48.7201C81.7792 47.8169 80.2393 47.8169 79.4905 48.7201L79.0911 49.1985C73.4428 55.976 65.1449 59.8619 56.3222 59.8619H53.3469C53.0873 59.8616 52.8303 59.9125 52.5904 60.0117C52.3505 60.1108 52.1326 60.2564 51.9491 60.4399C51.7655 60.6234 51.62 60.8414 51.5208 61.0812C51.4217 61.3211 51.3708 61.5782 51.3711 61.8377V93.8373C51.3711 101.618 55.5677 108.85 62.323 112.709L80.0279 122.827C80.3263 122.998 80.6643 123.088 81.0081 123.088C81.352 123.088 81.69 122.998 81.9884 122.827L99.6933 112.709C106.449 108.85 110.645 101.618 110.645 93.8376V61.8377C110.645 60.7446 109.763 59.8619 108.669 59.8619ZM106.694 93.8373C106.694 100.204 103.262 106.119 97.7331 109.276L81.0081 118.838L64.2832 109.279C58.7544 106.12 55.3227 100.204 55.3227 93.8373V63.8135H56.3222C65.7507 63.8135 74.6542 59.8958 81.0081 53.0034C87.3601 59.8958 96.2655 63.8135 105.694 63.8135H106.694V93.8373Z" fill="#23C7EF"/>
<path d="M81.0083 65.7893C69.025 65.7893 59.2744 75.5399 59.2744 87.5231C59.2744 99.5064 69.025 109.257 81.0083 109.257C92.9915 109.257 102.742 99.5064 102.742 87.5231C102.742 75.5399 92.9915 65.7893 81.0083 65.7893ZM81.0083 105.305C71.2026 105.305 63.226 97.3288 63.226 87.5231C63.226 77.7175 71.2026 69.7409 81.0083 69.7409C90.8139 69.7409 98.7905 77.7175 98.7905 87.5231C98.7905 97.3288 90.8139 105.305 81.0083 105.305Z" fill="#23C7EF"/>
<path d="M80.0656 93.6657L76.4775 90.0779L73.6837 92.8717L79.6112 98.7991C79.7944 98.9828 80.0122 99.1285 80.2519 99.2279C80.4916 99.3272 80.7486 99.3782 81.008 99.378C81.1681 99.378 81.3303 99.3588 81.4904 99.3192C81.822 99.2351 82.1261 99.0665 82.3733 98.83C82.6204 98.5935 82.8022 98.2971 82.9009 97.9695L88.8283 78.2115L85.0426 77.0769L80.0656 93.6657ZM7.90332 32.2007H59.2742V36.1523H7.90332V32.2007ZM7.90332 40.1039H59.2742V44.0555H7.90332V40.1039ZM7.90332 48.0071H59.2742V51.9587H7.90332V48.0071ZM7.90332 55.9104H47.4194V59.862H7.90332V55.9104ZM7.90332 63.8136H47.4194V67.7652H7.90332V63.8136ZM7.90332 71.7168H47.4194V75.6684H7.90332V71.7168ZM7.90332 95.4264H47.4194V99.378H7.90332V95.4264ZM7.90332 103.33H47.4194V107.281H7.90332V103.33ZM7.90332 111.233H47.4194V115.184H7.90332V111.233ZM9.87912 16.3943H13.8307V20.3459H9.87912V16.3943ZM17.7823 16.3943H21.7339V20.3459H17.7823V16.3943ZM25.6856 16.3943H29.6372V20.3459H25.6856V16.3943ZM33.5888 16.3943H59.2742V20.3459H33.5888V16.3943Z" fill="#23C7EF"/>
</svg>
