<svg width="67" height="67" viewBox="0 0 67 67" fill="none" xmlns="http://www.w3.org/2000/svg">
<path d="M63.7 40.2731C62.49 40.2775 61.379 40.9463 60.8092 42.0144C58.9827 41.5754 57.3453 40.5622 56.1375 39.1236C55.2328 37.8274 54.1865 36.6361 53.0179 35.5717C52.1904 34.7987 51.3513 34.0381 50.5011 33.2903C52.0341 28.2182 51.9356 22.7928 50.2194 17.7798C48.5032 12.7668 45.2561 8.4193 40.9362 5.351C36.6163 2.2827 31.4419 0.648525 26.1434 0.679133C20.8448 0.709741 15.6897 2.40358 11.4055 5.52159C7.12141 8.63959 3.92466 13.0243 2.2665 18.0568C0.608347 23.0893 0.572516 28.5155 2.16407 33.5695C3.75562 38.6235 6.89418 43.05 11.1368 46.2243C15.3793 49.3986 20.5117 51.1604 25.8094 51.261C26.1851 51.9115 26.7209 52.4553 27.3659 52.8406C26.8989 53.38 26.5718 54.026 26.4132 54.7217C26.2547 55.4173 26.2697 56.1413 26.4568 56.8298C26.6439 57.5183 26.9975 58.1503 27.4863 58.67C27.9752 59.1897 28.5843 59.5813 29.2601 59.8102C28.8133 60.4715 28.5549 61.242 28.5124 62.039C28.47 62.836 28.6451 63.6296 29.0191 64.3347C29.393 65.0398 29.9518 65.6299 30.6354 66.0418C31.319 66.4537 32.1018 66.6719 32.9 66.6731H49.4C53.8704 66.6731 56.33 66.6731 59.9105 64.2883C60.3967 63.9583 60.8521 63.6822 61.2965 63.4193C61.7466 63.9051 62.3328 64.2437 62.9785 64.3909C63.6242 64.5381 64.2993 64.4871 64.9155 64.2444C65.5317 64.0017 66.0603 63.5787 66.4322 63.0308C66.8041 62.4828 67.002 61.8353 67 61.1731V43.5731C67 42.6978 66.6523 41.8585 66.0334 41.2396C65.4146 40.6207 64.5752 40.2731 63.7 40.2731ZM3.19998 25.9731C3.19768 22.6886 3.8958 19.4415 5.24777 16.4482C6.59973 13.455 8.57446 10.7844 11.0402 8.61477C13.506 6.4451 16.406 4.82618 19.547 3.86602C22.6879 2.90586 25.9975 2.62653 29.2549 3.04667C32.5123 3.46682 35.6427 4.57676 38.4373 6.30247C41.2318 8.02818 43.6262 10.33 45.4607 13.0543C47.2952 15.7786 48.5277 18.8628 49.0759 22.1012C49.6241 25.3395 49.4755 28.6575 48.6399 31.8339C48.5651 31.7734 48.4969 31.7239 48.4078 31.6447C47.7404 31.0758 47.2133 30.3606 46.8678 29.5547C47.0845 28.3733 47.1956 27.1743 47.2 25.9731C47.211 14.4891 37.9534 5.14785 26.4694 5.05435C14.9854 4.96195 5.57818 14.1514 5.40218 25.6343C5.22618 37.1161 14.3485 46.5893 25.8292 46.8489C25.4358 47.505 25.2221 48.2531 25.2099 49.0181C12.9031 48.4318 3.22088 38.2931 3.19998 25.9731ZM40.6 38.0621L31.8 38.0731C31.2032 38.075 30.6129 38.1976 30.0647 38.4335C29.5165 38.6695 29.0217 39.0138 28.61 39.4459C28.1962 39.8781 27.8759 40.391 27.669 40.9525C27.4622 41.514 27.3732 42.1121 27.4077 42.7096C27.4495 43.3718 27.6464 44.0153 27.9841 44.5873C27.4231 44.6379 26.8599 44.6731 26.3011 44.6731C16.2185 44.6731 7.95198 36.6816 7.61098 26.6045C7.26998 16.5274 14.9788 7.99575 25.0383 7.31705C35.0967 6.63615 43.8846 14.0524 44.9043 24.0833C44.3207 23.4515 43.5641 23.0054 42.7289 22.8003C41.8936 22.5953 41.0165 22.6404 40.2067 22.9301C39.3969 23.2199 38.6902 23.7413 38.1745 24.4297C37.6589 25.118 37.357 25.9428 37.3066 26.8014C36.9942 31.4049 38.2779 34.4145 40.6 38.0621ZM58.6939 62.4579C55.67 64.4731 53.7076 64.4731 49.4 64.4731H32.9C32.3165 64.4731 31.7569 64.2413 31.3443 63.8287C30.9318 63.4161 30.7 62.8565 30.7 62.2731C30.7 61.6896 30.9318 61.13 31.3443 60.7174C31.7569 60.3048 32.3165 60.0731 32.9 60.0731H34C34.2917 60.0731 34.5715 59.9572 34.7778 59.7509C34.9841 59.5446 35.1 59.2648 35.1 58.9731C35.1 58.6813 34.9841 58.4015 34.7778 58.1952C34.5715 57.9889 34.2917 57.8731 34 57.8731H30.7C30.1165 57.8731 29.5569 57.6413 29.1443 57.2287C28.7318 56.8161 28.5 56.2565 28.5 55.6731C28.5 55.0896 28.7318 54.53 29.1443 54.1174C29.5569 53.7048 30.1165 53.4731 30.7 53.4731H34C34.2917 53.4731 34.5715 53.3572 34.7778 53.1509C34.9841 52.9446 35.1 52.6648 35.1 52.3731C35.1 52.0813 34.9841 51.8015 34.7778 51.5952C34.5715 51.3889 34.2917 51.2731 34 51.2731H29.6C29.0165 51.2731 28.4569 51.0413 28.0443 50.6287C27.6318 50.2161 27.4 49.6565 27.4 49.0731C27.4 48.4896 27.6318 47.93 28.0443 47.5174C28.4569 47.1048 29.0165 46.8731 29.6 46.8731H34C34.2917 46.8731 34.5715 46.7572 34.7778 46.5509C34.9841 46.3446 35.1 46.0648 35.1 45.7731C35.1 45.4813 34.9841 45.2015 34.7778 44.9952C34.5715 44.7889 34.2917 44.6731 34 44.6731H31.987C31.4006 44.6887 30.8297 44.4835 30.3876 44.098C29.9455 43.7125 29.6643 43.1749 29.6 42.5919C29.5838 42.2931 29.6288 41.9942 29.7321 41.7134C29.8354 41.4326 29.9949 41.1759 30.2008 40.9588C30.4067 40.7418 30.6547 40.569 30.9297 40.4511C31.2047 40.3332 31.5008 40.2726 31.8 40.2731L40.6 40.2621C40.9944 40.2618 41.3816 40.1555 41.7209 39.9543C42.0602 39.753 42.3391 39.4643 42.5285 39.1183C42.7179 38.7722 42.8107 38.3816 42.7973 37.9874C42.7839 37.5931 42.6648 37.2097 42.4524 36.8774C40.325 33.54 39.2239 30.9693 39.4978 26.9444C39.521 26.3876 39.7546 25.8604 40.1514 25.4692C40.5483 25.078 41.0788 24.852 41.6358 24.8368C42.1928 24.8216 42.7348 25.0183 43.1524 25.3872C43.57 25.7562 43.8321 26.2698 43.8857 26.8245C44.0747 29.3114 45.1889 31.6373 47.0086 33.3431C47.6686 33.8931 47.9458 34.0823 48.1856 34.2506C49.3612 35.151 50.4754 36.1288 51.5208 37.1777C52.5856 38.1489 53.5393 39.2354 54.3643 40.4172C55.9076 42.3023 58.0287 43.6267 60.4 44.1858V61.1731C60.4 61.2457 60.4165 61.3139 60.4209 61.3854C59.8709 61.7066 59.3 62.0531 58.6939 62.4579ZM64.8 61.1731C64.8 61.4648 64.6841 61.7446 64.4778 61.9509C64.2715 62.1572 63.9917 62.2731 63.7 62.2731C63.4082 62.2731 63.1284 62.1572 62.9222 61.9509C62.7159 61.7446 62.6 61.4648 62.6 61.1731V43.5731C62.6 43.2813 62.7159 43.0015 62.9222 42.7952C63.1284 42.5889 63.4082 42.4731 63.7 42.4731C63.9917 42.4731 64.2715 42.5889 64.4778 42.7952C64.6841 43.0015 64.8 43.2813 64.8 43.5731V61.1731Z" fill="black"/>
<path d="M38.0781 17.4954C37.8718 17.2892 37.592 17.1733 37.3004 17.1733C37.0087 17.1733 36.7289 17.2892 36.5226 17.4954L20.8003 33.2177L16.078 28.4954C15.8706 28.295 15.5927 28.1842 15.3043 28.1867C15.0159 28.1892 14.74 28.3049 14.536 28.5088C14.3321 28.7128 14.2164 28.9886 14.2139 29.2771C14.2114 29.5655 14.3223 29.8433 14.5227 30.0508L20.0226 35.5508C20.2289 35.757 20.5087 35.8729 20.8003 35.8729C21.092 35.8729 21.3718 35.757 21.5781 35.5508L38.0781 19.0508C38.2843 18.8445 38.4001 18.5648 38.4001 18.2731C38.4001 17.9814 38.2843 17.7017 38.0781 17.4954Z" fill="black"/>
</svg>
