<svg width="26" height="33" viewBox="0 0 26 33" fill="none" xmlns="http://www.w3.org/2000/svg">
<path fill-rule="evenodd" clip-rule="evenodd" d="M13.0046 18.6841C16.3183 18.6841 19.0046 15.9979 19.0046 12.6841C19.0046 9.37044 16.3183 6.68415 13.0046 6.68415C9.69088 6.68415 7.00458 9.37044 7.00458 12.6841C7.00458 15.9979 9.69088 18.6841 13.0046 18.6841ZM13.0046 16.0223C11.161 16.0223 9.66646 14.5277 9.66646 12.6841C9.66646 10.8406 11.161 9.34603 13.0046 9.34603C14.8482 9.34603 16.3427 10.8406 16.3427 12.6841C16.3427 14.5277 14.8482 16.0223 13.0046 16.0223Z" fill="#23C7EF"/>
<path fill-rule="evenodd" clip-rule="evenodd" d="M25.3625 15.4552C27.0863 7.7304 21.0067 0.0175781 12.9998 0.0175781C4.99511 0.0175781 -1.08501 7.74098 0.637342 15.4562C1.96677 21.7223 7.34273 27.8082 10.5513 30.982C11.9254 32.3413 14.0742 32.3413 15.4483 30.982C18.657 27.8081 24.0334 21.7216 25.3625 15.4552ZM12.9998 2.68424C19.2831 2.68424 24.1155 8.79927 22.7598 14.8744C22.1087 17.7935 20.6476 20.4149 18.9333 22.8382C17.1416 25.3707 15.1104 27.5654 13.573 29.0862C13.2379 29.4177 12.7617 29.4177 12.4266 29.0862C10.8893 27.5655 8.85819 25.371 7.06658 22.8386C5.35205 20.4151 3.89161 17.7943 3.23994 14.8752C1.88564 8.80862 6.71995 2.68424 12.9998 2.68424Z" fill="#23C7EF"/>
</svg>
