<svg width="29" height="30" viewBox="0 0 29 30" fill="none" xmlns="http://www.w3.org/2000/svg">
<path d="M14.4996 29.0024C12.2112 29.0022 9.9554 28.4604 7.91653 27.4213C5.87766 26.3822 4.11365 24.8753 2.76873 23.0238C1.42381 21.1723 0.536164 19.0288 0.178358 16.7686C-0.179448 14.5084 0.00274664 12.1955 0.710048 10.0192C1.41735 7.8428 2.62967 5.86475 4.24791 4.24671C5.86614 2.62867 7.84433 1.41657 10.0208 0.709525C12.1972 0.00247729 14.51 -0.179448 16.7702 0.178623C19.0304 0.536694 21.1738 1.4246 23.0251 2.76974C23.1214 2.83976 23.2029 2.92806 23.265 3.02958C23.3271 3.13111 23.3687 3.24387 23.3872 3.36145C23.4057 3.47902 23.401 3.59909 23.3731 3.71481C23.3452 3.83053 23.2948 3.93962 23.2248 4.03587C23.1548 4.13212 23.0665 4.21363 22.965 4.27576C22.8635 4.33788 22.7507 4.3794 22.6331 4.39794C22.3957 4.43539 22.1531 4.37699 21.9587 4.23557C19.4372 2.40588 16.3301 1.56919 13.2307 1.88532C10.1314 2.20144 7.2572 3.64823 5.15705 5.94932C3.0569 8.2504 1.87803 11.2445 1.84562 14.3598C1.81322 17.475 2.92954 20.493 4.98137 22.8373C7.0332 25.1815 9.87672 26.6878 12.9688 27.0683C16.0608 27.4489 19.1847 26.677 21.7437 24.9002C24.3027 23.1233 26.1175 20.466 26.8414 17.4359C27.5653 14.4058 27.1475 11.2152 25.668 8.47354C25.5622 8.26287 25.5427 8.01929 25.6136 7.79447C25.6845 7.56966 25.8402 7.3813 26.0476 7.26936C26.255 7.15742 26.4979 7.13071 26.7248 7.19489C26.9516 7.25907 27.1445 7.4091 27.2625 7.61314C28.4537 9.82247 29.0512 12.3031 28.9966 14.8126C28.942 17.322 28.2371 19.7743 26.951 21.9297C25.6649 24.0851 23.8414 25.87 21.6589 27.1097C19.4765 28.3494 17.0096 29.0016 14.4996 29.0024Z" fill="white"/>
<path d="M20.6816 10.5156H18.8933C19.1698 10.1481 19.334 9.69153 19.334 9.19727C19.334 7.98569 18.3483 7 17.1367 7C16.4069 7 15.8688 7.26147 15.4431 7.82286C15.087 8.29255 14.8266 8.94833 14.5 9.7769C14.1734 8.9483 13.913 8.29255 13.5569 7.82286C13.1313 7.26147 12.5931 7 11.8633 7C10.6517 7 9.66602 7.98569 9.66602 9.19727C9.66602 9.69153 9.83017 10.1481 10.1067 10.5156H8.31836C7.59142 10.5156 7 11.107 7 11.834V12.7129C7 13.2858 7.36741 13.7743 7.87891 13.9557V20.6816C7.87891 21.4086 8.47032 22 9.19727 22H19.8027C20.5297 22 21.1211 21.4086 21.1211 20.6816V13.9557C21.6326 13.7743 22 13.2858 22 12.7129V11.834C22 11.107 21.4086 10.5156 20.6816 10.5156ZM15.3067 10.1271C15.9799 8.4192 16.2358 7.87891 17.1367 7.87891C17.8637 7.87891 18.4551 8.47032 18.4551 9.19727C18.4551 9.92421 17.8637 10.5156 17.1367 10.5156H15.1529C15.2068 10.3804 15.2581 10.2503 15.3067 10.1271ZM11.8633 7.87891C12.7642 7.87891 13.0201 8.4192 13.6933 10.1271C13.7419 10.2503 13.7932 10.3804 13.8471 10.5156H11.8633C11.1363 10.5156 10.5449 9.92421 10.5449 9.19727C10.5449 8.47032 11.1363 7.87891 11.8633 7.87891ZM12.7422 21.1211H9.19727C8.95495 21.1211 8.75781 20.924 8.75781 20.6816V14.0312H12.7422V21.1211ZM12.7422 13.1523H8.31836C8.07604 13.1523 7.87891 12.9552 7.87891 12.7129V11.834C7.87891 11.5917 8.07604 11.3945 8.31836 11.3945H12.7422V13.1523ZM15.3789 21.1211H13.6211V11.3945H15.3789V21.1211ZM20.2422 20.6816C20.2422 20.924 20.045 21.1211 19.8027 21.1211H16.2578V14.0312H20.2422V20.6816ZM21.1211 12.7129C21.1211 12.9552 20.924 13.1523 20.6816 13.1523H16.2578V11.3945H20.6816C20.924 11.3945 21.1211 11.5917 21.1211 11.834V12.7129Z" fill="white"/>
</svg>
