<svg width="114" height="120" viewBox="0 0 114 120" fill="none" xmlns="http://www.w3.org/2000/svg">
<path fill-rule="evenodd" clip-rule="evenodd" d="M56.744 36.9484C68.1065 36.9484 78.3947 41.5543 85.8406 49.0025C93.2864 56.4483 97.8946 66.7366 97.8946 78.1014C97.8946 89.4663 93.2888 99.7522 85.8406 107.198C78.3923 114.644 68.1065 119.25 56.744 119.25C45.3815 119.25 35.0933 114.644 27.6451 107.198C20.1992 99.7522 15.5934 89.4639 15.5934 78.1014C15.5934 66.739 20.1992 56.4507 27.6451 49.0025C35.0933 41.5543 45.3815 36.9484 56.744 36.9484ZM17.5446 14.4208C17.4653 14.167 17.3261 13.936 17.1387 13.7474C16.9513 13.5587 16.7212 13.418 16.468 13.337C16.0491 13.2025 15.594 13.2398 15.2027 13.4408C14.8114 13.6418 14.5159 13.9901 14.3813 14.4089L11.394 23.6681L1.78304 23.6491C1.2293 23.6087 0.666045 23.8487 0.316686 24.3311C0.188453 24.5077 0.0963098 24.7078 0.0455354 24.92C-0.00523898 25.1322 -0.0136472 25.3524 0.0207924 25.5678C0.0552319 25.7833 0.131843 25.9899 0.246236 26.1757C0.36063 26.3615 0.510558 26.5229 0.687434 26.6507L8.57058 32.3545L5.54518 41.6042L5.54993 41.6066C5.46936 41.8556 5.44867 42.1201 5.48956 42.3786C5.53044 42.6371 5.63173 42.8823 5.78521 43.0943C6.3247 43.8334 7.35852 43.9974 8.09763 43.4579L15.9618 37.7208L23.7237 43.3819C24.1491 43.7431 24.7456 43.881 25.3136 43.6956C26.1858 43.4128 26.6635 42.474 26.3783 41.6042L23.353 32.3545L31.2361 26.6507L31.2337 26.6483C31.4461 26.4948 31.619 26.293 31.738 26.0595C31.857 25.8261 31.9188 25.5676 31.9182 25.3055C31.9182 24.8662 31.7436 24.4449 31.433 24.1342C31.1223 23.8236 30.701 23.6491 30.2617 23.6491L20.5296 23.6681L17.5446 14.4208ZM17.7418 25.8331L15.9594 20.3147L14.1769 25.8331C14.0697 26.1673 13.8591 26.4588 13.5755 26.6656C13.2918 26.8723 12.9499 26.9836 12.5989 26.9834L6.79526 26.9715L11.4962 30.3724C11.7803 30.5786 11.9918 30.8696 12.1003 31.2035C12.2088 31.5374 12.2086 31.8971 12.0998 32.2309L10.296 37.7494L14.9588 34.3485C15.5268 33.9183 16.3301 33.8874 16.9362 34.3294L21.6252 37.7494L19.8404 32.2927C19.7148 31.9527 19.704 31.5809 19.8096 31.2342C19.9151 30.8874 20.1313 30.5848 20.425 30.3724L25.1259 26.9715L19.4007 26.9834C19.0362 27.0006 18.6762 26.8973 18.3764 26.6893C18.0765 26.4814 17.8535 26.1805 17.7418 25.8331ZM99.1091 14.4208C99.0298 14.167 98.8906 13.936 98.7032 13.7474C98.5158 13.5587 98.2857 13.418 98.0325 13.337C97.6136 13.2025 97.1585 13.2398 96.7672 13.4408C96.3759 13.6418 96.0804 13.9901 95.9458 14.4089L92.9585 23.6681L83.3475 23.6491C82.7938 23.6087 82.2305 23.8487 81.8812 24.3311C81.7529 24.5077 81.6608 24.7078 81.61 24.92C81.5592 25.1322 81.5508 25.3524 81.5853 25.5678C81.6197 25.7833 81.6963 25.9899 81.8107 26.1757C81.9251 26.3615 82.0751 26.5229 82.2519 26.6507L90.1351 32.3545L87.1097 41.6042L87.1144 41.6066C87.0338 41.8556 87.0132 42.1201 87.054 42.3786C87.0949 42.6371 87.1962 42.8823 87.3497 43.0943C87.8892 43.8334 88.923 43.9974 89.6621 43.4579L97.5263 37.7208L105.288 43.3819C105.714 43.7431 106.31 43.881 106.878 43.6956C107.75 43.4128 108.228 42.474 107.943 41.6042L104.917 32.3545L112.801 26.6507L112.798 26.6483C113.011 26.4948 113.184 26.293 113.303 26.0595C113.422 25.8261 113.483 25.5676 113.483 25.3055C113.483 25.088 113.44 24.8726 113.357 24.6716C113.273 24.4707 113.151 24.288 112.997 24.1342C112.844 23.9804 112.661 23.8584 112.46 23.7751C112.259 23.6919 112.044 23.6491 111.826 23.6491L102.094 23.6681L99.1091 14.4208ZM99.3087 25.8331L97.5263 20.3147L95.7438 25.8331C95.6366 26.1673 95.426 26.4588 95.1423 26.6656C94.8587 26.8723 94.5167 26.9836 94.1658 26.9834L88.3621 26.9715L93.063 30.3724C93.3472 30.5786 93.5587 30.8696 93.6672 31.2035C93.7756 31.5374 93.7755 31.8971 93.6667 32.2309L91.8628 37.7494L96.5257 34.3485C97.0937 33.9183 97.897 33.8874 98.503 34.3294L103.192 37.7494L101.407 32.2927C101.282 31.9527 101.271 31.5809 101.376 31.2342C101.482 30.8874 101.698 30.5848 101.992 30.3724L106.693 26.9715L100.968 26.9834C100.233 27.0191 99.5416 26.5628 99.3087 25.8331ZM58.3268 1.58957L61.3118 10.8369L71.0439 10.8179C71.4833 10.8179 71.9046 10.9924 72.2152 11.303C72.5259 11.6137 72.7004 12.035 72.7004 12.4743C72.7004 13.0257 72.4295 13.5153 72.016 13.8171L72.0183 13.8195L64.1352 19.5233L67.1606 28.773C67.4434 29.6452 66.9681 30.5816 66.0959 30.8644C65.5279 31.0497 64.9314 30.9095 64.506 30.5507L56.744 24.8896L48.8799 30.6267C48.7042 30.7549 48.5051 30.8471 48.2937 30.8982C48.0824 30.9493 47.863 30.9583 47.6483 30.9245C47.4335 30.8907 47.2275 30.8149 47.042 30.7014C46.8565 30.5879 46.6953 30.439 46.5675 30.2631C46.4129 30.0516 46.311 29.8064 46.2701 29.5477C46.2292 29.2889 46.2504 29.0242 46.3322 28.7754L46.3274 28.773L49.3528 19.5233L41.4697 13.8195C41.1769 13.6076 40.9613 13.306 40.8554 12.9604C40.7496 12.6148 40.7594 12.2442 40.8833 11.9047C41.0072 11.5652 41.2385 11.2754 41.5421 11.0793C41.8456 10.8831 42.2049 10.7913 42.5653 10.8179L52.1762 10.8369L55.166 1.57768C55.2735 1.24225 55.4851 0.949782 55.77 0.742707C56.055 0.535632 56.3985 0.424713 56.7507 0.426037C57.103 0.427361 57.4457 0.54086 57.729 0.750072C58.0124 0.959284 58.2218 1.25333 58.3268 1.58957ZM58.5264 13.0019L56.744 7.48351L54.9616 13.0019C54.8543 13.3361 54.6437 13.6276 54.3601 13.8344C54.0765 14.0411 53.7345 14.1524 53.3835 14.1522L47.5823 14.1403L52.2832 17.5412C52.5673 17.7474 52.7788 18.0384 52.8873 18.3723C52.9958 18.7062 52.9956 19.0659 52.8868 19.3997L51.083 24.9182L55.7458 21.5173C56.3138 21.0871 57.1171 21.0562 57.7232 21.4982L62.4122 24.9182L60.6273 19.4615C60.5018 19.1215 60.491 18.7497 60.5965 18.403C60.7021 18.0563 60.9183 17.7536 61.212 17.5412L65.9129 14.1403L60.1877 14.1522C59.4509 14.1855 58.7594 13.7316 58.5264 13.0019ZM47.6369 71.3115L47.6702 92.8553H69.309C70.0315 92.8553 70.6922 92.6129 71.2008 92.197C71.7118 91.7787 72.0825 91.1845 72.2275 90.4811L75.443 74.8217C75.5381 74.3607 75.5333 73.9186 75.4311 73.5075C75.3289 73.0963 75.1293 72.7018 74.8298 72.3358C74.5351 71.9722 74.1905 71.6989 73.8103 71.5183C73.4324 71.3377 72.9999 71.2474 72.5222 71.2474H61.1573C60.2376 71.2474 59.4937 70.5035 59.4937 69.5837C59.4937 69.3437 59.5436 69.1179 59.6363 68.9112L59.9976 67.8845C61.799 62.7558 62.7544 60.0346 60.2495 57.7079C59.9976 57.4727 59.7219 57.3158 59.4367 57.2374C59.1515 57.1589 58.8306 57.1542 58.4908 57.2279C58.1509 57.3015 57.861 57.437 57.6352 57.6248C57.4071 57.8149 57.2217 58.0716 57.091 58.39L52.6254 69.0799C51.727 71.2283 49.5667 71.3804 47.6369 71.3115ZM44.3572 94.2907L44.3192 69.7382C43.9936 67.9891 41.0466 67.585 41.0466 70.6675V93.5992C41.0466 96.3821 43.6134 96.8266 44.3572 94.2907ZM69.309 96.1825C70.811 96.1825 72.199 95.662 73.2946 94.7708C74.3854 93.8796 75.1744 92.6224 75.4787 91.1465L78.6942 75.4872C78.8891 74.5366 78.8748 73.6049 78.6561 72.7161C78.4375 71.8296 78.0192 70.9978 77.4061 70.2444C76.7905 69.4887 76.0585 68.9112 75.2291 68.5167C74.3997 68.1221 73.4894 67.9201 72.5246 67.9201H63.5006C65.5184 62.126 66.3787 58.8677 62.512 55.2767C61.8679 54.6778 61.1193 54.2619 60.3089 54.0385C59.4985 53.8151 58.6453 53.7913 57.7897 53.9767C56.9318 54.1621 56.1665 54.5376 55.5177 55.0771C54.8713 55.6142 54.3627 56.3034 54.0228 57.1162L49.5572 67.8061C49.4479 68.0699 48.2525 68.0247 47.2258 67.9724C45.1439 63.3048 37.717 64.3053 37.717 70.6698V93.6015C37.717 99.7545 44.7826 101.363 47.1806 96.1825H69.309ZM56.744 43.8928C47.2994 43.8928 38.7461 47.7215 32.5575 53.9125C26.3665 60.1035 22.5378 68.6545 22.5378 78.0991C22.5378 87.5436 26.3665 96.097 32.5575 102.286C38.7485 108.477 47.2994 112.305 56.744 112.305C66.1886 112.305 74.7419 108.477 80.9305 102.286C87.1216 96.0946 90.9502 87.5436 90.9502 78.0991C90.9502 68.6545 87.1216 60.1012 80.9305 53.9125C74.7419 47.7215 66.1886 43.8928 56.744 43.8928ZM78.5777 56.2654C72.9904 50.678 65.2712 47.2201 56.744 47.2201C48.2168 47.2201 40.4977 50.6756 34.9079 56.2654C29.3206 61.8527 25.8626 69.5719 25.8626 78.0991C25.8626 86.6263 29.3182 94.3454 34.9079 99.9352C40.4953 105.523 48.2168 108.98 56.744 108.98C65.2712 108.98 72.9904 105.525 78.5777 99.9352C84.1651 94.3478 87.623 86.6263 87.623 78.0991C87.623 69.5719 84.1675 61.8527 78.5777 56.2654ZM83.4901 51.3529C76.6456 44.5084 67.1891 40.2757 56.744 40.2757C46.2989 40.2757 36.8425 44.5084 29.9979 51.3529C23.1533 58.1975 18.9206 67.654 18.9206 78.0991C18.9206 88.5442 23.1533 98.0006 29.9979 104.845C36.8425 111.69 46.2989 115.922 56.744 115.922C67.1891 115.922 76.6456 111.69 83.4901 104.845C90.3347 98.0006 94.5674 88.5442 94.5674 78.0991C94.5674 67.654 90.3347 58.1975 83.4901 51.3529Z" fill="#23C7EF"/>
</svg>
