<svg width="93" height="93" viewBox="0 0 93 93" fill="none" xmlns="http://www.w3.org/2000/svg">
<path d="M49.2709 7.67969H50.9967C51.3593 7.67969 51.707 7.53564 51.9634 7.27925C52.2198 7.02285 52.3639 6.6751 52.3639 6.3125C52.3639 5.9499 52.2198 5.60215 51.9634 5.34575C51.707 5.08935 51.3593 4.94531 50.9967 4.94531H49.2709C48.9083 4.94531 48.5606 5.08935 48.3042 5.34575C48.0478 5.60215 47.9037 5.9499 47.9037 6.3125C47.9037 6.6751 48.0478 7.02285 48.3042 7.27925C48.5606 7.53564 48.9083 7.67969 49.2709 7.67969ZM42.0076 7.67969H43.7334C44.096 7.67969 44.4437 7.53564 44.7001 7.27925C44.9565 7.02285 45.1006 6.6751 45.1006 6.3125C45.1006 5.9499 44.9565 5.60215 44.7001 5.34575C44.4437 5.08935 44.096 4.94531 43.7334 4.94531H42.0076C41.645 4.94531 41.2973 5.08935 41.0409 5.34575C40.7845 5.60215 40.6404 5.9499 40.6404 6.3125C40.6404 6.6751 40.7845 7.02285 41.0409 7.27925C41.2973 7.53564 41.645 7.67969 42.0076 7.67969ZM46.5021 12.1766C46.6817 12.1767 46.8596 12.1414 47.0255 12.0727C47.1914 12.004 47.3422 11.9033 47.4691 11.7764C47.5961 11.6494 47.6968 11.4986 47.7655 11.3327C47.8341 11.1668 47.8694 10.9889 47.8693 10.8094V9.08594C47.8693 8.72334 47.7253 8.37559 47.4689 8.11919C47.2125 7.86279 46.8647 7.71875 46.5021 7.71875C46.1395 7.71875 45.7918 7.86279 45.5354 8.11919C45.279 8.37559 45.135 8.72334 45.135 9.08594V10.8117C45.1354 11.174 45.2796 11.5212 45.536 11.7772C45.7924 12.0331 46.1399 12.1768 46.5021 12.1766ZM46.5021 4.91328C46.6817 4.91338 46.8596 4.87809 47.0255 4.80942C47.1914 4.74075 47.3422 4.64005 47.4691 4.51307C47.5961 4.38609 47.6968 4.23534 47.7655 4.06942C47.8341 3.90349 47.8694 3.72566 47.8693 3.54609V1.82031C47.8693 1.45771 47.7253 1.10996 47.4689 0.853565C47.2125 0.597168 46.8647 0.453125 46.5021 0.453125C46.1395 0.453125 45.7918 0.597168 45.5354 0.853565C45.279 1.10996 45.135 1.45771 45.135 1.82031V3.54609C45.1349 3.72566 45.1702 3.90349 45.2388 4.06942C45.3075 4.23534 45.4082 4.38609 45.5352 4.51307C45.6621 4.64005 45.8129 4.74075 45.9788 4.80942C46.1447 4.87809 46.3226 4.91338 46.5021 4.91328ZM15.0771 69.0508H13.3514C12.9888 69.0508 12.641 69.1948 12.3846 69.4512C12.1282 69.7076 11.9842 70.0554 11.9842 70.418C11.9842 70.7806 12.1282 71.1283 12.3846 71.3847C12.641 71.6411 12.9888 71.7851 13.3514 71.7851H15.0771C15.4397 71.7851 15.7875 71.6411 16.0439 71.3847C16.3003 71.1283 16.4443 70.7806 16.4443 70.418C16.4443 70.0554 16.3003 69.7076 16.0439 69.4512C15.7875 69.1948 15.4397 69.0508 15.0771 69.0508ZM7.81465 69.0508H6.08887C5.72627 69.0508 5.37852 69.1948 5.12212 69.4512C4.86572 69.7076 4.72168 70.0554 4.72168 70.418C4.72168 70.7806 4.86572 71.1283 5.12212 71.3847C5.37852 71.6411 5.72627 71.7851 6.08887 71.7851H7.81465C8.17725 71.7851 8.525 71.6411 8.7814 71.3847C9.03779 71.1283 9.18184 70.7806 9.18184 70.418C9.18184 70.0554 9.03779 69.7076 8.7814 69.4512C8.525 69.1948 8.17725 69.0508 7.81465 69.0508ZM10.5826 71.8203C10.22 71.8203 9.87227 71.9643 9.61587 72.2207C9.35947 72.4771 9.21543 72.8249 9.21543 73.1875V74.9133C9.21543 75.2759 9.35947 75.6236 9.61587 75.88C9.87227 76.1364 10.22 76.2805 10.5826 76.2805C10.9452 76.2805 11.293 76.1364 11.5494 75.88C11.8058 75.6236 11.9498 75.2759 11.9498 74.9133V73.1867C11.9498 73.0072 11.9144 72.8295 11.8457 72.6636C11.777 72.4978 11.6763 72.3471 11.5493 72.2202C11.4224 72.0933 11.2716 71.9927 11.1058 71.9241C10.9399 71.8555 10.7621 71.8202 10.5826 71.8203ZM10.5826 64.5547C10.22 64.5547 9.87227 64.6987 9.61587 64.9551C9.35947 65.2115 9.21543 65.5593 9.21543 65.9219V67.6477C9.21543 68.0103 9.35947 68.358 9.61587 68.6144C9.87227 68.8708 10.22 69.0148 10.5826 69.0148C10.9452 69.0148 11.293 68.8708 11.5494 68.6144C11.8058 68.358 11.9498 68.0103 11.9498 67.6477V65.9234C11.9501 65.7437 11.915 65.5657 11.8464 65.3996C11.7778 65.2335 11.6771 65.0826 11.5501 64.9554C11.4232 64.8283 11.2723 64.7275 11.1063 64.6587C10.9403 64.5899 10.7623 64.5546 10.5826 64.5547ZM86.9146 69.0508H85.1889C84.8263 69.0508 84.4785 69.1948 84.2221 69.4512C83.9657 69.7076 83.8217 70.0554 83.8217 70.418C83.8217 70.7806 83.9657 71.1283 84.2221 71.3847C84.4785 71.6411 84.8263 71.7851 85.1889 71.7851H86.9146C87.2773 71.7851 87.625 71.6411 87.8814 71.3847C88.1378 71.1283 88.2818 70.7806 88.2818 70.418C88.2818 70.0554 88.1378 69.7076 87.8814 69.4512C87.625 69.1948 87.2773 69.0508 86.9146 69.0508ZM79.6529 69.0508H77.9272C77.5646 69.0508 77.2168 69.1948 76.9604 69.4512C76.704 69.7076 76.56 70.0554 76.56 70.418C76.56 70.7806 76.704 71.1283 76.9604 71.3847C77.2168 71.6411 77.5646 71.7851 77.9272 71.7851H79.6529C80.0155 71.7851 80.3633 71.6411 80.6197 71.3847C80.8761 71.1283 81.0201 70.7806 81.0201 70.418C81.0201 70.0554 80.8761 69.7076 80.6197 69.4512C80.3633 69.1948 80.0155 69.0508 79.6529 69.0508ZM82.4217 71.8203C82.2421 71.8202 82.0643 71.8555 81.8984 71.9242C81.7324 71.9928 81.5817 72.0935 81.4547 72.2205C81.3277 72.3475 81.227 72.4983 81.1584 72.6642C81.0897 72.8301 81.0544 73.0079 81.0545 73.1875V74.9133C81.0545 75.2759 81.1985 75.6236 81.4549 75.88C81.7113 76.1364 82.0591 76.2805 82.4217 76.2805C82.7843 76.2805 83.132 76.1364 83.3884 75.88C83.6448 75.6236 83.7889 75.2759 83.7889 74.9133V73.1867C83.7887 72.8242 83.6445 72.4767 83.3882 72.2205C83.1318 71.9642 82.7841 71.8203 82.4217 71.8203ZM82.4217 64.5547C82.2421 64.5546 82.0643 64.5899 81.8984 64.6585C81.7324 64.7272 81.5817 64.8279 81.4547 64.9549C81.3277 65.0819 81.227 65.2326 81.1584 65.3986C81.0897 65.5645 81.0544 65.7423 81.0545 65.9219V67.6477C81.0545 68.0103 81.1985 68.358 81.4549 68.6144C81.7113 68.8708 82.0591 69.0148 82.4217 69.0148C82.7843 69.0148 83.132 68.8708 83.3884 68.6144C83.6448 68.358 83.7889 68.0103 83.7889 67.6477V65.9234C83.7891 65.7438 83.7539 65.5658 83.6852 65.3998C83.6166 65.2337 83.516 65.0828 83.389 64.9557C83.262 64.8286 83.1112 64.7277 82.9452 64.6589C82.7793 64.5901 82.6013 64.5547 82.4217 64.5547Z" fill="#343434"/>
<path d="M88.7867 1.42134C87.9648 0.946812 87.0575 0.63882 86.1166 0.514948C85.1757 0.391075 84.2196 0.45375 83.3029 0.699391C82.3862 0.945033 81.5269 1.36883 80.774 1.94659C80.0211 2.52434 79.3893 3.24474 78.9148 4.06665L61.0773 34.9635C60.7178 31.3477 59.027 27.9945 56.3335 25.5556C53.64 23.1166 50.136 21.7659 46.5023 21.7659C42.8687 21.7659 39.3647 23.1166 36.6712 25.5556C33.9776 27.9945 32.2869 31.3477 31.9273 34.9635L14.0898 4.06665C13.6153 3.24476 12.9836 2.52438 12.2307 1.94664C11.4778 1.36889 10.6185 0.945103 9.70177 0.699463C7.85044 0.20337 5.87785 0.463037 4.21797 1.42134C2.55809 2.37964 1.34687 3.95808 0.850783 5.80941C0.35469 7.66075 0.614357 9.63333 1.57266 11.2932L25.6039 52.9135V90.8823C25.6039 91.2449 25.7479 91.5926 26.0043 91.849C26.2607 92.1054 26.6085 92.2495 26.9711 92.2495C27.3337 92.2495 27.6814 92.1054 27.9378 91.849C28.1942 91.5926 28.3383 91.2449 28.3383 90.8823V52.5502C28.3384 52.3103 28.2753 52.0745 28.1555 51.8666L7.54219 16.1635L15.3227 11.6713L33.5063 43.1479C34.7376 45.5327 36.6014 47.5327 38.8936 48.9289C41.1858 50.3251 43.818 51.0636 46.502 51.0636C49.1859 51.0636 51.8181 50.3251 54.1103 48.9289C56.4025 47.5327 58.2663 45.5327 59.4977 43.1479L77.682 11.6713L85.4625 16.1627L64.8492 51.8666C64.7294 52.0745 64.6663 52.3103 64.6664 52.5502V90.8823C64.6664 91.2449 64.8105 91.5926 65.0668 91.849C65.3232 92.1054 65.671 92.2495 66.0336 92.2495C66.3962 92.2495 66.7439 92.1054 67.0003 91.849C67.2567 91.5926 67.4008 91.2449 67.4008 90.8823V52.9135L91.432 11.2909C92.3873 9.63068 92.6453 7.65943 92.1494 5.80931C91.6535 3.9592 90.4443 2.38122 88.7867 1.42134ZM6.175 13.7948L3.94063 9.92603C3.64101 9.41495 3.44544 8.84965 3.36519 8.26268C3.28493 7.67571 3.32157 7.07867 3.473 6.50592C3.62442 5.93317 3.88764 5.39602 4.24751 4.92542C4.60737 4.45481 5.05676 4.06003 5.56982 3.76381C6.08288 3.46759 6.64946 3.27577 7.23694 3.19941C7.82443 3.12305 8.42122 3.16365 8.99296 3.31887C9.56469 3.47409 10.1001 3.74087 10.5683 4.10385C11.0365 4.46683 11.4283 4.91883 11.7211 5.43384L13.9555 9.30259L6.175 13.7948ZM46.5023 48.3307C44.146 48.3307 41.8425 47.632 39.8832 46.3228C37.924 45.0137 36.3969 43.153 35.4952 40.976C34.5934 38.799 34.3575 36.4034 34.8172 34.0923C35.2769 31.7812 36.4116 29.6583 38.0778 27.9921C39.744 26.3259 41.8669 25.1912 44.178 24.7315C46.4891 24.2718 48.8847 24.5077 51.0617 25.4095C53.2387 26.3112 55.0994 27.8383 56.4085 29.7976C57.7177 31.7568 58.4164 34.0603 58.4164 36.4167C58.4129 39.5754 57.1565 42.6037 54.923 44.8373C52.6894 47.0708 49.6611 48.3272 46.5023 48.3307ZM89.0633 9.92603L86.8297 13.7948L79.0492 9.30259L81.2828 5.43384C81.5756 4.91883 81.9674 4.46683 82.4356 4.10385C82.9038 3.74087 83.4392 3.47409 84.011 3.31887C84.5827 3.16365 85.1795 3.12305 85.767 3.19941C86.3545 3.27577 86.921 3.46759 87.4341 3.76381C87.9471 4.06003 88.3965 4.45481 88.7564 4.92542C89.1163 5.39602 89.3795 5.93317 89.5309 6.50592C89.6823 7.07867 89.719 7.67571 89.6387 8.26268C89.5585 8.84965 89.3629 9.41495 89.0633 9.92603Z" fill="#343434"/>
</svg>
