<svg width="131" height="124" viewBox="0 0 131 124" fill="none" xmlns="http://www.w3.org/2000/svg">
<path d="M106.15 78.7046C105.869 78.7046 105.59 78.6492 105.33 78.5414C105.069 78.4337 104.833 78.2757 104.634 78.0766C104.435 77.8774 104.277 77.641 104.169 77.3808C104.061 77.1206 104.005 76.8417 104.005 76.56V75.7441C104.005 73.2377 100.429 70.7792 96.7855 70.7792H88.0183C87.7368 70.7793 87.458 70.724 87.1979 70.6163C86.9378 70.5086 86.7014 70.3508 86.5024 70.1517C86.3033 69.9526 86.1454 69.7162 86.0378 69.4561C85.9302 69.1959 85.8749 68.9171 85.8751 68.6356C85.8749 68.354 85.9302 68.0752 86.0379 67.815C86.1455 67.5548 86.3034 67.3184 86.5024 67.1193C86.7014 66.9201 86.9378 66.7621 87.1979 66.6543C87.458 66.5465 87.7368 66.4911 88.0183 66.4911H96.7855C102.229 66.4911 108.293 70.292 108.293 75.7441V76.56C108.293 76.8416 108.238 77.1204 108.13 77.3805C108.023 77.6407 107.865 77.8771 107.666 78.0763C107.467 78.2754 107.231 78.4334 106.971 78.5412C106.711 78.649 106.432 78.7045 106.15 78.7046ZM97.5757 52.5539C97.5166 52.5539 97.4579 52.5527 97.3989 52.5476C96.2176 52.4497 95.3392 51.4154 95.4371 50.2354L96.5094 37.1485C96.5009 29.7614 90.7885 23.6086 83.7673 23.6086H72.7869C65.7641 23.6086 60.052 29.7614 60.052 37.3237L61.1158 50.2354C61.2138 51.4154 60.3353 52.4497 59.1541 52.548C57.981 52.6447 56.9408 51.7675 56.8425 50.5862L55.7715 37.4993C55.7643 27.3973 63.4004 19.3206 72.7869 19.3206H83.7661C93.1538 19.3206 100.79 27.3973 100.79 37.3237L99.7105 50.5862C99.6663 51.1222 99.4224 51.622 99.0269 51.9865C98.6315 52.351 98.1135 52.5535 97.5757 52.5539Z" fill="#23C7EF"/>
<path d="M78.2766 72.9236C75.7348 72.9236 73.1729 72.515 70.8676 71.7408C70.6006 71.6511 70.3539 71.5097 70.1417 71.3246C69.9294 71.1396 69.7556 70.9145 69.6303 70.6623C69.505 70.41 69.4306 70.1356 69.4114 69.8546C69.3922 69.5737 69.4285 69.2916 69.5183 69.0247C69.8961 67.9035 71.1107 67.302 72.2319 67.6739C74.1029 68.302 76.1924 68.6356 78.2757 68.6356C83.1351 68.6356 87.6317 66.8764 90.0093 64.0438C93.2506 60.1791 95.4284 54.6629 95.4284 50.3199V41.679C95.4284 40.5527 95.1975 39.8008 94.7437 39.45C93.1281 38.1912 87.9935 39.4952 83.4639 40.6448C79.3232 41.6963 75.0439 42.7846 71.166 42.7846C66.3408 42.7846 63.092 41.0487 61.1472 39.8549C61.1328 40.3345 61.124 40.9321 61.124 41.679V50.3199C61.124 53.4484 62.2895 57.3414 64.2428 60.7321C64.3833 60.976 64.4744 61.2453 64.5109 61.5244C64.5474 61.8035 64.5285 62.0871 64.4554 62.3589C64.3822 62.6308 64.2562 62.8855 64.0846 63.1087C63.913 63.3318 63.699 63.5189 63.4551 63.6593C63.2112 63.8003 62.9419 63.8918 62.6626 63.9285C62.3833 63.9652 62.0995 63.9465 61.8275 63.8733C61.5554 63.8002 61.3005 63.6741 61.0773 63.5022C60.854 63.3304 60.6669 63.1162 60.5266 62.8719C58.1808 58.7974 56.835 54.2223 56.835 50.3199V41.679C56.835 38.0329 56.9172 35.9251 58.6139 34.9892C60.1265 34.1412 61.5584 35.0517 62.8194 35.8428C64.4956 36.9007 67.0289 38.4968 71.166 38.4968C74.5068 38.4968 78.5235 37.4748 82.4077 36.4883C88.6855 34.8946 94.102 33.5155 97.3766 36.0636C98.9297 37.2709 99.7165 39.1604 99.7165 41.6793V50.3199C99.7165 55.679 97.1963 62.1455 93.2936 66.7992C90.0768 70.634 84.4614 72.9236 78.2766 72.9236ZM97.8427 99.4813C97.3151 99.4808 96.8063 99.2857 96.4136 98.9334C96.0209 98.5811 95.772 98.0963 95.7144 97.5719C95.6569 97.0475 95.7947 96.5203 96.1017 96.0912C96.4086 95.6621 96.863 95.3613 97.3778 95.2463L122.823 89.549C123.767 89.3819 124.506 88.912 124.999 88.2091C125.243 87.864 125.416 87.4739 125.507 87.0615C125.599 86.6492 125.608 86.2227 125.534 85.8068C125.436 85.2525 125.194 84.7336 124.834 84.3011C124.473 83.8687 124.007 83.5378 123.479 83.3409C123.215 83.2434 122.973 83.0946 122.766 82.9032C122.559 82.7119 122.392 82.4816 122.275 82.2256C122.157 81.9697 122.091 81.693 122.081 81.4115C122.07 81.13 122.115 80.8493 122.213 80.5852C122.626 79.475 123.863 78.9034 124.968 79.3204C127.463 80.2441 129.3 82.4464 129.758 85.0658C130.106 87.0411 129.661 89.0311 128.509 90.6715C127.359 92.3128 125.636 93.4061 123.661 93.7532L98.3138 99.4298C98.1567 99.4644 97.9985 99.4813 97.8427 99.4813Z" fill="#23C7EF"/>
<path d="M68.8357 111.517H52.5477C52.3922 111.517 52.2362 111.501 52.0829 111.467L32.787 107.179C31.6312 106.921 30.9012 105.775 31.1588 104.621C31.4151 103.465 32.5586 102.744 33.7154 102.991L52.7836 107.229H68.8357C77.2027 107.229 85.4105 104.35 91.9461 99.1221C92.0039 99.0753 92.0639 99.0338 92.1251 98.9945L123.86 78.5881C123.963 78.5215 124.071 78.464 124.183 78.4163C124.573 78.2523 124.926 78.0129 125.222 77.7118C125.518 77.4106 125.752 77.0538 125.909 76.6618C126.232 75.8644 126.223 74.9884 125.888 74.1995C125.195 72.5653 123.303 71.8012 121.672 72.494L89.8151 85.6278C89.5563 85.7346 89.2777 85.7886 88.9979 85.7886H48.2599C47.8804 85.7889 47.5075 85.6884 47.1795 85.4973C46.8515 85.3063 46.5802 85.0315 46.3933 84.7012C46.2063 84.3708 46.1105 83.9967 46.1156 83.6172C46.1207 83.2376 46.2265 82.8662 46.4223 82.541L52.8546 71.8207C53.0451 71.5034 53.3146 71.2409 53.6366 71.0586C53.9587 70.8763 54.3225 70.7805 54.6925 70.7804H63.2693C67.2581 70.7804 70.6197 68.0445 71.5742 64.3481H48.9616L19.7135 85.7983C18.7565 86.4987 17.4179 86.288 16.7163 85.3369C16.3804 84.878 16.2403 84.3045 16.3267 83.7423C16.4132 83.1802 16.7191 82.6753 17.1774 82.3384L46.9926 60.4746C47.3601 60.2049 47.8041 60.0596 48.2599 60.0601H73.9885C74.5572 60.0601 75.1027 60.286 75.5049 60.6882C75.907 61.0903 76.133 61.6358 76.133 62.2046C76.133 69.2983 70.3618 75.0691 63.2684 75.0691H55.9071L52.0471 81.5017H88.5735L120.018 68.5389C123.808 66.928 128.221 68.7166 129.837 72.5248C130.619 74.37 130.637 76.409 129.886 78.2693C129.159 80.0677 127.797 81.487 126.041 82.2869L94.5385 102.543C87.2582 108.33 78.1365 111.517 68.8357 111.517Z" fill="#23C7EF"/>
<path d="M23.1984 123.651C23.0835 123.651 22.9687 123.642 22.8551 123.624C22.2939 123.532 21.7919 123.222 21.4587 122.761L0.405892 93.5561C0.240641 93.3279 0.122178 93.0693 0.0573315 92.7951C-0.00751534 92.521 -0.0174643 92.2367 0.0280581 91.9587C0.119415 91.3975 0.429566 90.8955 0.890512 90.5626L14.8032 80.5329C15.7661 79.8482 17.1047 80.0596 17.7966 81.0188L38.8495 110.222C39.0143 110.45 39.1325 110.709 39.1974 110.983C39.2622 111.257 39.2724 111.541 39.2274 111.819C39.1824 112.097 39.0831 112.363 38.9351 112.603C38.7871 112.843 38.5933 113.051 38.3649 113.215L24.4522 123.247C24.0868 123.51 23.6483 123.651 23.1984 123.651V123.651ZM5.13808 92.7879L23.6843 118.513L34.1189 110.99L15.5723 85.2648L5.13808 92.7879Z" fill="#23C7EF"/>
<path d="M28.9626 109.374C28.9626 111.742 27.0426 113.662 24.6745 113.662C22.3064 113.662 20.3867 111.742 20.3867 109.374C20.3867 107.005 22.3067 105.084 24.6748 105.084C27.0429 105.084 28.9626 107.005 28.9626 109.374ZM78.2773 12.8886C77.9957 12.8889 77.7168 12.8336 77.4565 12.726C77.1963 12.6183 76.9599 12.4605 76.7607 12.2614C76.5615 12.0623 76.4035 11.8259 76.2958 11.5657C76.188 11.3055 76.1327 11.0266 76.1328 10.745V2.16823C76.1327 1.88662 76.188 1.60774 76.2958 1.34756C76.4035 1.08737 76.5615 0.850973 76.7607 0.651887C76.9599 0.452801 77.1963 0.294931 77.4565 0.187306C77.7168 0.0796805 77.9957 0.0244113 78.2773 0.024659C78.5588 0.0244525 78.8377 0.0797567 79.0978 0.187408C79.358 0.29506 79.5944 0.452946 79.7935 0.652036C79.9926 0.851126 80.1505 1.08751 80.2581 1.34768C80.3658 1.60784 80.4211 1.88668 80.4209 2.16823V10.745C80.421 11.0266 80.3657 11.3054 80.258 11.5655C80.1504 11.8256 79.9925 12.062 79.7934 12.261C79.5943 12.4601 79.3579 12.6179 79.0978 12.7256C78.8376 12.8332 78.5588 12.8888 78.2773 12.8886ZM86.8532 12.8886C86.5716 12.8891 86.2928 12.8339 86.0328 12.7261C85.7727 12.6183 85.5366 12.46 85.3381 12.2605C85.1388 12.0615 84.9807 11.8252 84.8728 11.5651C84.7649 11.305 84.7094 11.0262 84.7094 10.7446C84.7094 10.463 84.7649 10.1841 84.8728 9.92402C84.9807 9.66391 85.1388 9.42762 85.3381 9.22867L92.841 1.72381C93.2454 1.3324 93.7874 1.11564 94.3502 1.12028C94.913 1.12493 95.4514 1.35061 95.8492 1.74864C96.2471 2.14667 96.4725 2.68515 96.477 3.24792C96.4814 3.81068 96.2644 4.35263 95.8728 4.75685L88.3695 12.2601C88.1707 12.4598 87.9343 12.618 87.674 12.7259C87.4137 12.8337 87.1346 12.8889 86.8528 12.8883L86.8532 12.8886ZM69.7005 12.8886C69.419 12.8891 69.1402 12.8339 68.8801 12.7261C68.6201 12.6183 68.3839 12.46 68.1854 12.2605L61.7531 5.82785C61.5539 5.62891 61.3958 5.39263 61.288 5.13255C61.1801 4.87247 61.1246 4.59367 61.1246 4.31212C61.1246 4.03056 61.1801 3.75177 61.288 3.49168C61.3958 3.2316 61.5539 2.99533 61.7531 2.79638C62.1552 2.39462 62.7004 2.16894 63.2688 2.16894C63.8373 2.16894 64.3825 2.39462 64.7846 2.79638L71.2169 9.22867C71.5163 9.52865 71.7202 9.91065 71.8027 10.3264C71.8852 10.7422 71.8426 11.1731 71.6803 11.5647C71.5181 11.9563 71.2434 12.291 70.891 12.5266C70.5387 12.7622 70.1244 12.8883 69.7005 12.8886Z" fill="#23C7EF"/>
</svg>
