<svg width="120" height="110" viewBox="0 0 120 110" fill="none" xmlns="http://www.w3.org/2000/svg">
<path d="M22.9869 107.271C22.9869 107.823 22.7781 108.352 22.4064 108.742C22.0347 109.132 21.5306 109.352 21.0049 109.352H2.42431C1.89867 109.352 1.39456 109.132 1.02288 108.742C0.651193 108.352 0.442383 107.823 0.442383 107.271C0.442383 106.719 0.651193 106.19 1.02288 105.799C1.39456 105.409 1.89867 105.19 2.42431 105.19H21.0049C21.5306 105.19 22.0347 105.409 22.4064 105.799C22.7781 106.19 22.9869 106.719 22.9869 107.271ZM46.5223 15.4539C54.1721 15.4539 60.3958 21.9883 60.3958 30.0198V33.6612C60.3958 34.2131 60.187 34.7424 59.8153 35.1326C59.4437 35.5228 58.9395 35.7421 58.4139 35.7421H34.6307C34.1051 35.7421 33.601 35.5228 33.2293 35.1326C32.8576 34.7424 32.6488 34.2131 32.6488 33.6612V30.0198C32.6488 21.9883 38.8725 15.4539 46.5223 15.4539ZM36.6126 30.0198V31.5804H56.432V30.0198C56.432 24.2829 51.9865 19.6156 46.5223 19.6156C41.0581 19.6156 36.6126 24.2829 36.6126 30.0198ZM16.9172 101.028C17.1777 101.028 17.4356 100.974 17.6763 100.87C17.9169 100.765 18.1355 100.611 18.3196 100.418C18.5037 100.224 18.6496 99.9944 18.749 99.7417C18.8485 99.4889 18.8995 99.218 18.8991 98.9445L18.7951 17.6164C18.7859 10.3861 24.3561 4.52957 31.2433 4.52957H32.0924C36.0661 4.52957 39.7082 6.45174 42.0845 9.80318C42.402 10.2354 42.8685 10.5194 43.3835 10.594C43.8985 10.6685 44.4208 10.5276 44.8378 10.2017C45.2549 9.87577 45.5332 9.39086 45.6129 8.85148C45.6927 8.31211 45.5674 7.76144 45.264 7.31814C42.1782 2.96634 37.254 0.368164 32.0924 0.368164H31.2433C22.1639 0.368164 14.8191 8.08883 14.8312 17.6222L14.9353 98.9502C14.936 99.5016 15.1451 100.03 15.5167 100.42C15.8883 100.809 16.392 101.028 16.9172 101.028ZM110.44 72.6768V59.109C110.44 52.9654 105.679 47.9669 99.8271 47.9669H45.7387C39.887 47.9669 35.1262 52.9654 35.1262 59.109V64.0934C35.1262 64.6453 35.335 65.1745 35.7067 65.5648C36.0784 65.955 36.5825 66.1742 37.1081 66.1742C37.6338 66.1742 38.1379 65.955 38.5096 65.5648C38.8813 65.1745 39.0901 64.6453 39.0901 64.0934V59.109C39.0901 55.26 42.0726 52.1286 45.7387 52.1286H71.0487V75.538C71.0487 76.0898 71.2575 76.6191 71.6292 77.0093C72.0009 77.3996 72.505 77.6188 73.0306 77.6188C73.5563 77.6188 74.0604 77.3996 74.4321 77.0093C74.8038 76.6191 75.0126 76.0898 75.0126 75.538V52.1286H99.8271C103.493 52.1286 106.476 55.26 106.476 59.109V72.732C102.025 73.2355 98.548 77.2021 98.548 82.0068V83.8613C98.548 84.4132 98.7568 84.9424 99.1285 85.3327C99.5002 85.7229 100.004 85.9421 100.53 85.9421C101.056 85.9421 101.56 85.7229 101.931 85.3327C102.303 84.9424 102.512 84.4132 102.512 83.8613V82.0068C102.512 79.1571 104.72 76.8385 107.434 76.8385H110.472C113.186 76.8385 115.394 79.1571 115.394 82.0068V100.022C115.394 102.872 113.186 105.19 110.472 105.19H102.512C102.512 91.5711 102.522 92.4091 102.495 92.1849C102.646 90.9143 101.7 89.844 100.53 89.844H56.1842C55.6586 89.844 55.1545 90.0632 54.7828 90.4534C54.4111 90.8437 54.2023 91.3729 54.2023 91.9248C54.2023 92.4767 54.4111 93.0059 54.7828 93.3962C55.1545 93.7864 55.6586 94.0056 56.1842 94.0056H98.548V107.271C98.548 107.823 98.7568 108.352 99.1285 108.742C99.5002 109.133 100.004 109.352 100.53 109.352H110.472C115.372 109.352 119.358 105.166 119.358 100.022V82.0068C119.358 76.9295 115.449 72.6768 110.44 72.6768ZM90.3726 105.19H35.5895C32.8752 105.19 30.6668 102.871 30.6668 100.022V82.0068C30.6668 79.1571 32.8752 76.8385 35.5895 76.8385H38.627C41.3413 76.8385 43.5497 79.1571 43.5497 82.0068V93.7453C43.5497 94.2971 43.7585 94.8264 44.1301 95.2166C44.5018 95.6069 45.0059 95.8261 45.5316 95.8261C46.0572 95.8261 46.5613 95.6069 46.933 95.2166C47.3047 94.8264 47.5135 94.2971 47.5135 93.7453V82.0068C47.5135 76.8622 43.5271 72.6768 38.627 72.6768H35.5895C30.6894 72.6768 26.703 76.8622 26.703 82.0068V100.022C26.703 105.166 30.6894 109.352 35.5895 109.352H90.3726C90.8982 109.352 91.4024 109.133 91.7741 108.742C92.1458 108.352 92.3546 107.823 92.3546 107.271C92.3546 106.719 92.1458 106.19 91.7741 105.799C91.4024 105.409 90.8982 105.19 90.3726 105.19Z" fill="white"/>
</svg>
