<svg width="37" height="23" viewBox="0 0 37 23" fill="none" xmlns="http://www.w3.org/2000/svg">
<g clip-path="url(#clip0_51_14103)">
<mask id="mask0_51_14103" style="mask-type:luminance" maskUnits="userSpaceOnUse" x="0" y="0" width="37" height="23">
<path d="M36.7969 0.337891H0.796875V22.3379H36.7969V0.337891Z" fill="white"/>
</mask>
<g mask="url(#mask0_51_14103)">
<path d="M23.6309 2.67969H13.9355V19.976H23.6309V2.67969Z" fill="#FF5F00"/>
<path d="M14.5512 11.3379C14.5496 9.67211 14.9298 8.02783 15.6631 6.52951C16.3963 5.0312 17.4632 3.71812 18.7832 2.68969C17.1486 1.41419 15.1855 0.620981 13.1183 0.400714C11.0511 0.180449 8.96316 0.542008 7.09315 1.44408C5.22314 2.34616 3.6465 3.75236 2.54346 5.50193C1.44041 7.2515 0.855469 9.27387 0.855469 11.3379C0.855469 13.4019 1.44041 15.4243 2.54346 17.1738C3.6465 18.9234 5.22314 20.3296 7.09315 21.2317C8.96316 22.1337 11.0511 22.4953 13.1183 22.275C15.1855 22.0548 17.1486 21.2616 18.7832 19.9861C17.4633 18.9576 16.3963 17.6445 15.6631 16.1462C14.9299 14.6479 14.5496 13.0036 14.5512 11.3379Z" fill="#EB001B"/>
<path d="M36.7104 11.3379C36.7105 13.4019 36.1256 15.4242 35.0226 17.1738C33.9196 18.9234 32.343 20.3296 30.4731 21.2316C28.6031 22.1337 26.5152 22.4953 24.448 22.275C22.3808 22.0548 20.4177 21.2616 18.7832 19.9861C20.102 18.9566 21.1681 17.6433 21.9012 16.1452C22.6343 14.6471 23.0152 13.0034 23.0152 11.3379C23.0152 9.67237 22.6343 8.0286 21.9012 6.53053C21.1681 5.03245 20.102 3.71916 18.7832 2.68969C20.4177 1.41419 22.3808 0.620975 24.448 0.400712C26.5152 0.180448 28.6031 0.542023 30.4731 1.44411C32.343 2.3462 33.9196 3.75239 35.0226 5.50196C36.1256 7.25154 36.7105 9.27389 36.7104 11.3379Z" fill="#F79E1B"/>
<path d="M35.6522 18.1457V17.7915H35.796V17.7194H35.4297V17.7915H35.5736V18.1457H35.6522ZM36.3633 18.1457V17.7188H36.251L36.1219 18.0124L35.9927 17.7188H35.8804V18.1457H35.9596V17.8237L36.0808 18.1012H36.163L36.2841 17.823V18.1457H36.3633Z" fill="#F79E1B"/>
</g>
</g>
<defs>
<clipPath id="clip0_51_14103">
<rect width="37" height="22" fill="white" transform="translate(0 0.337891)"/>
</clipPath>
</defs>
</svg>
