<svg width="67" height="44" viewBox="0 0 67 44" fill="none" xmlns="http://www.w3.org/2000/svg">
<path d="M62.1685 0.675781H4.83146C3.55052 0.677221 2.32247 1.18149 1.41671 2.07797C0.510949 2.97444 0.00145467 4.18991 0 5.45772L0 38.8938C0.00145467 40.1617 0.510949 41.3771 1.41671 42.2736C2.32247 43.1701 3.55052 43.6743 4.83146 43.6758H62.1685C63.4495 43.6743 64.6775 43.1701 65.5833 42.2736C66.4891 41.3771 66.9985 40.1617 67 38.8938V5.45772C66.9985 4.18991 66.4891 2.97444 65.5833 2.07797C64.6775 1.18149 63.4495 0.677221 62.1685 0.675781ZM42.8275 21.4664L64.5633 4.14881C64.7883 4.54912 64.9063 4.99964 64.9062 5.45772V38.8938C64.906 39.3194 64.8038 39.7388 64.6079 40.1175L42.8275 21.4664ZM62.1685 2.74807C62.4043 2.74891 62.639 2.78004 62.8667 2.84068L40.5567 20.6153L38.5807 22.19C37.1455 23.3461 35.3515 23.9772 33.501 23.9772C31.6506 23.9772 29.8566 23.3461 28.4213 22.19L4.13385 2.84003C4.36139 2.77966 4.59588 2.74875 4.83146 2.74807H62.1685ZM2.39211 40.1175C2.19623 39.7388 2.09397 39.3194 2.09375 38.8938V5.45772C2.09344 4.9997 2.21122 4.54919 2.43595 4.14881L24.1717 21.4664L2.39211 40.1175ZM4.83146 41.6035C4.55101 41.6035 4.27223 41.5608 4.00495 41.4767L25.8299 22.7872L27.1073 23.805C28.9135 25.2596 31.1711 26.0538 33.4997 26.0538C35.8284 26.0538 38.0859 25.2596 39.8922 23.805L41.1695 22.7872L62.9957 41.4767C62.7284 41.5608 62.4496 41.6035 62.1692 41.6035H4.83146Z" fill="black"/>
</svg>
