<svg width="72" height="22" viewBox="0 0 72 22" fill="none" xmlns="http://www.w3.org/2000/svg">
<g clip-path="url(#clip0_51_14112)">
<path fill-rule="evenodd" clip-rule="evenodd" d="M19.1323 0.337891V0.346667C19.1235 0.346667 16.359 0.337891 15.6218 2.97955C14.946 5.4018 13.0415 12.0893 12.9889 12.2736H12.4623C12.4623 12.2736 10.514 5.4369 9.82942 2.97077C9.09221 0.329115 6.31891 0.337891 6.31891 0.337891H0V20.4356H6.31891V8.49982H6.5822H6.84549L10.5315 20.4356H14.9197L18.6057 8.5086H19.1323V20.4356H25.4512V0.337891H19.1323Z" fill="#4DB45E"/>
<path fill-rule="evenodd" clip-rule="evenodd" d="M43.2139 0.337891C43.2139 0.337891 41.3621 0.50464 40.4933 2.44419L36.0174 12.2736H35.4908V0.337891H29.1719V20.4356H35.1397C35.1397 20.4356 37.0793 20.26 37.9481 18.3292L42.3363 8.49982H42.8629V20.4356H49.1818V0.337891H43.2139Z" fill="#4DB45E"/>
<path fill-rule="evenodd" clip-rule="evenodd" d="M51.9902 9.46484V20.4352H58.3091V14.0285H65.1546C68.1386 14.0285 70.6661 12.1241 71.6052 9.46484H51.9902Z" fill="#4DB45E"/>
<path fill-rule="evenodd" clip-rule="evenodd" d="M65.1543 0.337891H51.1035C51.8056 4.16434 54.6755 7.23604 58.3878 8.23653C59.2303 8.46471 60.1167 8.58758 61.0295 8.58758H71.8594C71.9559 8.13121 71.9998 7.66607 71.9998 7.18338C71.9998 3.40081 68.9369 0.337891 65.1543 0.337891Z" fill="url(#paint0_linear_51_14112)"/>
</g>
<defs>
<linearGradient id="paint0_linear_51_14112" x1="51.1052" y1="4.46274" x2="71.9998" y2="4.46274" gradientUnits="userSpaceOnUse">
<stop offset="0.3" stop-color="#00B4E6"/>
<stop offset="1" stop-color="#088CCB"/>
</linearGradient>
<clipPath id="clip0_51_14112">
<rect width="72" height="21" fill="white" transform="translate(0 0.337891)"/>
</clipPath>
</defs>
</svg>
