<svg width="25" height="30" viewBox="0 0 25 30" fill="none" xmlns="http://www.w3.org/2000/svg">
<path d="M22.7167 0.338135H1.45C1.06544 0.338135 0.696623 0.490902 0.424695 0.76283C0.152767 1.03476 0 1.40357 0 1.78813V27.8881C0 28.2727 0.152767 28.6415 0.424695 28.9134C0.696623 29.1854 1.06544 29.3381 1.45 29.3381H22.7167C23.1012 29.3381 23.47 29.1854 23.742 28.9134C24.0139 28.6415 24.1667 28.2727 24.1667 27.8881V1.78813C24.1667 1.40357 24.0139 1.03476 23.742 0.76283C23.47 0.490902 23.1012 0.338135 22.7167 0.338135ZM23.2 27.8881C23.2 28.0163 23.1491 28.1393 23.0584 28.2299C22.9678 28.3205 22.8449 28.3715 22.7167 28.3715H1.45C1.32181 28.3715 1.19887 28.3205 1.10823 28.2299C1.01759 28.1393 0.966667 28.0163 0.966667 27.8881V15.3215H23.2V27.8881ZM23.2 14.3548H0.966667V1.78813C0.966667 1.65995 1.01759 1.53701 1.10823 1.44637C1.19887 1.35572 1.32181 1.3048 1.45 1.3048H22.7167C22.8449 1.3048 22.9678 1.35572 23.0584 1.44637C23.1491 1.53701 23.2 1.65995 23.2 1.78813V14.3548Z" fill="white"/>
<path d="M3.38359 27.4051H11.1169C11.5015 27.4051 11.8703 27.2523 12.1422 26.9804C12.4142 26.7084 12.5669 26.3396 12.5669 25.9551V17.7384C12.5669 17.3538 12.4142 16.985 12.1422 16.7131C11.8703 16.4412 11.5015 16.2884 11.1169 16.2884H3.38359C2.99903 16.2884 2.63022 16.4412 2.35829 16.7131C2.08636 16.985 1.93359 17.3538 1.93359 17.7384V25.9551C1.93359 26.3396 2.08636 26.7084 2.35829 26.9804C2.63022 27.2523 2.99903 27.4051 3.38359 27.4051ZM4.86936 26.4384C4.91855 25.9966 5.0699 25.5723 5.31141 25.199C5.55293 24.8258 5.87799 24.5139 6.26088 24.288C6.57112 24.431 6.90866 24.505 7.25026 24.505C7.59186 24.505 7.9294 24.431 8.23964 24.288C8.62253 24.5139 8.94759 24.8258 9.18911 25.199C9.43063 25.5723 9.58197 25.9966 9.63116 26.4384H4.86936ZM7.25026 21.2638C7.58757 21.503 7.99414 21.6246 8.40736 21.6099C8.50522 21.6094 8.60299 21.6038 8.70026 21.593V22.0884C8.70026 22.473 8.54749 22.8418 8.27557 23.1137C8.00364 23.3856 7.63482 23.5384 7.25026 23.5384C6.8657 23.5384 6.49688 23.3856 6.22496 23.1137C5.95303 22.8418 5.80026 22.473 5.80026 22.0884V21.5915C6.30762 21.6689 6.82548 21.5518 7.25026 21.2638ZM5.80026 20.6133C5.82162 20.2438 5.98343 19.8965 6.25256 19.6425C6.52169 19.3884 6.87777 19.2469 7.24784 19.2469C7.61792 19.2469 7.97399 19.3884 8.24312 19.6425C8.51225 19.8965 8.67407 20.2438 8.69543 20.6133C8.35709 20.6616 7.86216 20.6655 7.68043 20.3015C7.63577 20.2266 7.57242 20.1646 7.49659 20.1215C7.42077 20.0784 7.33505 20.0558 7.24784 20.0558C7.16064 20.0558 7.07492 20.0784 6.99909 20.1215C6.92326 20.1646 6.85992 20.2266 6.81526 20.3015C6.63546 20.6655 6.13859 20.663 5.80268 20.6133H5.80026ZM2.90026 17.7384C2.90026 17.6102 2.95118 17.4873 3.04183 17.3966C3.13247 17.306 3.25541 17.2551 3.38359 17.2551H11.1169C11.2451 17.2551 11.3681 17.306 11.4587 17.3966C11.5493 17.4873 11.6003 17.6102 11.6003 17.7384V25.9551C11.6003 26.0833 11.5493 26.2062 11.4587 26.2968C11.3681 26.3875 11.2451 26.4384 11.1169 26.4384H10.6007C10.5489 25.8959 10.3856 25.3699 10.1211 24.8934C9.8565 24.4169 9.49637 24.0002 9.06324 23.6694C9.45017 23.2334 9.6648 22.6713 9.66693 22.0884V20.6384C9.66693 19.9975 9.41231 19.3828 8.9591 18.9296C8.50589 18.4763 7.8912 18.2217 7.25026 18.2217C6.60932 18.2217 5.99463 18.4763 5.54142 18.9296C5.08821 19.3828 4.83359 19.9975 4.83359 20.6384V22.0884C4.83572 22.6713 5.05036 23.2334 5.43728 23.6694C5.00415 24.0002 4.64402 24.4169 4.37945 24.8934C4.11489 25.3699 3.95159 25.8959 3.89979 26.4384H3.38359C3.25541 26.4384 3.13247 26.3875 3.04183 26.2968C2.95118 26.2062 2.90026 26.0833 2.90026 25.9551V17.7384ZM14.5003 19.1884H21.2669C21.5233 19.1884 21.7692 19.0866 21.9505 18.9053C22.1318 18.724 22.2336 18.4781 22.2336 18.2217V17.2551C22.2336 16.9987 22.1318 16.7528 21.9505 16.5715C21.7692 16.3902 21.5233 16.2884 21.2669 16.2884H14.5003C14.2439 16.2884 13.998 16.3902 13.8167 16.5715C13.6354 16.7528 13.5336 16.9987 13.5336 17.2551V18.2217C13.5336 18.4781 13.6354 18.724 13.8167 18.9053C13.998 19.0866 14.2439 19.1884 14.5003 19.1884ZM14.5003 17.2551H21.2669V18.2217H14.5003V17.2551ZM21.2669 20.1551H14.5003C14.3721 20.1551 14.2491 20.206 14.1585 20.2966C14.0678 20.3873 14.0169 20.5102 14.0169 20.6384C14.0169 20.7666 14.0678 20.8895 14.1585 20.9802C14.2491 21.0708 14.3721 21.1217 14.5003 21.1217H21.2669C21.3951 21.1217 21.5181 21.0708 21.6087 20.9802C21.6993 20.8895 21.7503 20.7666 21.7503 20.6384C21.7503 20.5102 21.6993 20.3873 21.6087 20.2966C21.5181 20.206 21.3951 20.1551 21.2669 20.1551ZM21.2669 22.0884H14.5003C14.3721 22.0884 14.2491 22.1393 14.1585 22.23C14.0678 22.3206 14.0169 22.4435 14.0169 22.5717C14.0169 22.6999 14.0678 22.8229 14.1585 22.9135C14.2491 23.0041 14.3721 23.0551 14.5003 23.0551H21.2669C21.3951 23.0551 21.5181 23.0041 21.6087 22.9135C21.6993 22.8229 21.7503 22.6999 21.7503 22.5717C21.7503 22.4435 21.6993 22.3206 21.6087 22.23C21.5181 22.1393 21.3951 22.0884 21.2669 22.0884ZM16.4336 24.0217H14.5003C14.3721 24.0217 14.2491 24.0727 14.1585 24.1633C14.0678 24.2539 14.0169 24.3769 14.0169 24.5051C14.0169 24.6333 14.0678 24.7562 14.1585 24.8468C14.2491 24.9375 14.3721 24.9884 14.5003 24.9884H16.4336C16.5618 24.9884 16.6847 24.9375 16.7754 24.8468C16.866 24.7562 16.9169 24.6333 16.9169 24.5051C16.9169 24.3769 16.866 24.2539 16.7754 24.1633C16.6847 24.0727 16.5618 24.0217 16.4336 24.0217ZM12.0836 2.27173C11.0321 2.27173 10.0041 2.58355 9.12981 3.16775C8.25549 3.75195 7.57404 4.5823 7.17163 5.5538C6.76923 6.52529 6.66394 7.59429 6.86909 8.62563C7.07423 9.65696 7.58059 10.6043 8.32414 11.3478C9.06769 12.0914 10.015 12.5978 11.0464 12.8029C12.0777 13.008 13.1467 12.9028 14.1182 12.5004C15.0897 12.0979 15.92 11.4165 16.5042 10.5422C17.0884 9.66786 17.4003 8.63993 17.4003 7.5884C17.3986 6.17884 16.8379 4.82749 15.8412 3.83078C14.8445 2.83407 13.4932 2.27339 12.0836 2.27173ZM15.3166 4.6884H14.1242C14.0171 4.29527 13.8713 3.91368 13.6892 3.54918C14.3121 3.79872 14.869 4.18856 15.3166 4.6884ZM12.0836 3.2384C12.4127 3.2384 12.8245 3.76475 13.1252 4.6884H11.042C11.3426 3.76475 11.7544 3.2384 12.0836 3.2384ZM8.19228 5.65506H9.82691C9.74635 6.13475 9.69615 6.61905 9.67659 7.10506H7.76211C7.81908 6.60019 7.9647 6.10932 8.19228 5.65506ZM8.19228 9.52173C7.96432 9.06758 7.81853 8.57668 7.76163 8.07173H9.67659C9.69615 8.55774 9.74635 9.04204 9.82691 9.52173H8.19228ZM8.85009 10.4884H10.0425C10.1496 10.8815 10.2954 11.2631 10.4775 11.6276C9.8548 11.378 9.29807 10.9882 8.85058 10.4884H8.85009ZM10.043 4.6884H8.85058C9.29807 4.18862 9.8548 3.79878 10.4775 3.54918C10.2955 3.9137 10.15 4.29529 10.043 4.6884ZM12.0836 11.9384C11.7544 11.9384 11.3426 11.412 11.042 10.4884H13.1252C12.8245 11.412 12.4127 11.9384 12.0836 11.9384ZM13.3649 9.52173H10.8032C10.7159 9.04278 10.6628 8.55822 10.6442 8.07173H13.5249C13.506 8.55824 13.4525 9.0428 13.3649 9.52173ZM10.6433 7.10506C10.6618 6.61857 10.715 6.13402 10.8023 5.65506H13.3639C13.4512 6.13402 13.5044 6.61857 13.523 7.10506H10.6433ZM13.6883 11.6276C13.8704 11.2631 14.0161 10.8815 14.1233 10.4884H15.3156C14.8684 10.988 14.312 11.3779 13.6897 11.6276H13.6883ZM15.9749 9.52173H14.3408C14.4209 9.042 14.471 8.55772 14.4906 8.07173H16.4051C16.3481 8.57661 16.2025 9.06747 15.9749 9.52173ZM16.4051 7.10506H14.4906C14.471 6.61908 14.4209 6.13479 14.3408 5.65506H15.9749C16.2025 6.10932 16.3481 6.60019 16.4051 7.10506Z" fill="white"/>
</svg>
