<svg width="38" height="38" viewBox="0 0 38 38" fill="none" xmlns="http://www.w3.org/2000/svg">
<path fill-rule="evenodd" clip-rule="evenodd" d="M28.3702 36.9065C24.8351 36.0208 17.5979 33.5238 11.037 26.9629C4.47601 20.4019 1.97903 13.1648 1.09331 9.62964C0.584296 7.59804 1.50089 5.63761 3.05509 4.52746L7.12953 1.61715C9.51352 -0.0856962 12.8299 0.492135 14.4975 2.9009L17.0627 6.6061C18.1515 8.1789 17.776 10.3345 16.2193 11.4464L14.174 12.9074C14.4835 14.0914 15.4463 16.523 18.4616 19.5383C21.4768 22.5535 23.9084 23.5163 25.0925 23.8259L26.5534 21.7805C27.6653 20.2239 29.8209 19.8483 31.3937 20.9372L35.0989 23.5023C37.5077 25.1699 38.0855 28.4863 36.3827 30.8703L33.4724 34.9448C32.3622 36.499 30.4018 37.4155 28.3702 36.9065ZM13.5118 24.488C19.4782 30.4544 26.0625 32.7202 29.2208 33.5115C29.6824 33.6271 30.2405 33.4477 30.6243 32.9104L33.5346 28.836C34.1022 28.0413 33.9096 26.9358 33.1067 26.38L29.4015 23.8148L27.8337 26.0098C27.193 26.9068 26.008 27.6104 24.6284 27.3127C22.9063 26.9411 19.7231 25.7495 15.9867 22.0131C12.2503 18.2767 11.0587 15.0935 10.6872 13.3715C10.3895 11.9918 11.093 10.8069 11.9901 10.1662L14.185 8.59834L11.6199 4.89314C11.064 4.09021 9.95852 3.8976 9.16386 4.46522L5.08942 7.37553C4.55211 7.75933 4.37271 8.31741 4.48837 8.77901C5.27968 11.9373 7.54542 18.5216 13.5118 24.488Z" fill="#23C7EF"/>
</svg>
