<svg width="29" height="30" viewBox="0 0 29 30" fill="none" xmlns="http://www.w3.org/2000/svg">
<path d="M14.4996 29.0024C12.2112 29.0022 9.9554 28.4604 7.91653 27.4213C5.87766 26.3822 4.11365 24.8753 2.76873 23.0238C1.42381 21.1723 0.536164 19.0288 0.178358 16.7686C-0.179448 14.5084 0.00274664 12.1955 0.710048 10.0192C1.41735 7.8428 2.62967 5.86475 4.24791 4.24671C5.86614 2.62867 7.84433 1.41657 10.0208 0.709525C12.1972 0.00247729 14.51 -0.179448 16.7702 0.178623C19.0304 0.536694 21.1738 1.4246 23.0251 2.76974C23.1214 2.83976 23.2029 2.92806 23.265 3.02958C23.3271 3.13111 23.3687 3.24387 23.3872 3.36145C23.4057 3.47902 23.401 3.59909 23.3731 3.71481C23.3452 3.83053 23.2948 3.93962 23.2248 4.03587C23.1548 4.13212 23.0665 4.21363 22.965 4.27576C22.8635 4.33788 22.7507 4.3794 22.6331 4.39794C22.3957 4.43539 22.1531 4.37699 21.9587 4.23557C19.4372 2.40588 16.3301 1.56919 13.2307 1.88532C10.1314 2.20144 7.2572 3.64823 5.15705 5.94932C3.0569 8.2504 1.87803 11.2445 1.84562 14.3598C1.81322 17.475 2.92954 20.493 4.98137 22.8373C7.0332 25.1815 9.87672 26.6878 12.9688 27.0683C16.0608 27.4489 19.1847 26.677 21.7437 24.9002C24.3027 23.1233 26.1175 20.466 26.8414 17.4359C27.5653 14.4058 27.1475 11.2152 25.668 8.47354C25.5622 8.26287 25.5427 8.01929 25.6136 7.79447C25.6845 7.56966 25.8402 7.3813 26.0476 7.26936C26.255 7.15742 26.4979 7.13071 26.7248 7.19489C26.9516 7.25907 27.1445 7.4091 27.2625 7.61314C28.4537 9.82247 29.0512 12.3031 28.9966 14.8126C28.942 17.322 28.2371 19.7743 26.951 21.9297C25.6649 24.0851 23.8414 25.87 21.6589 27.1097C19.4765 28.3494 17.0096 29.0016 14.4996 29.0024Z" fill="white"/>
<path d="M13.4944 19.1762C13.1727 19.1762 12.9124 18.916 12.9124 18.5942C12.9124 17.833 13.0204 17.1754 13.2353 16.6226C13.3929 16.2058 13.6488 15.7858 14.0008 15.3615C14.26 15.0527 14.7242 14.6014 15.3958 14.0097C16.0674 13.4169 16.5036 12.945 16.7056 12.593C16.9075 12.241 17.0068 11.8567 17.0068 11.4399C17.0068 10.6851 16.712 10.0233 16.1236 9.45208C15.5351 8.8809 14.8128 8.59585 13.9576 8.59585C13.1316 8.59585 12.4417 8.85499 11.8889 9.37218C11.485 9.75009 11.1816 10.2835 10.9808 10.9724C10.8426 11.4453 10.3815 11.7476 9.89242 11.6893C9.27265 11.6159 8.86451 11.0026 9.04158 10.4033C9.31368 9.48232 9.76933 8.74054 10.4075 8.17691C11.2939 7.39194 12.4665 7 13.9252 7C15.4693 7 16.7012 7.42002 17.6212 8.26113C18.5411 9.10225 19 10.1183 19 11.3103C19 12.0003 18.838 12.6362 18.5152 13.2171C18.1924 13.7991 17.5596 14.5063 16.6192 15.3399C15.9875 15.9003 15.574 16.3138 15.3796 16.5794C15.1853 16.845 15.0417 17.1506 14.9488 17.495C14.8797 17.7509 14.8322 18.1267 14.8063 18.6201C14.7901 18.9311 14.532 19.1751 14.2211 19.1751H13.4944V19.1762ZM12.8045 21.9619C12.8045 21.3519 13.299 20.8573 13.909 20.8573C14.5191 20.8573 15.0136 21.3519 15.0136 21.9619C15.0136 22.572 14.5191 23.0665 13.909 23.0665C13.299 23.0665 12.8045 22.572 12.8045 21.9619Z" fill="white"/>
</svg>
