<svg width="29" height="30" viewBox="0 0 29 30" fill="none" xmlns="http://www.w3.org/2000/svg">
<path d="M17.7474 17.6275H13.7535V16.5538H15.2441C16.3832 16.5538 17.4756 16.1013 18.281 15.2959C19.0864 14.4904 19.5389 13.398 19.5389 12.259C19.5389 11.12 19.0864 10.0276 18.281 9.22214C17.4756 8.41672 16.3832 7.96423 15.2441 7.96423H12.8472C12.6068 7.96423 12.3763 8.05972 12.2063 8.22969C12.0364 8.39966 11.9409 8.63019 11.9409 8.87056V14.7411H10.3663C10.1259 14.7411 9.89539 14.8366 9.72542 15.0066C9.55545 15.1766 9.45996 15.4071 9.45996 15.6475C9.45996 15.8878 9.55545 16.1184 9.72542 16.2883C9.89539 16.4583 10.1259 16.5538 10.3663 16.5538H11.9409V17.6275H10.3663C10.1259 17.6275 9.89539 17.723 9.72542 17.8929C9.55545 18.0629 9.45996 18.2934 9.45996 18.5338C9.45996 18.7742 9.55545 19.0047 9.72542 19.1747C9.89539 19.3446 10.1259 19.4401 10.3663 19.4401H11.9409V20.8135C11.9409 21.0539 12.0364 21.2844 12.2063 21.4544C12.3763 21.6243 12.6068 21.7198 12.8472 21.7198C13.0876 21.7198 13.3181 21.6243 13.4881 21.4544C13.658 21.2844 13.7535 21.0539 13.7535 20.8135V19.4401H17.7474C17.9878 19.4401 18.2183 19.3446 18.3883 19.1747C18.5582 19.0047 18.6537 18.7742 18.6537 18.5338C18.6537 18.2934 18.5582 18.0629 18.3883 17.8929C18.2183 17.723 17.9878 17.6275 17.7474 17.6275ZM13.7535 9.77688H15.2441C15.9024 9.77688 16.5338 10.0384 16.9993 10.5039C17.4647 10.9694 17.7262 11.6007 17.7262 12.259C17.7262 12.9173 17.4647 13.5486 16.9993 14.0141C16.5338 14.4796 15.9024 14.7411 15.2441 14.7411H13.7535V9.77688Z" fill="white"/>
<path d="M14.4996 29.3405C12.2112 29.3403 9.9554 28.7985 7.91653 27.7594C5.87766 26.7203 4.11365 25.2134 2.76873 23.3619C1.42381 21.5104 0.536164 19.3669 0.178358 17.1067C-0.179448 14.8465 0.00274687 12.5336 0.710048 10.3573C1.41735 8.18093 2.62967 6.20288 4.24791 4.58484C5.86614 2.9668 7.84433 1.7547 10.0208 1.04766C12.1972 0.340612 14.51 0.158687 16.7702 0.516758C19.0304 0.874829 21.1738 1.76273 23.0251 3.10787C23.1214 3.17789 23.2029 3.26619 23.265 3.36771C23.3271 3.46924 23.3687 3.582 23.3872 3.69958C23.4057 3.81715 23.401 3.93722 23.3731 4.05294C23.3452 4.16866 23.2948 4.27775 23.2248 4.374C23.1548 4.47025 23.0665 4.55176 22.965 4.61389C22.8635 4.67601 22.7507 4.71753 22.6331 4.73607C22.3957 4.77352 22.1531 4.71512 21.9587 4.5737C19.4372 2.74401 16.3301 1.90732 13.2307 2.22345C10.1314 2.53957 7.2572 3.98636 5.15705 6.28745C3.0569 8.58853 1.87803 11.5826 1.84562 14.6979C1.81322 17.8131 2.92954 20.8311 4.98137 23.1754C7.0332 25.5196 9.87672 27.0259 12.9688 27.4064C16.0608 27.787 19.1847 27.0151 21.7437 25.2383C24.3027 23.4614 26.1175 20.8041 26.8414 17.774C27.5653 14.7439 27.1475 11.5533 25.668 8.81167C25.5622 8.601 25.5427 8.35742 25.6136 8.1326C25.6845 7.90779 25.8402 7.71943 26.0476 7.60749C26.255 7.49555 26.4979 7.46884 26.7248 7.53302C26.9516 7.5972 27.1445 7.74723 27.2625 7.95127C28.4537 10.1606 29.0512 12.6412 28.9966 15.1507C28.942 17.6601 28.2371 20.1124 26.951 22.2678C25.6649 24.4232 23.8414 26.2081 21.6589 27.4478C19.4765 28.6875 17.0096 29.3397 14.4996 29.3405Z" fill="white"/>
</svg>
