<svg width="20" height="35" viewBox="0 0 20 35" fill="none" xmlns="http://www.w3.org/2000/svg">
<path d="M10.1521 6.0449e-05H0.661372C0.296321 6.0449e-05 9.24509e-09 0.296381 9.24509e-09 0.661432V34.3387C-6.04397e-05 34.7037 0.296321 35 0.661372 35H10.1521C10.5172 35 10.8135 34.7037 10.8135 34.3386V0.661372C10.8135 0.296321 10.5171 0 10.1522 0L10.1521 6.0449e-05ZM9.49073 4.46434H7.85709C7.49204 4.46434 7.19572 4.76066 7.19572 5.12571C7.19572 5.49076 7.49204 5.78708 7.85709 5.78708H9.49067V7.99607H7.85709C7.49204 7.99607 7.19572 8.29245 7.19572 8.6575C7.19572 9.02255 7.49204 9.31887 7.85709 9.31887H9.49067V11.5477H6.36908C6.00397 11.5477 5.70765 11.8441 5.70765 12.2091C5.70765 12.5742 6.00397 12.8705 6.36902 12.8705H9.49061V15.0795H7.85709C7.49204 15.0795 7.19572 15.3758 7.19572 15.7408C7.19572 16.106 7.49204 16.4023 7.85709 16.4023H9.49067V18.6179H7.85709C7.49204 18.6179 7.19572 18.9142 7.19572 19.2793C7.19572 19.6443 7.49204 19.9407 7.85709 19.9407H9.49067V22.1298H6.36908C6.00397 22.1298 5.70765 22.4261 5.70765 22.7912C5.70765 23.1563 6.00397 23.4526 6.36902 23.4526H9.49061V25.6616H7.85709C7.49204 25.6616 7.19572 25.9579 7.19572 26.323C7.19572 26.6881 7.49204 26.9844 7.85709 26.9844H9.49067V29.1933H7.85709C7.49204 29.1933 7.19572 29.4897 7.19572 29.8548C7.19572 30.2198 7.49204 30.5161 7.85709 30.5161H9.49067V33.6576H1.3228V1.32286H9.49067L9.49073 4.46434ZM18.3729 6.48817C18.4993 6.48811 18.6231 6.45183 18.7295 6.38363C18.836 6.31543 18.9207 6.21816 18.9735 6.10334C19.0264 5.98852 19.0453 5.86094 19.028 5.73572C19.0106 5.6105 18.9577 5.49287 18.8756 5.39676L16.8319 1.83855C16.6487 1.52259 16.244 1.41541 15.9281 1.59863C15.8283 1.65608 15.7454 1.73887 15.6879 1.83862L13.5781 5.4962C13.3955 5.81211 13.5039 6.21711 13.8201 6.39937C13.9214 6.45797 14.0365 6.48861 14.1535 6.48817H15.6019V28.5119H14.1536C13.7885 28.5105 13.4908 28.8057 13.4895 29.1707C13.4888 29.2878 13.5198 29.4028 13.5781 29.5039L15.6879 33.1615C15.8711 33.4774 16.2759 33.5846 16.592 33.4014C16.6917 33.3439 16.7744 33.2611 16.8319 33.1614L18.9417 29.5039C19.1243 29.188 19.0159 28.7829 18.6997 28.6007C18.5984 28.5421 18.4834 28.5114 18.3663 28.5119H16.9179V6.48817H18.3729ZM17.2289 29.8347L16.2634 31.5079L15.2976 29.8347H17.2289ZM15.2976 5.16536L16.2634 3.49214L17.2289 5.16536H15.2976Z" fill="white"/>
</svg>
