<svg width="29" height="30" viewBox="0 0 29 30" fill="none" xmlns="http://www.w3.org/2000/svg">
<path d="M14.4996 29.0024C12.2112 29.0022 9.9554 28.4604 7.91653 27.4213C5.87766 26.3822 4.11365 24.8753 2.76873 23.0238C1.42381 21.1723 0.536164 19.0288 0.178358 16.7686C-0.179448 14.5084 0.00274664 12.1955 0.710048 10.0192C1.41735 7.8428 2.62967 5.86475 4.24791 4.24671C5.86614 2.62867 7.84433 1.41657 10.0208 0.709525C12.1972 0.00247729 14.51 -0.179448 16.7702 0.178623C19.0304 0.536694 21.1738 1.4246 23.0251 2.76974C23.1214 2.83976 23.2029 2.92806 23.265 3.02958C23.3271 3.13111 23.3687 3.24387 23.3872 3.36145C23.4057 3.47902 23.401 3.59909 23.3731 3.71481C23.3452 3.83053 23.2948 3.93962 23.2248 4.03587C23.1548 4.13212 23.0665 4.21363 22.965 4.27576C22.8635 4.33788 22.7507 4.3794 22.6331 4.39794C22.3957 4.43539 22.1531 4.37699 21.9587 4.23557C19.4372 2.40588 16.3301 1.56919 13.2307 1.88532C10.1314 2.20144 7.2572 3.64823 5.15705 5.94932C3.0569 8.2504 1.87803 11.2445 1.84562 14.3598C1.81322 17.475 2.92954 20.493 4.98137 22.8373C7.0332 25.1815 9.87672 26.6878 12.9688 27.0683C16.0608 27.4489 19.1847 26.677 21.7437 24.9002C24.3027 23.1233 26.1175 20.466 26.8414 17.4359C27.5653 14.4058 27.1475 11.2152 25.668 8.47354C25.5622 8.26287 25.5427 8.01929 25.6136 7.79447C25.6845 7.56966 25.8402 7.3813 26.0476 7.26936C26.255 7.15742 26.4979 7.13071 26.7248 7.19489C26.9516 7.25907 27.1445 7.4091 27.2625 7.61314C28.4537 9.82247 29.0512 12.3031 28.9966 14.8126C28.942 17.322 28.2371 19.7743 26.951 21.9297C25.6649 24.0851 23.8414 25.87 21.6589 27.1097C19.4765 28.3494 17.0096 29.0016 14.4996 29.0024Z" fill="white"/>
<path d="M13.8929 6.25574L8.24951 12.0339C8.08842 12.1988 8 12.4187 8 12.6531C8 12.8877 8.08855 13.1075 8.24951 13.2724L8.762 13.797C8.92284 13.9618 9.13767 14.0526 9.36672 14.0526C9.59565 14.0526 9.81772 13.9618 9.97856 13.797L13.278 10.4261V21.1356C13.278 21.6185 13.6472 22 14.1189 22H14.8434C15.3151 22 15.7215 21.6185 15.7215 21.1356V10.3879L19.0394 13.7969C19.2004 13.9617 19.4094 14.0525 19.6385 14.0525C19.8673 14.0525 20.0793 13.9617 20.2403 13.7969L20.7511 13.2723C20.9122 13.1073 21 12.8876 21 12.653C21 12.4186 20.9111 12.1987 20.75 12.0338L15.1068 6.25561C14.9452 6.09028 14.7294 5.99935 14.5001 6C14.2701 5.99948 14.0542 6.09028 13.8929 6.25574Z" fill="white"/>
</svg>
