<svg width="94" height="125" viewBox="0 0 94 125" fill="none" xmlns="http://www.w3.org/2000/svg">
<path d="M84.7049 29.2036C84.3073 29.2044 83.9178 29.0911 83.5826 28.8772C83.2475 28.6633 82.9807 28.3577 82.814 27.9968C82.6473 27.6358 82.5876 27.2345 82.6421 26.8407C82.6966 26.4468 82.863 26.0768 83.1214 25.7747L88.5661 19.4032C88.9209 18.9889 89.1906 18.5088 89.3598 17.9903C89.529 17.4718 89.5945 16.925 89.5524 16.3812C89.5104 15.8375 89.3616 15.3073 89.1146 14.821C88.8677 14.3347 88.5273 13.9018 88.1131 13.547C87.6988 13.1922 87.2187 12.9225 86.7002 12.7533C86.1817 12.584 85.6349 12.5186 85.0912 12.5607C84.5474 12.6027 84.0172 12.7515 83.5309 12.9985C83.0446 13.2454 82.6117 13.5858 82.2569 14L78.5412 18.3475C78.3638 18.5549 78.1473 18.7253 77.9041 18.849C77.6608 18.9728 77.3956 19.0474 77.1235 19.0686C76.8514 19.0898 76.5778 19.0573 76.3183 18.9728C76.0588 18.8882 75.8185 18.7534 75.6111 18.5761C75.4037 18.3987 75.2332 18.1822 75.1095 17.9389C74.9857 17.6957 74.9111 17.4304 74.8899 17.1583C74.8687 16.8862 74.9013 16.6126 74.9858 16.3531C75.0703 16.0936 75.2051 15.8533 75.3825 15.6459L79.0982 11.3026C79.8049 10.4693 80.6706 9.78499 81.6447 9.28976C82.6187 8.79452 83.6816 8.49824 84.7714 8.41819C85.8601 8.3288 86.9556 8.45736 87.9939 8.79633C89.0323 9.13531 89.9926 9.67791 90.8188 10.3924C92.5021 11.8305 93.5287 13.8462 93.7032 16.0574C93.8778 18.2685 93.1754 20.4173 91.729 22.1089L86.2885 28.4804C86.0922 28.7079 85.849 28.8902 85.5757 29.015C85.3024 29.1399 85.0054 29.2042 84.7049 29.2036ZM45.79 124.689C45.4356 124.689 45.0871 124.599 44.7776 124.426C44.4681 124.253 44.208 124.004 44.0218 123.703C43.8356 123.401 43.7296 123.057 43.714 122.703C43.6983 122.349 43.7734 121.997 43.9321 121.68L48.0884 113.368C48.2611 113.023 48.5264 112.733 48.8545 112.53C49.1826 112.328 49.5606 112.221 49.9462 112.221C59.4433 112.221 62.0991 109.178 64.8131 104.876C65.1218 104.443 65.5848 104.144 66.1069 104.041C66.629 103.939 67.1706 104.04 67.6206 104.324C68.0706 104.608 68.3947 105.053 68.5265 105.569C68.6583 106.084 68.5878 106.631 68.3293 107.096C64.7757 112.723 60.7733 116.086 51.2388 116.36L47.6478 123.542C47.4751 123.887 47.2098 124.177 46.8817 124.379C46.5536 124.582 46.1756 124.689 45.79 124.689ZM68.6493 99.7518H47.8639C47.3128 99.7518 46.7842 99.5328 46.3945 99.1431C46.0048 98.7534 45.7858 98.2248 45.7858 97.6737C45.7858 97.1225 46.0048 96.5939 46.3945 96.2042C46.7842 95.8145 47.3128 95.5955 47.8639 95.5955H68.6493C72.0866 95.5955 74.8837 92.7984 74.8837 89.3612V84.1949C74.8837 83.6438 75.1027 83.1152 75.4924 82.7255C75.8821 82.3357 76.4107 82.1168 76.9618 82.1168C77.513 82.1168 78.0416 82.3357 78.4313 82.7255C78.821 83.1152 79.04 83.6438 79.04 84.1949V89.3612C79.04 95.0885 74.3767 99.7518 68.6493 99.7518Z" fill="white"/>
<path d="M22.9307 51.9551C22.3795 51.9551 21.8509 51.7361 21.4612 51.3464C21.0715 50.9567 20.8525 50.4281 20.8525 49.877V10.3926C20.8525 4.66527 25.5159 0.00195312 31.2432 0.00195312H68.6494C74.3767 0.00195312 79.04 4.66527 79.04 10.3926V37.3417C79.04 37.8929 78.8211 38.4214 78.4314 38.8112C78.0416 39.2009 77.5131 39.4198 76.9619 39.4198C76.4108 39.4198 75.8822 39.2009 75.4925 38.8112C75.1027 38.4214 74.8838 37.8929 74.8838 37.3417V10.3926C74.8838 6.95536 72.0866 4.1582 68.6494 4.1582H31.2432C27.8059 4.1582 25.0088 6.95536 25.0088 10.3926V49.877C25.0088 50.4281 24.7898 50.9567 24.4001 51.3464C24.0104 51.7361 23.4818 51.9551 22.9307 51.9551Z" fill="white"/>
<path d="M78.2627 52.4542C76.2802 52.4542 74.3642 51.7435 72.8638 50.4551C71.1805 49.017 70.1539 47.0012 69.9793 44.7901C69.8048 42.579 70.5072 40.4302 71.9535 38.7386L72.6144 37.8949C75.5736 34.4244 81.0391 34.0462 84.389 36.9181C86.0723 38.3562 87.0989 40.372 87.2735 42.5831C87.448 44.7942 86.7456 46.943 85.2993 48.6346L84.6384 49.4783C83.8565 50.4087 82.8808 51.157 81.7795 51.671C80.6783 52.185 79.478 52.4523 78.2627 52.4542ZM78.9818 39.0752C78.3812 39.0741 77.7877 39.2036 77.2422 39.4548C76.6968 39.706 76.2125 40.0729 75.823 40.5299L75.1622 41.3778C74.3849 42.288 74.0358 43.3645 74.1231 44.4701C74.2104 45.5756 74.7216 46.5814 75.5653 47.3005C76.4127 47.9918 77.4937 48.3304 78.5841 48.2461C79.6745 48.1617 80.6905 47.6609 81.4215 46.8474L82.0823 46.0037C82.8595 45.0935 83.2087 44.017 83.1214 42.9115C83.0341 41.8059 82.5229 40.8001 81.6792 40.081C80.9307 39.4316 79.9727 39.0744 78.9818 39.0752Z" fill="white"/>
<path d="M77.2491 69.1665C75.2665 69.1665 73.3505 68.4558 71.8501 67.1673C70.1668 65.7293 69.1402 63.7135 68.9656 61.5024C68.7911 59.2912 69.4935 57.1425 70.9399 55.4509L74.0986 51.8058C76.9456 48.4725 82.461 48.0278 85.8109 50.9039C87.4942 52.342 88.5208 54.3578 88.6954 56.5689C88.8699 58.78 88.1675 60.9288 86.7211 62.6204L83.5624 66.2654C82.7822 67.1764 81.8138 67.9075 80.7239 68.4083C79.634 68.9092 78.4485 69.1678 77.2491 69.1665ZM80.4078 53.061C79.8073 53.0599 79.2137 53.1894 78.6683 53.4406C78.1228 53.6918 77.6385 54.0586 77.2491 54.5157L74.0903 58.1649C73.736 58.5782 73.4672 59.0578 73.2995 59.5757C73.1319 60.0937 73.0687 60.6398 73.1136 61.1823C73.1546 61.7261 73.3033 62.2563 73.5508 62.7422C73.7984 63.228 74.14 63.6599 74.5558 64.0127C75.4032 64.7041 76.4842 65.0427 77.5746 64.9584C78.6649 64.874 79.681 64.3732 80.412 63.5597L83.5707 59.9147C83.925 59.5013 84.1938 59.0218 84.3615 58.5038C84.5291 57.9859 84.5923 57.4398 84.5474 56.8972C84.5064 56.3535 84.3577 55.8233 84.1102 55.3374C83.8626 54.8515 83.521 54.4197 83.1052 54.0668C82.3567 53.4174 81.3988 53.0602 80.4078 53.061Z" fill="white"/>
<path d="M77.0533 86.2732C75.0707 86.2732 73.1547 85.5625 71.6543 84.2741C69.971 82.836 68.9444 80.8202 68.7699 78.6091C68.5953 76.398 69.2977 74.2492 70.7441 72.5576L73.9028 68.9126C76.7457 65.5793 82.2652 65.1387 85.6152 68.0107C87.2984 69.4487 88.325 71.4645 88.4996 73.6756C88.6741 75.8868 87.9717 78.0355 86.5254 79.7271L83.3666 83.3722C82.5864 84.2832 81.618 85.0143 80.5281 85.5151C79.4382 86.0159 78.2527 86.2746 77.0533 86.2732ZM80.212 70.1678C79.6115 70.1666 79.0179 70.2961 78.4725 70.5473C77.927 70.7985 77.4428 71.1654 77.0533 71.6225L73.8945 75.2716C73.5402 75.685 73.2714 76.1645 73.1038 76.6825C72.9361 77.2004 72.8729 77.7465 72.9178 78.2891C72.9589 78.8328 73.1075 79.363 73.3551 79.8489C73.6026 80.3348 73.9442 80.7667 74.36 81.1195C76.0433 82.57 78.7906 82.3373 80.2162 80.6665L83.3749 77.0214C83.7293 76.6081 83.998 76.1285 84.1657 75.6106C84.3334 75.0926 84.3966 74.5465 84.3517 74.004C84.3106 73.4602 84.162 72.93 83.9144 72.4441C83.6668 71.9583 83.3252 71.5264 82.9094 71.1736C82.1609 70.5241 81.203 70.1669 80.212 70.1678ZM2.14934 124.689C1.79497 124.689 1.44648 124.599 1.13699 124.426C0.827515 124.254 0.567328 124.005 0.381157 123.703C0.194987 123.402 0.08902 123.057 0.0733278 122.703C0.0576355 122.349 0.132738 121.997 0.2915 121.68L10.3081 101.651L5.36628 85.9407C4.22747 82.3082 3.96147 76.5559 4.75947 72.8361L8.38787 55.9326L8.38372 35.4839C8.38372 34.9327 8.60266 34.4041 8.99239 34.0144C9.38211 33.6247 9.91069 33.4057 10.4618 33.4057L11.052 33.3766C12.9972 33.252 17.5649 32.9527 21.0021 36.1738C23.6621 38.6634 25.0087 42.67 25.0087 48.0815V66.6724C28.4709 69.2409 39.9795 79.0912 41.4301 97.5159C41.4395 98.046 41.2464 98.5598 40.8901 98.9524C40.5338 99.3451 40.0412 99.587 39.5126 99.6289C38.984 99.6708 38.4594 99.5095 38.0457 99.1778C37.632 98.8462 37.3604 98.3692 37.2863 97.8442C35.7817 78.7172 21.9497 69.5942 21.8084 69.5069C21.5162 69.3167 21.2758 69.0569 21.1089 68.7507C20.942 68.4445 20.8539 68.1017 20.8525 67.753V48.0815C20.8525 43.867 19.9464 40.8828 18.1592 39.2079C16.4884 37.6368 14.1858 37.4248 12.54 37.4622L12.5358 56.1529C12.5358 56.2984 12.5192 56.4438 12.4901 56.5893L8.81597 73.7089C8.17175 76.7222 8.4045 81.7512 9.32719 84.6939L14.5225 101.207C14.6843 101.721 14.6396 102.279 14.3978 102.761L4.00719 123.542C3.83443 123.887 3.56917 124.177 3.24106 124.38C2.91296 124.582 2.53495 124.689 2.14934 124.689ZM56.1806 12.4707H43.7118C43.1607 12.4707 42.6321 12.2518 42.2424 11.862C41.8527 11.4723 41.6337 10.9437 41.6337 10.3926C41.6337 9.84143 41.8527 9.31285 42.2424 8.92312C42.6321 8.5334 43.1607 8.31445 43.7118 8.31445H56.1806C56.7317 8.31445 57.2603 8.5334 57.6501 8.92312C58.0398 9.31285 58.2587 9.84143 58.2587 10.3926C58.2587 10.9437 58.0398 11.4723 57.6501 11.862C57.2603 12.2518 56.7317 12.4707 56.1806 12.4707ZM49.9878 62.3457C39.6761 62.3457 31.2847 53.9542 31.2847 43.6426C31.289 40.4777 32.0954 37.3656 33.6287 34.5969C35.162 31.8282 37.3721 29.4934 40.0525 27.8106C42.7328 26.1277 45.7961 25.1517 48.9559 24.9738C52.1158 24.7959 55.2692 25.4218 58.1216 26.7931C58.3785 26.9044 58.6103 27.0665 58.803 27.2696C58.9957 27.4727 59.1454 27.7127 59.2431 27.9751C59.3408 28.2375 59.3844 28.5169 59.3714 28.7966C59.3584 29.0763 59.289 29.3505 59.1674 29.6027C59.0458 29.8549 58.8745 30.0799 58.6637 30.2643C58.4529 30.4486 58.2071 30.5885 57.941 30.6754C57.6748 30.7624 57.3938 30.7947 57.1149 30.7703C56.836 30.746 56.5648 30.6655 56.3178 30.5338C54.0988 29.4663 51.6455 28.9789 49.187 29.1171C46.7285 29.2553 44.3453 30.0146 42.26 31.324C40.1746 32.6334 38.4553 34.4502 37.2628 36.6045C36.0703 38.7588 35.4435 41.1802 35.4409 43.6426C35.4251 47.4387 36.8939 51.0907 39.5337 53.8187C42.1735 56.5468 45.7752 58.1349 49.5698 58.2439C53.3644 58.353 57.0514 56.9743 59.8435 54.4023C62.6356 51.8303 64.3116 48.2688 64.5139 44.478C64.5447 43.9279 64.7928 43.4127 65.2036 43.0456C65.6144 42.6784 66.1542 42.4895 66.7042 42.5204C67.2543 42.5513 67.7695 42.7994 68.1367 43.2101C68.5038 43.6209 68.6927 44.1607 68.6618 44.7107C68.3891 49.4787 66.3027 53.9616 62.8306 57.2406C59.3584 60.5195 54.7635 62.3461 49.9878 62.3457Z" fill="white"/>
<path d="M49.9879 50.7077C49.4365 50.7078 48.9075 50.4897 48.5165 50.1009L42.2822 43.8665C41.9036 43.4746 41.6942 42.9497 41.6989 42.4048C41.7036 41.8599 41.9222 41.3387 42.3075 40.9534C42.6928 40.5681 43.214 40.3495 43.7589 40.3448C44.3038 40.3401 44.8287 40.5495 45.2206 40.9281L49.9837 45.6911L63.0593 32.6156C63.4512 32.237 63.9761 32.0276 64.521 32.0323C65.0659 32.037 65.5871 32.2556 65.9724 32.6409C66.3577 33.0262 66.5763 33.5474 66.581 34.0923C66.5857 34.6372 66.3763 35.1621 65.9977 35.554L51.4508 50.1009C51.2593 50.2939 51.0314 50.4469 50.7802 50.5511C50.5291 50.6552 50.2597 50.7085 49.9879 50.7077ZM76.9619 124.689H27.0869C26.5358 124.689 26.0072 124.47 25.6175 124.08C25.2277 123.691 25.0088 123.162 25.0088 122.611C25.0088 122.06 25.2277 121.531 25.6175 121.141C26.0072 120.752 26.5358 120.533 27.0869 120.533H76.9619C77.5131 120.533 78.0416 120.752 78.4314 121.141C78.8211 121.531 79.04 122.06 79.04 122.611C79.04 123.162 78.8211 123.691 78.4314 124.08C78.0416 124.47 77.5131 124.689 76.9619 124.689ZM85.69 124.689H85.2703C84.7191 124.689 84.1905 124.47 83.8008 124.08C83.4111 123.691 83.1921 123.162 83.1921 122.611C83.1921 122.06 83.4111 121.531 83.8008 121.141C84.1905 120.752 84.7191 120.533 85.2703 120.533H85.69C86.2412 120.533 86.7698 120.752 87.1595 121.141C87.5492 121.531 87.7682 122.06 87.7682 122.611C87.7682 123.162 87.5492 123.691 87.1595 124.08C86.7698 124.47 86.2412 124.689 85.69 124.689Z" fill="white"/>
</svg>
