<svg width="448" height="449" viewBox="0 0 448 449" fill="none" xmlns="http://www.w3.org/2000/svg">
<path d="M402.584 0H130.48C128.359 0 126.324 0.842856 124.823 2.34315C123.323 3.84344 122.48 5.87827 122.48 8C122.48 10.1217 123.323 12.1566 124.823 13.6569C126.324 15.1571 128.359 16 130.48 16H402.584C410.383 16.0064 417.86 19.1065 423.375 24.6199C428.89 30.1334 431.992 37.6097 432 45.408V317.528C432 319.65 432.843 321.685 434.343 323.185C435.844 324.685 437.879 325.528 440 325.528C442.122 325.528 444.157 324.685 445.657 323.185C447.157 321.685 448 319.65 448 317.528V45.408C447.986 33.3682 443.196 21.8259 434.681 13.3132C426.167 4.80057 414.624 0.0127023 402.584 0ZM408.24 359.52C407.502 358.756 406.62 358.146 405.644 357.727C404.668 357.308 403.618 357.087 402.556 357.078C401.493 357.069 400.44 357.271 399.457 357.673C398.474 358.076 397.58 358.67 396.829 359.421C396.078 360.172 395.484 361.065 395.082 362.048C394.68 363.032 394.477 364.085 394.486 365.147C394.496 366.209 394.716 367.259 395.136 368.235C395.555 369.211 396.164 370.094 396.928 370.832L420.688 394.592H82.8243C75.0261 394.584 67.5497 391.481 62.0363 385.966C56.5228 380.451 53.4227 372.974 53.4163 365.176V27.312L77.1683 51.072C78.6695 52.5721 80.705 53.4144 82.8272 53.4136C84.9493 53.4129 86.9843 52.5691 88.4843 51.068C89.9844 49.5669 90.8267 47.5313 90.826 45.4092C90.8252 43.287 89.9815 41.2521 88.4803 39.752L51.0723 2.344C49.5721 0.844233 47.5376 0.00170898 45.4163 0.00170898C43.295 0.00170898 41.2606 0.844233 39.7603 2.344L2.34433 39.752C0.887066 41.2608 0.0807079 43.2816 0.0989352 45.3792C0.117163 47.4768 0.958516 49.4833 2.44178 50.9665C3.92505 52.4498 5.93154 53.2912 8.02912 53.3094C10.1267 53.3276 12.1475 52.5213 13.6563 51.064L37.4163 27.304V365.176C37.4269 377.216 42.2141 388.761 50.7272 397.275C59.2404 405.79 70.7839 410.579 82.8243 410.592H420.688L396.928 434.344C396.164 435.082 395.555 435.965 395.136 436.941C394.716 437.917 394.496 438.967 394.486 440.029C394.477 441.091 394.68 442.144 395.082 443.128C395.484 444.111 396.078 445.004 396.829 445.755C397.58 446.506 398.474 447.1 399.457 447.503C400.44 447.905 401.493 448.107 402.556 448.098C403.618 448.089 404.668 447.868 405.644 447.449C406.62 447.03 407.502 446.42 408.24 445.656L445.656 408.248C447.156 406.748 447.999 404.713 447.999 402.592C447.999 400.471 447.156 398.436 445.656 396.936L408.24 359.52Z" fill="#343434"/>
<path d="M142.368 129.96C140.246 129.96 138.212 130.802 136.711 132.303C135.211 133.803 134.368 135.838 134.368 137.96V293.288C134.368 295.409 135.211 297.444 136.711 298.944C138.212 300.445 140.246 301.288 142.368 301.288C144.49 301.288 146.525 300.445 148.025 298.944C149.525 297.444 150.368 295.409 150.368 293.288V177.56C150.368 170.685 153.099 164.092 157.96 159.231C162.821 154.37 169.414 151.64 176.288 151.64C183.163 151.64 189.755 154.37 194.616 159.231C199.477 164.092 202.208 170.685 202.208 177.56V293.288C202.208 295.409 203.051 297.444 204.551 298.944C206.052 300.445 208.086 301.288 210.208 301.288C212.33 301.288 214.365 300.445 215.865 298.944C217.365 297.444 218.208 295.409 218.208 293.288V177.56C218.328 170.765 221.11 164.289 225.958 159.526C230.805 154.764 237.329 152.095 244.124 152.095C250.92 152.095 257.443 154.764 262.291 159.526C267.138 164.289 269.921 170.765 270.04 177.56V293.288C270.04 295.409 270.883 297.444 272.383 298.944C273.884 300.445 275.918 301.288 278.04 301.288C280.162 301.288 282.197 300.445 283.697 298.944C285.197 297.444 286.04 295.409 286.04 293.288V177.56C286.059 168.693 283.26 160.05 278.047 152.879C272.834 145.707 265.477 140.377 257.037 137.659C248.598 134.941 239.513 134.976 231.094 137.758C222.676 140.539 215.359 145.924 210.2 153.136C206.932 148.511 202.749 144.607 197.911 141.665C193.072 138.722 187.681 136.804 182.072 136.03C176.462 135.255 170.753 135.64 165.299 137.161C159.844 138.682 154.76 141.306 150.36 144.872V137.96C150.36 135.838 149.517 133.803 148.017 132.303C146.517 130.802 144.49 129.96 142.368 129.96ZM370.192 133.712C373.695 128.558 375.57 122.471 375.576 116.24C375.576 107.893 372.26 99.8877 366.358 93.9855C360.456 88.0834 352.451 84.7676 344.104 84.7676C335.757 84.7676 327.752 88.0834 321.85 93.9855C315.948 99.8877 312.632 107.893 312.632 116.24C312.632 118.361 313.475 120.396 314.975 121.896C316.476 123.397 318.51 124.24 320.632 124.24C322.754 124.24 324.789 123.397 326.289 121.896C327.789 120.396 328.632 118.361 328.632 116.24C328.632 112.136 330.262 108.201 333.164 105.299C336.065 102.398 340.001 100.768 344.104 100.768C348.208 100.768 352.143 102.398 355.045 105.299C357.946 108.201 359.576 112.136 359.576 116.24C359.585 119.166 358.737 122.03 357.136 124.48L319.712 164.64C318.231 166.221 317.245 168.202 316.874 170.337C316.503 172.472 316.764 174.669 317.625 176.657C318.486 178.646 319.909 180.34 321.72 181.53C323.53 182.721 325.649 183.357 327.816 183.36H366.832C368.954 183.36 370.989 182.517 372.489 181.016C373.989 179.516 374.832 177.481 374.832 175.36C374.832 173.238 373.989 171.203 372.489 169.703C370.989 168.202 368.954 167.36 366.832 167.36H339.136L367.8 136.872C368.008 136.648 370.2 133.712 370.2 133.712H370.192Z" fill="#343434"/>
</svg>
