<svg width="115" height="116" viewBox="0 0 115 116" fill="none" xmlns="http://www.w3.org/2000/svg">
<path d="M21.9423 44.2224C33.4733 44.2224 42.9555 35.2815 43.8202 23.968H61.5268L57.6566 27.838L60.0437 30.2251L67.9886 22.2802L60.0437 14.335L57.6566 16.7221L61.5268 20.5923H43.8202C42.9555 9.27886 33.4733 0.337891 21.9423 0.337891C9.84319 0.337891 0 10.1811 0 22.2802C0 34.3792 9.84319 44.2224 21.9423 44.2224ZM21.9423 3.71362C32.18 3.71362 40.5088 12.0427 40.5088 22.2802C40.5088 32.5176 32.18 40.8467 21.9423 40.8467C11.7046 40.8467 3.37573 32.5176 3.37573 22.2802C3.37573 12.0427 11.7046 3.71362 21.9423 3.71362ZM10.6898 88.332H13.5029V98.4592H10.6898V101.835H33.1947V98.4592H30.3816V88.332H33.1947V84.9563H10.6898V88.332ZM23.6301 88.332H27.0059V98.4592H23.6301V88.332ZM16.8787 88.332H20.2544V98.4592H16.8787V88.332Z" fill="#23C7EF"/>
<path d="M91.3696 44.1581V47.2606C91.3696 48.8119 90.1077 50.0737 88.5564 50.0737H26.443C23.0303 50.0737 20.2541 52.8501 20.2541 56.2626V61.8647L16.3839 57.9945L13.9971 60.3816L21.942 68.3265L29.8869 60.3816L27.5 57.9945L23.6298 61.8647V56.2626C23.6298 54.7113 24.8917 53.4494 26.443 53.4494H88.5564C91.9689 53.4494 94.7453 50.673 94.7453 47.2606V44.1581C106.059 43.2934 115 33.8112 115 22.2802C115 10.1811 105.157 0.337891 93.0574 0.337891C80.9584 0.337891 71.1152 10.1811 71.1152 22.2802C71.1152 33.8114 80.0561 43.2934 91.3696 44.1581ZM93.0574 3.71362C103.295 3.71362 111.624 12.0427 111.624 22.2802C111.624 32.5176 103.295 40.8467 93.0574 40.8467C82.82 40.8467 74.4909 32.5176 74.4909 22.2802C74.4909 12.0427 82.82 3.71362 93.0574 3.71362ZM93.0574 71.4534C80.9584 71.4534 71.1152 81.2965 71.1152 93.3956C71.1152 105.495 80.9584 115.338 93.0574 115.338C105.157 115.338 115 105.495 115 93.3956C115 81.2965 105.157 71.4534 93.0574 71.4534ZM93.0574 111.962C82.82 111.962 74.4909 103.633 74.4909 93.3956C74.4909 83.1581 82.82 74.8291 93.0574 74.8291C103.295 74.8291 111.624 83.1581 111.624 93.3956C111.624 103.633 103.295 111.962 93.0574 111.962Z" fill="#23C7EF"/>
<path d="M100.934 27.3438H98.1213V17.2166H100.934V13.8408H85.181V17.2166H87.9941V27.3438H85.181V30.7195H100.934V27.3438ZM94.7456 27.3438H91.3699V17.2166H94.7456V27.3438ZM27.1184 27.3438H23.6301V17.2166H27.1184V13.8408H16.7661V17.2166H20.2544V27.3438H16.7661V30.7195H27.1184V27.3438ZM81.3552 88.332H84.1683V98.4592H81.3552V101.835H104.76V98.4592H98.5874L102.132 88.332H104.76V84.9563H81.3552V88.332ZM98.5554 88.332L95.9834 95.6808L93.4113 88.332H98.5554ZM87.544 88.332H89.8348L93.3793 98.4592H87.544V88.332ZM57.6569 87.8378L61.5268 91.7077H43.8202C42.9555 80.3943 33.4733 71.4533 21.9423 71.4533C9.84319 71.4533 0 81.2965 0 93.3956C0 105.495 9.84319 115.338 21.9423 115.338C33.4733 115.338 42.9555 106.397 43.8202 95.0835H61.5268L57.6566 98.9534L60.0437 101.341L67.9886 93.3954L60.0437 85.4503L57.6569 87.8378ZM21.9423 111.962C11.7046 111.962 3.37573 103.633 3.37573 93.3956C3.37573 83.1581 11.7046 74.8291 21.9423 74.8291C32.18 74.8291 40.5088 83.1581 40.5088 93.3956C40.5088 103.633 32.18 111.962 21.9423 111.962Z" fill="#23C7EF"/>
</svg>
