<svg width="29" height="30" viewBox="0 0 29 30" fill="none" xmlns="http://www.w3.org/2000/svg">
<path d="M25.9648 21.9001C25.4628 21.5267 24.7532 21.631 24.3798 22.1329C24.1734 22.4102 23.9554 22.6787 23.7265 22.9377C23.3122 23.4064 23.3562 24.1224 23.8249 24.5368C24.0317 24.7201 24.2985 24.8212 24.5748 24.8209C24.8881 24.8209 25.2001 24.6916 25.4239 24.4383C25.695 24.1316 25.9531 23.8136 26.1975 23.4851C26.571 22.9832 26.4668 22.2735 25.9648 21.9001ZM27.8593 16.5875C27.2484 16.4545 26.6445 16.8422 26.5115 17.4535C26.438 17.7909 26.3502 18.125 26.2483 18.4549C26.0636 19.0527 26.3985 19.687 26.9962 19.8717C27.1076 19.9061 27.2202 19.9224 27.331 19.9224C27.8147 19.9224 28.2626 19.6101 28.413 19.1237C28.5339 18.7322 28.6381 18.3357 28.7253 17.9354C28.8583 17.3241 28.4706 16.7206 27.8593 16.5875ZM20.5122 25.5281C20.2104 25.6965 19.9016 25.8521 19.5867 25.9945C19.0165 26.252 18.763 26.9229 19.0205 27.4931C19.2097 27.912 19.6219 28.16 20.0535 28.16C20.2094 28.16 20.3678 28.1276 20.5191 28.0593C20.8926 27.8905 21.2588 27.706 21.6167 27.5063C22.163 27.2013 22.3585 26.5112 22.0535 25.965C21.7486 25.4188 21.0585 25.2232 20.5122 25.5281ZM13.3676 5.77563V14.3689L9.21361 18.5228C8.77125 18.9653 8.77125 19.6825 9.21361 20.1249C9.31868 20.2302 9.44355 20.3138 9.58102 20.3707C9.7185 20.4277 9.86588 20.4569 10.0147 20.4567C10.1635 20.4568 10.3108 20.4276 10.4483 20.3707C10.5858 20.3137 10.7107 20.2302 10.8157 20.1249L15.3015 15.6391C15.5139 15.4267 15.6332 15.1386 15.6332 14.8381V5.77563C15.6332 5.14998 15.126 4.64282 14.5004 4.64282C13.8747 4.64282 13.3676 5.14998 13.3676 5.77563Z" fill="white"/>
<path d="M27.8672 2.77368C27.2415 2.77368 26.7344 3.28084 26.7344 3.90649V7.05209C24.0976 2.91687 19.4929 0.338135 14.5 0.338135C10.6269 0.338135 6.98566 1.84642 4.24691 4.58505C1.50828 7.32379 0 10.965 0 14.8381C0 18.7112 1.50828 22.3525 4.24691 25.0912C6.98566 27.8299 10.6269 29.3381 14.5 29.3381C14.5096 29.3381 14.5188 29.3369 14.5283 29.3367C14.5378 29.3369 14.5471 29.3381 14.5566 29.3381C14.9649 29.3381 15.3772 29.3209 15.7822 29.287C16.4056 29.2348 16.8687 28.6871 16.8165 28.0637C16.7643 27.4402 16.2173 26.9769 15.5931 27.0294C15.2508 27.058 14.9021 27.0725 14.5566 27.0725C14.5471 27.0725 14.5378 27.0737 14.5283 27.0739C14.5188 27.0737 14.5096 27.0725 14.5 27.0725C7.75393 27.0725 2.26562 21.5842 2.26562 14.8381C2.26562 8.09207 7.75393 2.60376 14.5 2.60376C18.8476 2.60376 22.8464 4.9211 25.0315 8.60767H21.9167C21.291 8.60767 20.7839 9.11483 20.7839 9.74048C20.7839 10.3661 21.291 10.8733 21.9167 10.8733H25.375C26.0401 10.8741 26.6925 10.6907 27.2598 10.3435C27.2949 10.3236 27.3288 10.3018 27.3616 10.2783C28.3474 9.62969 29 8.51404 29 7.24829V3.90649C29 3.28084 28.4928 2.77368 27.8672 2.77368Z" fill="white"/>
</svg>
