<svg width="60" height="77" viewBox="0 0 60 77" fill="none" xmlns="http://www.w3.org/2000/svg">
<path d="M12.9433 33.1804L19.8829 24.8317C19.9763 24.7193 20.0467 24.5895 20.09 24.4499C20.1333 24.3102 20.1487 24.1634 20.1353 24.0179C20.1219 23.8723 20.0799 23.7308 20.0118 23.6014C19.9437 23.472 19.8507 23.3574 19.7383 23.2639C19.5112 23.0752 19.2185 22.9844 18.9245 23.0115C18.6304 23.0387 18.3592 23.1814 18.1705 23.4085L12.222 30.5648L10.9218 28.4528C10.7671 28.2014 10.5187 28.0217 10.2315 27.9534C9.94426 27.885 9.64164 27.9336 9.39019 28.0883C9.13875 28.2431 8.95909 28.4914 8.89073 28.7787C8.82238 29.0659 8.87093 29.3686 9.0257 29.62L11.1389 33.0523C11.5385 33.701 12.4567 33.7659 12.9433 33.1804ZM9.026 44.3153L11.1392 47.7476C11.5385 48.3963 12.4567 48.4612 12.9433 47.8756L19.8829 39.5269C19.9763 39.4144 20.0467 39.2847 20.09 39.145C20.1333 39.0054 20.1487 38.8586 20.1353 38.713C20.1219 38.5674 20.0799 38.4259 20.0118 38.2966C19.9437 38.1672 19.8507 38.0525 19.7383 37.9591C19.6259 37.8656 19.4961 37.7952 19.3565 37.7519C19.2168 37.7086 19.07 37.6932 18.9244 37.7067C18.7789 37.7201 18.6374 37.7621 18.508 37.8302C18.3786 37.8983 18.2639 37.9912 18.1705 38.1036L12.222 45.26L10.9218 43.148C10.8452 43.0235 10.7448 42.9153 10.6263 42.8297C10.5079 42.744 10.3737 42.6825 10.2315 42.6487C10.0893 42.6148 9.94179 42.6094 9.79745 42.6325C9.65311 42.6557 9.51475 42.7071 9.39027 42.7837C9.26578 42.8604 9.15761 42.9608 9.07194 43.0792C8.98626 43.1977 8.92476 43.3319 8.89093 43.4741C8.85711 43.6163 8.85163 43.7638 8.8748 43.9081C8.89798 44.0525 8.94935 44.1908 9.026 44.3153ZM9.026 59.1096L11.1392 62.542C11.5385 63.1906 12.4567 63.2555 12.9433 62.6699L19.8829 54.3212C20.0716 54.0941 20.1624 53.8014 20.1353 53.5073C20.1082 53.2133 19.9654 52.9421 19.7383 52.7534C19.6259 52.6599 19.4961 52.5895 19.3565 52.5462C19.2168 52.5029 19.07 52.4875 18.9244 52.501C18.6304 52.5281 18.3592 52.6709 18.1705 52.898L12.222 60.0543L10.9218 57.9423C10.8461 57.8159 10.7461 57.7058 10.6275 57.6184C10.5089 57.5309 10.3741 57.4679 10.231 57.4329C10.0879 57.398 9.93921 57.3918 9.79366 57.4147C9.64812 57.4376 9.50856 57.4892 9.3831 57.5664C9.25763 57.6437 9.14875 57.745 9.06276 57.8647C8.97677 57.9843 8.91539 58.1199 8.88217 58.2634C8.84896 58.407 8.84457 58.5557 8.86926 58.7009C8.89394 58.8462 8.94722 58.9851 9.026 59.1096Z" fill="black"/>
<path d="M58.2617 63.525C57.9665 63.525 57.6833 63.6423 57.4745 63.851C57.2657 64.0598 57.1484 64.343 57.1484 64.6382V72.7422C57.1484 73.6834 56.3826 74.4492 55.4414 74.4492H3.93359C2.99235 74.4492 2.22656 73.6834 2.22656 72.7422V23.9521C2.22656 23.3371 1.72811 22.8388 1.11328 22.8388C0.498453 22.8388 0 23.3371 0 23.9521V72.7422C0 74.9112 1.76462 76.6758 3.93359 76.6758H55.4414C57.6104 76.6758 59.375 74.9112 59.375 72.7422V64.6382C59.375 64.343 59.2577 64.0598 59.0489 63.851C58.8401 63.6423 58.557 63.525 58.2617 63.525ZM55.4414 9.25413H49.9955V4.65391C49.9955 2.46045 48.211 0.675781 46.0174 0.675781C43.8238 0.675781 42.0393 2.4603 42.0393 4.65391V9.25413H33.6656V4.65391C33.6656 2.4603 31.881 0.675781 29.6875 0.675781C27.494 0.675781 25.7094 2.4603 25.7094 4.65391V9.25413H17.3356V4.65391C17.3356 2.46045 15.5511 0.675781 13.3574 0.675781C11.164 0.675781 9.37932 2.4603 9.37932 4.65391V9.25413H3.93359C1.76462 9.25413 0 11.0188 0 13.1877V18.7568C0 19.3718 0.498453 19.8701 1.11328 19.8701C1.72811 19.8701 2.22656 19.3718 2.22656 18.7568V13.1877C2.22656 12.2465 2.99235 11.4807 3.93359 11.4807H9.37932V13.2484C9.37932 15.4419 11.1638 17.2266 13.3574 17.2266C15.5511 17.2266 17.3356 15.442 17.3356 13.2484V11.4807H25.7094V13.2484C25.7094 15.4419 27.4939 17.2266 29.6875 17.2266C31.8811 17.2266 33.6656 15.442 33.6656 13.2484V11.4807H42.0394V13.2484C42.0394 15.4419 43.8239 17.2266 46.0176 17.2266C48.211 17.2266 49.9957 15.442 49.9957 13.2484V11.4807H55.4414C56.3826 11.4807 57.1484 12.2465 57.1484 13.1877V59.4429C57.1484 60.0579 57.6469 60.5562 58.2617 60.5562C58.8765 60.5562 59.375 60.0579 59.375 59.4429V13.1877C59.375 11.0188 57.6104 9.25413 55.4414 9.25413ZM15.1092 13.2484C15.1092 14.2143 14.3235 15 13.3576 15C12.3919 15 11.606 14.2143 11.606 13.2484V4.65391C11.606 3.68802 12.3917 2.90234 13.3576 2.90234C14.3235 2.90234 15.1092 3.68802 15.1092 4.65391V13.2484ZM31.4391 13.2484C31.4391 14.2143 30.6534 15 29.6875 15C28.7216 15 27.9359 14.2143 27.9359 13.2484V4.65391C27.9359 3.68802 28.7216 2.90234 29.6875 2.90234C30.6534 2.90234 31.4391 3.68802 31.4391 4.65391V13.2484ZM47.7691 13.2484C47.7691 14.2143 46.9834 15 46.0176 15C45.0517 15 44.266 14.2143 44.266 13.2484V4.65391C44.266 3.68802 45.0517 2.90234 46.0176 2.90234C46.9833 2.90234 47.7691 3.68802 47.7691 4.65391V13.2484Z" fill="black"/>
<path d="M24.6016 34.1016H48.0547C49.9781 34.1016 51.543 32.5367 51.543 30.6133C51.543 28.6898 49.9781 27.125 48.0547 27.125H24.6016C22.6781 27.125 21.1133 28.6898 21.1133 30.6133C21.1133 32.5367 22.6781 34.1016 24.6016 34.1016ZM24.6016 29.3516H48.0547C48.7504 29.3516 49.3164 29.9176 49.3164 30.6133C49.3164 31.309 48.7504 31.875 48.0547 31.875H24.6016C23.9058 31.875 23.3398 31.309 23.3398 30.6133C23.3398 29.9176 23.9058 29.3516 24.6016 29.3516ZM24.6016 48.8285H48.0547C49.9781 48.8285 51.543 47.2637 51.543 45.3402C51.543 43.4168 49.9781 41.8519 48.0547 41.8519H24.6016C22.6781 41.8519 21.1133 43.4168 21.1133 45.3402C21.1133 47.2637 22.6781 48.8285 24.6016 48.8285ZM24.6016 44.0785H48.0547C48.7504 44.0785 49.3164 44.6445 49.3164 45.3402C49.3164 46.0359 48.7504 46.6019 48.0547 46.6019H24.6016C23.9058 46.6019 23.3398 46.0359 23.3398 45.3402C23.3398 44.6445 23.9058 44.0785 24.6016 44.0785ZM24.6016 63.5553H48.0547C49.9781 63.5553 51.543 61.9904 51.543 60.067C51.543 58.1435 49.9781 56.5787 48.0547 56.5787H24.6016C22.6781 56.5787 21.1133 58.1435 21.1133 60.067C21.1133 61.9904 22.6781 63.5553 24.6016 63.5553ZM24.6016 58.8053H48.0547C48.7504 58.8053 49.3164 59.3713 49.3164 60.067C49.3164 60.7627 48.7504 61.3287 48.0547 61.3287H24.6016C23.9058 61.3287 23.3398 60.7627 23.3398 60.067C23.3398 59.3713 23.9058 58.8053 24.6016 58.8053Z" fill="black"/>
</svg>
