<svg width="126" height="126" viewBox="0 0 126 126" fill="none" xmlns="http://www.w3.org/2000/svg">
<path d="M119.352 4.38387H100.531C99.1177 4.38399 97.7486 4.87937 96.6621 5.78395C95.5755 6.68852 94.8402 7.94513 94.5839 9.33548L91.8701 24.0694C90.0437 21.669 87.5446 19.8661 84.6907 18.8899C83.9041 16.5003 82.5592 14.3326 80.7675 12.5665C78.9758 10.8004 76.789 9.48685 74.3883 8.73467L72.5576 5.07338C71.8522 3.65116 70.7624 2.45498 69.4119 1.62043C68.0614 0.785884 66.5041 0.346337 64.9165 0.351609C61.8036 0.351609 58.9911 2.00484 57.477 4.69637C55.0571 5.45247 52.8543 6.77868 51.0537 8.56345C49.2532 10.3482 47.9076 12.5393 47.1302 14.9524C45.1869 15.773 43.4616 17.0354 42.0914 18.6393C40.7212 20.2433 39.7439 22.1446 39.2371 24.1923L39.0476 24.9544C36.5335 25.8142 34.2881 27.3168 32.5345 29.313C30.781 31.3092 29.5802 33.7295 29.0516 36.3335L28.9891 36.6419H28.6262C26.4024 36.6419 24.5939 38.4504 24.5939 40.6742V44.7064C24.5939 46.9302 26.4024 48.7387 28.6262 48.7387H28.8177L30.4649 65.2085C28.4637 65.7784 26.7612 67.1015 25.7149 68.9H24.1161L13.3439 29.4C12.9618 28.0069 12.1333 26.7776 10.9854 25.9007C9.83752 25.0237 8.43364 24.5475 6.9891 24.5452C5.24232 24.5473 3.5677 25.2421 2.33254 26.4773C1.09738 27.7125 0.402525 29.3871 0.400391 31.1339L0.400391 32.0189C0.400391 32.5855 0.472971 33.152 0.616116 33.6964L9.88023 68.9H8.46491C6.24112 68.9 4.43265 70.7085 4.43265 72.9323V76.9645C4.43265 79.1883 6.24112 80.9968 8.46491 80.9968H8.55362L10.3076 119.579C10.3763 121.135 11.0432 122.604 12.1691 123.68C13.295 124.755 14.7929 125.354 16.35 125.352H113.304C115.527 125.352 117.336 123.543 117.336 121.319V105.19C117.336 102.967 115.527 101.158 113.304 101.158H101.207V85.029C101.207 82.8052 99.3984 80.9968 97.1746 80.9968H93.5556L104.896 20.5129H119.352C122.687 20.5129 125.4 17.7992 125.4 14.4645V10.4323C125.4 7.09758 122.687 4.38387 119.352 4.38387ZM41.2109 28.5169L42.3863 28.2226L43.1484 25.1702C43.536 23.6018 44.315 22.1573 45.4126 20.9719C46.5103 19.7865 47.8906 18.8988 49.4246 18.3919L50.475 18.0431L50.7431 16.9685C51.2616 14.8863 52.3372 12.9844 53.8546 11.4671C55.3719 9.94971 57.2738 8.87411 59.356 8.35564L60.2552 8.13185L60.8843 6.8758C61.6524 5.33951 63.1968 4.38387 64.9165 4.38387C66.6363 4.38387 68.1806 5.33951 68.9488 6.8758L71.5939 12.1621L72.4931 12.3859C74.5756 12.9039 76.4777 13.9794 77.9951 15.4968C79.5125 17.0142 80.588 18.9163 81.106 20.9988L81.4004 22.1742L82.5758 22.4665C84.5365 22.9675 86.3245 23.9915 87.7487 25.4292C89.1729 26.867 90.18 28.6644 90.6625 30.6298L89.5536 36.6419H33.1383C33.6239 34.6845 34.631 32.8952 36.0524 31.4645C37.4739 30.0338 39.2566 29.0152 41.2109 28.5169ZM28.6262 40.6742H88.8117L88.0697 44.7064H28.6262V40.6742ZM87.3258 48.7387L81.3843 80.9968H68.9488C66.725 80.9968 64.9165 82.8052 64.9165 85.029V101.158H55.846L56.7633 80.9968H56.852C59.0758 80.9968 60.8843 79.1883 60.8843 76.9645V72.9323C60.8843 70.7085 59.0758 68.9 56.852 68.9H39.602C39.0549 67.9544 38.321 67.13 37.4452 66.477C36.5693 65.824 35.5697 65.356 34.5072 65.1016L32.8701 48.7387H87.3258ZM40.723 72.9323H56.852V76.9645H39.602C40.3277 75.7441 40.7146 74.3521 40.723 72.9323ZM32.6585 68.9C34.8822 68.9 36.6907 70.7085 36.6907 72.9323C36.6907 75.156 34.8822 76.9645 32.6585 76.9645C30.4347 76.9645 28.6262 75.156 28.6262 72.9323C28.6262 70.7085 30.4347 68.9 32.6585 68.9ZM4.51733 32.6661C4.46071 32.4551 4.43224 32.2375 4.43265 32.0189V31.1339C4.43657 30.517 4.66322 29.9224 5.07086 29.4594C5.4785 28.9964 6.03968 28.6963 6.65106 28.6144C7.26244 28.5324 7.88285 28.6741 8.39805 29.0133C8.91325 29.3525 9.28855 29.8665 9.45483 30.4605L19.9387 68.9H14.0516L4.51733 32.6661ZM8.46491 72.9323H24.5939C24.5939 74.4081 25.0214 75.773 25.7149 76.9645H8.46491V72.9323ZM30.4266 80.9968C29.0718 92.7246 23.1685 103.221 13.9286 110.438L12.5919 80.9968H30.4266ZM16.35 121.319C15.831 121.32 15.3317 121.121 14.9564 120.762C14.5811 120.404 14.3588 119.914 14.3359 119.396L14.1484 115.279C19.8172 111.377 24.5712 106.291 28.0821 100.372C31.593 94.453 33.7769 87.8423 34.4831 80.9968H52.727L51.8036 101.303C50.9422 101.527 50.1792 102.03 49.6336 102.733C49.088 103.436 48.7905 104.3 48.7875 105.19V121.319H16.35ZM52.8197 105.19H81.0455V121.319H52.8197V105.19ZM113.306 121.319H85.0778V105.19H113.304L113.306 121.319ZM97.1746 101.158H68.9488V85.029H97.1746V101.158ZM89.4528 80.9968H85.4831L96.6242 20.5129H100.794L89.4528 80.9968ZM121.368 14.4645C121.368 15.5774 120.463 16.4806 119.352 16.4806H97.3681L98.5496 10.0653C98.6353 9.60223 98.8804 9.18376 99.2424 8.88252C99.6044 8.58127 100.06 8.41627 100.531 8.41613H119.352C120.463 8.41613 121.368 9.31935 121.368 10.4323V14.4645Z" fill="white"/>
<path d="M56.8521 20.5128H60.8844C60.8844 18.289 62.6929 16.4805 64.9167 16.4805V12.4482C60.4691 12.4482 56.8521 16.0652 56.8521 20.5128ZM44.7554 32.6095H48.7876C48.7876 30.3857 50.5961 28.5773 52.8199 28.5773V24.545C48.3723 24.545 44.7554 28.162 44.7554 32.6095ZM72.9812 24.545V28.5773C75.205 28.5773 77.0134 30.3857 77.0134 32.6095H81.0457C81.0457 28.162 77.4288 24.545 72.9812 24.545Z" fill="white"/>
</svg>
