<svg viewBox="0 0 48 49" fill="none" xmlns="http://www.w3.org/2000/svg">
<path d="M24 0.5C37.2548 0.5 48 11.2452 48 24.5C48 37.7548 37.2548 48.5 24 48.5C10.7452 48.5 0 37.7548 0 24.5C0 11.2452 10.7452 0.5 24 0.5Z" fill="#7F4DA0"/>
<path d="M30.3939 21.4584C30.2771 20.5101 29.9857 19.7655 29.4681 19.1059C28.7959 18.2566 27.937 17.7481 26.6653 17.4464C25.8365 17.2453 25.5017 17.2684 25.202 17.5422C24.9228 17.7987 24.8683 18.3129 25.0816 18.646C25.2317 18.8877 25.4048 18.9742 25.8862 19.0687C26.5273 19.1867 26.9704 19.3398 27.3734 19.5702C28.2288 20.0642 28.6272 20.8371 28.6699 22.0885C28.6898 22.676 28.7405 22.8566 28.9458 23.065C29.3261 23.4459 30.003 23.3719 30.2902 22.916C30.3955 22.7442 30.4116 22.6694 30.4227 22.2705C30.4301 22.0235 30.4194 21.6558 30.3939 21.4584Z" fill="white"/>
<path d="M33.7443 22.5277C33.5753 19.6223 32.439 17.2848 30.4052 15.6402C29.2593 14.716 27.8742 14.0806 26.3559 13.7716C25.7998 13.661 24.7758 13.5715 24.6001 13.6227C24.4344 13.6702 24.1999 13.8496 24.0954 14.012C23.9849 14.188 23.96 14.581 24.0543 14.8083C24.2064 15.1883 24.4895 15.3226 25.2822 15.392C26.5043 15.4989 27.7648 15.9282 28.7173 16.5639C29.8046 17.2876 30.6689 18.2775 31.2281 19.4407C31.7112 20.4402 32.0084 21.8805 32.0001 23.1703C31.9974 23.6367 32.0694 23.9002 32.257 24.0928C32.5402 24.3889 32.9529 24.4537 33.3172 24.257C33.7209 24.0447 33.8154 23.672 33.7443 22.5277Z" fill="white"/>
<path d="M37.4521 33.7163C37.3953 33.5502 37.2627 33.2941 37.1679 33.147C36.5711 32.2457 33.3644 29.7362 31.7634 28.9155C30.8492 28.4459 30.1719 28.2894 29.6698 28.4363C29.1298 28.5882 28.8456 28.8396 27.9408 29.9639C27.5762 30.4146 27.202 30.8368 27.1025 30.9032C26.8562 31.074 26.373 31.2116 26.032 31.2116C25.241 31.2068 23.8057 30.6945 22.7021 30.0208C21.8447 29.499 20.7459 28.5645 19.9027 27.6394C18.908 26.5531 18.2307 25.5948 17.6954 24.5132C17.0039 23.1233 16.8286 22.2741 17.1175 21.6526C17.1886 21.4961 17.2833 21.3301 17.3259 21.2779C17.3686 21.2305 17.8138 20.8652 18.3064 20.4667C19.2727 19.6982 19.429 19.5227 19.609 18.9961C19.8364 18.3272 19.7748 17.6441 19.4243 16.9563C19.1543 16.4344 18.4485 15.2959 17.937 14.5606C17.2596 13.5929 15.5734 11.5246 15.237 11.2446C14.6307 10.7513 13.854 10.6659 12.9966 10.998C12.0919 11.349 10.3962 12.7153 9.67143 13.6688C9.01776 14.5322 8.7668 15.1441 8.72887 15.9505C8.69574 16.6147 8.75255 16.8898 9.10308 17.739C11.8456 24.3993 15.9381 29.7172 21.5606 33.9393C24.4973 36.1451 27.543 37.8245 30.7023 38.9726C32.5449 39.6414 33.3454 39.6746 34.288 39.1244C34.6859 38.8871 35.6711 37.8767 36.2205 37.1414C37.13 35.9174 37.4663 35.353 37.561 34.9023C37.6274 34.5939 37.5753 34.0579 37.4521 33.7163Z" fill="white"/>
<path d="M37.1557 23.1949C37.095 21.5515 36.8183 20.2035 36.2413 18.7005C35.6717 17.2222 35.0952 16.2574 34.0064 14.9526C32.977 13.7292 32.1775 13.0306 30.9095 12.2531C29.1404 11.1697 26.9874 10.4527 24.5746 10.1512C23.7517 10.0458 23.5656 10.0533 23.3132 10.2218C22.824 10.5409 22.8305 11.3367 23.3212 11.651C23.4837 11.751 23.6278 11.7875 24.286 11.8736C25.2964 12.0096 25.9461 12.1378 26.717 12.3482C29.74 13.1745 32.0647 14.8637 33.6189 17.3712C34.9195 19.4611 35.4594 21.5513 35.3827 24.2208C35.3561 25.1232 35.3754 25.282 35.5134 25.4989C35.7776 25.903 36.4743 25.983 36.8317 25.6476C37.0541 25.4432 37.096 25.2898 37.1398 24.5174C37.1608 24.1144 37.1653 23.5196 37.1557 23.1949Z" fill="white"/>
</svg>
