<svg width="62" height="21" viewBox="0 0 62 21" fill="none" xmlns="http://www.w3.org/2000/svg">
<g clip-path="url(#clip0_51_14096)">
<path d="M26.7795 20.05H21.7734L24.9046 0.689453H29.9103L26.7795 20.05Z" fill="white"/>
<path d="M44.9269 1.16215C43.9395 0.770413 42.3734 0.337891 40.4369 0.337891C35.4933 0.337891 32.012 2.97408 31.9906 6.74304C31.9496 9.52377 34.4831 11.0683 36.378 11.9954C38.3148 12.9429 38.9731 13.5613 38.9731 14.4058C38.9534 15.7028 37.4081 16.3007 35.9668 16.3007C33.9682 16.3007 32.8973 15.9924 31.2699 15.2708L30.6107 14.9615L29.9102 19.3075C31.0843 19.8424 33.2474 20.3171 35.4932 20.3379C40.7459 20.3379 44.1656 17.7425 44.2061 13.7261C44.2261 11.5221 42.8883 9.83338 40.0041 8.45341C38.2532 7.56757 37.1809 6.97025 37.1809 6.06387C37.2014 5.23989 38.0878 4.39593 40.0643 4.39593C41.6917 4.35459 42.8875 4.74578 43.7933 5.13723L44.2461 5.34282L44.9269 1.16215Z" fill="white"/>
<path d="M51.5791 13.1913C51.9914 12.079 53.5777 7.77432 53.5777 7.77432C53.5569 7.81566 53.9892 6.64155 54.2364 5.92077L54.5862 7.58899C54.5862 7.58899 55.5342 12.2233 55.7401 13.1913C54.9577 13.1913 52.5679 13.1913 51.5791 13.1913ZM57.7584 0.689453H53.8862C52.6922 0.689453 51.785 1.0393 51.2698 2.29581L43.834 20.0497H49.0866C49.0866 20.0497 49.9514 17.6602 50.1373 17.1456C50.7135 17.1456 55.8233 17.1456 56.5646 17.1456C56.7083 17.8253 57.1619 20.0497 57.1619 20.0497H61.797L57.7584 0.689453Z" fill="white"/>
<path d="M17.5919 0.689453L12.6893 13.8915L12.1536 11.214C11.2472 8.12444 8.40461 4.76775 5.23242 3.09871L9.72298 20.0295H15.0167L22.8853 0.689453H17.5919Z" fill="white"/>
<path d="M8.1366 0.689453H0.0823977L0 1.08064C6.28278 2.68727 10.4437 6.55997 12.1533 11.2148L10.4024 2.31689C10.1142 1.08036 9.22831 0.730241 8.1366 0.689453Z" fill="white"/>
</g>
<defs>
<clipPath id="clip0_51_14096">
<rect width="62" height="20" fill="white" transform="translate(0 0.337891)"/>
</clipPath>
</defs>
</svg>
