<svg viewBox="0 0 48 49" fill="none" xmlns="http://www.w3.org/2000/svg">
<path d="M24 48.5C37.2548 48.5 48 37.7548 48 24.5C48 11.2452 37.2548 0.5 24 0.5C10.7452 0.5 0 11.2452 0 24.5C0 37.7548 10.7452 48.5 24 48.5Z" fill="#25D366"/>
<path fill-rule="evenodd" clip-rule="evenodd" d="M24.7915 37.8525H24.7856C22.3971 37.8517 20.0502 37.2524 17.9657 36.1154L10.4004 38.1L12.425 30.7048C11.1761 28.5405 10.519 26.0855 10.52 23.5702C10.5232 15.7017 16.9252 9.29999 24.7913 9.29999C28.609 9.30164 32.1922 10.7879 34.8866 13.4854C37.581 16.1828 39.064 19.7683 39.0625 23.5815C39.0594 31.4483 32.6599 37.8493 24.7915 37.8525ZM18.3163 33.5319L18.7494 33.7889C20.5706 34.8697 22.6582 35.4415 24.7867 35.4423H24.7915C31.3292 35.4423 36.6503 30.1211 36.6529 23.5807C36.6542 20.4112 35.4215 17.4311 33.1821 15.189C30.9426 12.9469 27.9644 11.7115 24.7961 11.7104C18.2533 11.7104 12.9322 17.0311 12.9296 23.5711C12.9286 25.8124 13.5558 27.9951 14.7431 29.8836L15.0252 30.3324L13.8269 34.7095L18.3163 33.5319ZM31.4928 26.654C31.7415 26.7742 31.9095 26.8554 31.9812 26.9751C32.0703 27.1238 32.0703 27.8378 31.7733 28.6708C31.476 29.5038 30.0514 30.264 29.3663 30.3663C28.752 30.4582 27.9745 30.4965 27.1203 30.225C26.6024 30.0607 25.9383 29.8413 25.0875 29.4739C21.7446 28.0304 19.4854 24.7904 19.0584 24.178C19.0285 24.1351 19.0076 24.1051 18.9959 24.0895L18.9931 24.0857C18.8044 23.8339 17.5399 22.1468 17.5399 20.4008C17.5399 18.7582 18.3467 17.8973 18.7181 17.501C18.7436 17.4739 18.767 17.4489 18.7879 17.426C19.1148 17.069 19.5011 16.9797 19.7388 16.9797C19.9765 16.9797 20.2145 16.9819 20.4223 16.9924C20.4479 16.9937 20.4746 16.9935 20.5021 16.9933C20.7099 16.9921 20.969 16.9906 21.2246 17.6045C21.3229 17.8407 21.4668 18.191 21.6185 18.5604C21.9253 19.3074 22.2643 20.1328 22.324 20.2522C22.4132 20.4307 22.4726 20.6389 22.3537 20.8769C22.3359 20.9126 22.3194 20.9463 22.3036 20.9785C22.2143 21.1608 22.1487 21.2948 21.9971 21.4718C21.9376 21.5413 21.876 21.6163 21.8144 21.6913C21.6917 21.8407 21.5691 21.9901 21.4622 22.0965C21.2837 22.2743 21.0979 22.4672 21.3059 22.8242C21.5139 23.1812 22.2296 24.3489 23.2896 25.2945C24.4292 26.3109 25.4196 26.7405 25.9216 26.9582C26.0196 27.0008 26.099 27.0352 26.1573 27.0644C26.5137 27.2429 26.7217 27.213 26.9298 26.9751C27.1378 26.7371 27.8212 25.9338 28.0588 25.5769C28.2965 25.2201 28.5343 25.2795 28.8611 25.3984C29.1881 25.5176 30.9412 26.3801 31.2978 26.5586C31.3674 26.5934 31.4325 26.6249 31.4928 26.654Z" fill="#FDFDFD"/>
</svg>
