<svg width="117" height="127" viewBox="0 0 117 127" fill="none" xmlns="http://www.w3.org/2000/svg">
<path d="M44.0045 14.5223C44.4028 14.1983 44.8145 13.8923 45.242 13.5976C45.7338 13.2809 46.3295 13.1682 46.9029 13.2832C47.4764 13.3983 47.9825 13.7322 48.314 14.2141C48.6455 14.6959 48.7763 15.2879 48.6787 15.8646C48.5811 16.4413 48.2628 16.9573 47.7913 17.3033C47.4598 17.5328 47.1373 17.7736 46.8238 18.0256C46.3569 18.373 45.7735 18.526 45.1962 18.4525C44.6189 18.3789 44.0925 18.0846 43.7277 17.6312C43.3628 17.1778 43.1878 16.6006 43.2394 16.0209C43.2911 15.4413 43.5653 14.9041 44.0045 14.5223ZM37.1938 24.9781C37.6827 23.0019 38.4938 21.1197 39.5945 19.4071C39.9201 18.9138 40.4266 18.5683 41.0048 18.4454C41.583 18.3226 42.1862 18.4321 42.6843 18.7505C43.1823 19.0688 43.5351 19.5703 43.6663 20.1466C43.7976 20.7229 43.6968 21.3277 43.3858 21.8303C42.5519 23.1292 41.9362 24.5558 41.5633 26.0536C41.4177 26.6298 41.05 27.125 40.5405 27.4311C40.0311 27.7372 39.4212 27.8292 38.8441 27.6872C38.267 27.5451 37.7695 27.1805 37.4603 26.6729C37.1511 26.1654 37.0553 25.5561 37.1938 24.9781ZM34.874 117.766H28.124C27.5273 117.766 26.955 117.529 26.533 117.107C26.1111 116.685 25.874 116.113 25.874 115.516C25.874 114.919 26.1111 114.347 26.533 113.925C26.955 113.503 27.5273 113.266 28.124 113.266H34.874C35.4708 113.266 36.0431 113.503 36.465 113.925C36.887 114.347 37.124 114.919 37.124 115.516C37.124 116.113 36.887 116.685 36.465 117.107C36.0431 117.529 35.4708 117.766 34.874 117.766ZM88.874 117.766H82.124C81.5273 117.766 80.955 117.529 80.533 117.107C80.1111 116.685 79.874 116.113 79.874 115.516C79.874 114.919 80.1111 114.347 80.533 113.925C80.955 113.503 81.5273 113.266 82.124 113.266H88.874C89.4708 113.266 90.0431 113.503 90.465 113.925C90.887 114.347 91.124 114.919 91.124 115.516C91.124 116.113 90.887 116.685 90.465 117.107C90.0431 117.529 89.4708 117.766 88.874 117.766Z" fill="#23C7EF"/>
<path d="M110.087 93.0632C104.24 85.6539 80.1488 77.8892 75.0841 76.3187C74.8846 73.1472 74.5136 69.9888 73.9726 66.8574C77.7977 63.1276 80.4437 58.3568 81.5821 53.1369C83.0681 52.0368 84.3112 50.642 85.2338 49.0397C86.0246 47.756 86.5452 46.3245 86.7637 44.8327C86.9823 43.3409 86.8943 41.8203 86.5051 40.3637C87.6285 39.9449 88.5981 39.1945 89.2852 38.212C89.9724 37.2295 90.3446 36.0613 90.3526 34.8624C90.3579 33.7056 90.0368 32.5707 89.4263 31.5881C88.8158 30.6055 87.9406 29.8149 86.9011 29.3072C86.8065 23.8123 85.0048 18.483 81.7457 14.0579C78.4866 9.63292 73.9316 6.33144 68.7121 4.61117C68.4856 3.52756 67.8942 2.55444 67.0368 1.85423C66.1793 1.15401 65.1076 0.769079 64.0006 0.763672H53.3918C52.3251 0.76999 51.2906 1.12989 50.4502 1.78702C49.6099 2.44415 49.0112 3.36141 48.7479 4.39517C43.3839 6.06526 38.6808 9.37945 35.3036 13.869C31.9264 18.3585 30.0462 23.7962 29.9289 29.4129C28.9391 29.9388 28.1111 30.7239 27.5332 31.6842C26.9554 32.6446 26.6495 33.7439 26.6484 34.8647C26.6549 36.0476 27.0166 37.2012 27.6865 38.1761C28.3565 39.151 29.3039 39.9021 30.4059 40.3322C29.9374 42.4559 30.0383 44.6657 30.6984 46.7379C31.5936 49.4801 33.4039 51.8314 35.8261 53.3979C37.0336 58.5322 39.5926 63.25 43.2376 67.0622C42.7101 70.1312 42.3481 73.2265 42.1531 76.3344C36.9106 77.9004 13.3756 85.2399 7.5526 92.4197C2.2876 98.9087 0.406602 121.895 0.208602 124.493C0.175648 125.082 0.374831 125.66 0.763341 126.103C1.15185 126.546 1.69868 126.819 2.2863 126.863C2.87392 126.907 3.45543 126.719 3.90586 126.339C4.35628 125.959 4.63966 125.418 4.6951 124.831C5.20135 118.16 7.33435 99.8334 11.0469 95.2524C12.9819 92.8674 17.9656 90.2124 23.6244 87.7734V106.516H21.3744C20.7776 106.516 20.2053 106.753 19.7834 107.175C19.3614 107.597 19.1244 108.169 19.1244 108.766V124.662C19.1244 125.259 19.3614 125.831 19.7834 126.253C20.2053 126.675 20.7776 126.912 21.3744 126.912C21.9711 126.912 22.5434 126.675 22.9653 126.253C23.3873 125.831 23.6244 125.259 23.6244 124.662V111.018H93.3744V124.662C93.3744 125.259 93.6114 125.831 94.0334 126.253C94.4553 126.675 95.0276 126.912 95.6244 126.912C96.2211 126.912 96.7934 126.675 97.2153 126.253C97.6373 125.831 97.8744 125.259 97.8744 124.662V108.768C97.8744 108.171 97.6373 107.599 97.2153 107.177C96.7934 106.755 96.2211 106.518 95.6244 106.518H93.3744V87.8882C99.2963 90.4869 104.566 93.3332 106.553 95.8532C110.11 100.36 111.908 118.274 112.301 124.797C112.348 125.384 112.624 125.93 113.068 126.316C113.513 126.702 114.091 126.899 114.679 126.863C115.267 126.828 115.818 126.564 116.213 126.127C116.608 125.69 116.816 125.116 116.792 124.527C116.642 121.985 115.154 99.4847 110.087 93.0654V93.0632ZM58.4881 93.1982H58.5196C64.3651 93.1982 71.7001 84.5987 74.5958 80.8817C75.4958 81.1674 76.5309 81.5049 77.6244 81.8717V106.516H39.3744V81.9189C40.4752 81.5602 41.5792 81.2115 42.6864 80.8727C45.5214 84.5919 52.6831 93.1689 58.4881 93.1982ZM70.7484 78.4877C67.0359 83.1609 61.4716 88.7004 58.5241 88.7004H58.5106C55.5856 88.6847 50.1091 83.1024 46.4956 78.4359C46.6245 75.7772 46.8964 73.1274 47.3101 70.4979C54.1343 74.7819 63.3368 73.7222 69.8506 69.9242C70.305 72.7603 70.6047 75.619 70.7484 78.4877ZM32.3004 33.3077C34.5144 33.2087 34.4604 30.9317 34.4446 30.1847L34.4289 29.2622C34.5588 24.824 36.0188 20.5271 38.6196 16.9285C41.2205 13.3299 44.8423 10.5955 49.0156 9.07967L50.8966 23.7542C50.9733 24.3461 51.282 24.8834 51.7548 25.2478C51.9889 25.4282 52.2562 25.5607 52.5416 25.6378C52.8269 25.7149 53.1246 25.735 53.4177 25.697C53.7108 25.6591 53.9936 25.5637 54.2499 25.4165C54.5061 25.2693 54.7309 25.073 54.9113 24.8389C55.0917 24.6048 55.2243 24.3374 55.3013 24.0521C55.3784 23.7668 55.3986 23.469 55.3606 23.1759L53.0813 5.54267C53.0936 5.46798 53.1311 5.39975 53.1877 5.34938C53.2442 5.29901 53.3162 5.26956 53.3918 5.26592H64.0006C64.0766 5.26905 64.1492 5.29828 64.2062 5.34869C64.2631 5.39911 64.301 5.46761 64.3133 5.54267L62.0318 23.1759C61.9939 23.4692 62.014 23.767 62.0912 24.0525C62.1683 24.338 62.301 24.6054 62.4815 24.8397C62.662 25.0739 62.8869 25.2702 63.1433 25.4175C63.3997 25.5648 63.6826 25.6602 63.9758 25.6982C64.5681 25.7749 65.1666 25.6131 65.6396 25.2485C65.8738 25.068 66.0702 24.8431 66.2175 24.5867C66.3648 24.3303 66.4601 24.0474 66.4981 23.7542L68.3656 9.30017C72.424 10.8566 75.9267 13.587 78.4266 17.1428C80.9264 20.6987 82.3101 24.9187 82.4011 29.2644C82.4011 29.8089 82.3801 30.3489 82.3381 30.8844C82.3142 31.1976 82.356 31.5123 82.4609 31.8084C82.5657 32.1045 82.7313 32.3754 82.9469 32.6037C83.1626 32.8321 83.4236 33.0129 83.7132 33.1345C84.0028 33.2561 84.3146 33.3158 84.6286 33.3099C85.2271 33.1637 85.8503 34.1514 85.8503 34.8624C85.8503 35.9109 84.7096 36.3339 84.0368 36.4172C75.5863 37.3724 67.0892 37.8576 58.5848 37.8707C50.0237 37.8541 41.4699 37.3689 32.9619 36.4172C32.2868 36.3339 31.1484 35.9109 31.1484 34.8624C31.1369 34.5116 31.2446 34.1672 31.4537 33.8854C31.6629 33.6035 31.9613 33.3984 32.3004 33.3077ZM40.0291 51.5327C39.9644 51.2046 39.8274 50.8951 39.6281 50.6265C39.4289 50.358 39.1723 50.1372 38.8771 49.9802C37.0438 48.9865 35.6529 47.3377 34.9824 45.3632C34.5511 43.9997 34.4983 42.5446 34.8294 41.1534C43.1589 42.0422 52.6223 42.3707 58.5848 42.3707C64.4483 42.3707 73.7724 42.0444 82.0569 41.1669C82.3542 42.1018 82.4433 43.0904 82.3177 44.0633C82.1922 45.0363 81.8551 45.9699 81.3301 46.7987C80.5936 48.0653 79.5634 49.1364 78.3264 49.9217C78.063 50.0915 77.8381 50.3146 77.666 50.5766C77.494 50.8385 77.3786 51.1335 77.3273 51.4427C76.8016 54.5694 75.5871 57.5401 73.7717 60.1396C71.9564 62.7391 69.5856 64.9024 66.8311 66.4727C66.4734 66.6594 57.9751 71.0042 50.6828 67.2489C47.9194 65.506 45.5463 63.2102 43.7129 60.5059C41.8794 57.8016 40.6252 54.745 40.0291 51.5327ZM28.1244 106.518V85.9284C30.359 85.0564 32.6094 84.2252 34.8744 83.4354V106.518H28.1244ZM88.8744 106.518H82.1244V83.4354C84.2843 84.2117 86.5749 85.0757 88.8744 85.9959V106.518Z" fill="#23C7EF"/>
<path d="M58.4722 35.0785C53.7382 35.0785 46.9297 34.651 40.2607 33.94C39.6797 33.8622 39.152 33.5606 38.7899 33.0995C38.4279 32.6385 38.2601 32.0543 38.3223 31.4714C38.3844 30.8885 38.6716 30.3528 39.1228 29.9785C39.5739 29.6041 40.1533 29.4206 40.7377 29.467C47.2582 30.1623 53.8867 30.5763 58.4722 30.5785C63.8992 30.5785 71.2185 30.0025 76.263 29.467C76.8461 29.4234 77.4234 29.6086 77.8723 29.9833C78.3213 30.3581 78.6068 30.8928 78.6682 31.4744C78.7296 32.056 78.5622 32.6386 78.2014 33.0989C77.8407 33.5591 77.3149 33.8608 76.7355 33.94C74.238 34.2078 65.526 35.0763 58.4722 35.0785Z" fill="#23C7EF"/>
</svg>
