<svg width="105" height="93" viewBox="0 0 105 93" fill="none" xmlns="http://www.w3.org/2000/svg">
<path d="M97.6251 41.0977V39.8743C97.6242 39.1668 97.3428 38.4886 96.8425 37.9883C96.3423 37.4881 95.664 37.2066 94.9565 37.2058H91.0834C90.6582 37.2058 90.2575 37.3084 89.9007 37.4861C89.5465 37.3969 89.1905 37.3149 88.833 37.24L88.8334 35.2525C90.6976 33.4718 92.3232 31.0564 92.8322 28.214H92.8655C95.1201 28.214 96.9548 26.3798 96.9548 24.1247C96.9554 23.4401 96.7831 22.7665 96.4537 22.1663L96.967 22.1631C97.1362 22.1617 97.3036 22.127 97.4595 22.061C97.6153 21.995 97.7567 21.8989 97.8754 21.7782C97.9942 21.6576 98.088 21.5147 98.1515 21.3578C98.215 21.2009 98.247 21.033 98.2457 20.8637L98.2035 15.5726C98.2008 15.2326 98.0638 14.9075 97.8225 14.668C97.5811 14.4285 97.2549 14.294 96.9149 14.2939H96.9051L96.2151 14.2977C95.7989 11.2916 94.8164 8.69953 93.3103 6.68818C92.6208 5.76339 91.801 4.94321 90.8767 4.25309L91.2165 2.81406L88.7078 2.22111L88.547 2.89984C87.0161 2.22955 85.2837 1.83956 83.3572 1.73175V0.517722H80.7791V1.73175C78.8526 1.83956 77.1197 2.22955 75.5893 2.89984L75.4285 2.22111L72.9193 2.81406L73.2596 4.25309C72.3351 4.94318 71.5152 5.76336 70.8255 6.68818C70.2391 7.47144 69.7343 8.34563 69.3087 9.29482L69.5337 8.34329C70.0502 6.15897 68.6932 3.9606 66.5079 3.44452C64.5974 2.99172 62.677 3.97419 61.8796 5.68883C60.2433 5.07994 58.4719 4.65714 56.5707 4.41949V4.14762C56.5707 1.90284 54.7445 0.0761719 52.4993 0.0761719C50.254 0.0761719 48.4274 1.90284 48.4274 4.14809V4.41949C46.5262 4.65714 44.7553 5.08041 43.1189 5.68883C42.7848 4.96657 42.2449 4.35901 41.5669 3.94232C41.1125 3.66006 40.6067 3.47073 40.0786 3.38529C39.5506 3.29984 39.0108 3.31997 38.4906 3.44452C37.9697 3.56613 37.4781 3.78986 37.0443 4.10277C36.6104 4.41568 36.243 4.81154 35.9632 5.26744C35.6809 5.72172 35.4915 6.22748 35.406 6.75545C35.3204 7.28342 35.3405 7.82311 35.4649 8.34329L35.6904 9.29623C35.2648 8.3461 34.7599 7.47191 34.1735 6.68818C33.4837 5.76332 32.6636 4.94313 31.7389 4.25309L32.0792 2.81406L29.5701 2.22111L29.4098 2.89984C27.8789 2.22955 26.1459 1.83956 24.2194 1.73175V0.517722H21.6414V1.73175C19.7149 1.83956 17.9824 2.22955 16.4515 2.89984L16.2912 2.22111L13.7821 2.81406L14.1224 4.25309C13.1978 4.94317 12.3779 5.76336 11.6882 6.68818C10.1822 8.69953 9.20016 11.2916 8.78392 14.2981C8.55392 14.2969 8.32393 14.2954 8.09394 14.2934H8.08363C7.74345 14.2934 7.41707 14.4279 7.17561 14.6675C6.93415 14.9071 6.79719 15.2325 6.7946 15.5726L6.75288 20.8642C6.75158 21.0335 6.78364 21.2013 6.84722 21.3582C6.91081 21.5151 7.00467 21.658 7.12346 21.7786C7.24224 21.8992 7.38362 21.9952 7.53952 22.0612C7.69542 22.1272 7.86279 22.1618 8.03206 22.1631L8.54486 22.1663C8.2156 22.7667 8.0434 23.4405 8.04425 24.1252C8.04425 26.3798 9.87889 28.2145 12.1335 28.2145H12.1663C12.6758 31.0564 14.3014 33.4723 16.1651 35.253L16.1661 37.2405C15.8085 37.3152 15.4525 37.3971 15.0983 37.4861C14.7309 37.3023 14.3259 37.2065 13.9152 37.2062H10.042C9.33462 37.2071 8.65645 37.4885 8.1562 37.9886C7.65596 38.4888 7.37448 39.1669 7.37349 39.8743V41.0977C3.04048 44.4342 0.685547 49.4834 0.685547 55.8423C0.685547 56.1842 0.821355 56.512 1.06309 56.7538C1.30483 56.9955 1.6327 57.1313 1.97457 57.1313H41.4174C41.6518 57.3652 41.8885 57.594 42.128 57.8152L42.1528 61.0261C41.2074 61.2092 40.2682 61.4231 39.3367 61.6673C38.7767 61.3233 38.1325 61.1409 37.4753 61.1404H31.0208C29.0418 61.1404 27.4326 62.7501 27.4326 64.7286V67.1993C26.2987 68.035 25.2314 68.9576 24.2405 69.9588C18.9625 75.3225 16.2861 82.5163 16.2861 91.3398C16.2861 91.6816 16.4219 92.0095 16.6636 92.2512C16.9053 92.493 17.2332 92.6288 17.5751 92.6288H87.4235C87.7653 92.6288 88.0932 92.493 88.335 92.2512C88.5767 92.0095 88.7125 91.6816 88.7125 91.3398C88.7125 82.5163 86.036 75.323 80.758 69.9588C79.7671 68.9576 78.6999 68.035 77.5659 67.1993V64.7286C77.5659 62.7501 75.9568 61.1409 73.9782 61.1409H67.5237C66.8666 61.1412 66.2223 61.3234 65.6624 61.6673C64.7532 61.4292 63.8366 61.22 62.9141 61.0401L62.9146 57.7754C63.1396 57.5672 63.3613 57.3512 63.5812 57.1313H103.024C103.366 57.1313 103.694 56.9955 103.936 56.7538C104.178 56.512 104.313 56.1842 104.313 55.8423C104.313 49.4834 101.958 44.4337 97.6251 41.0982V41.0977ZM74.9879 64.7281V82.9967H55.5625C55.6928 82.917 55.8212 82.8322 55.9468 82.7412L64.0747 76.868C64.8289 76.3216 65.4431 75.6045 65.8671 74.7754C66.291 73.9462 66.5127 73.0284 66.514 72.0972V64.7286C66.514 64.1713 66.9669 63.7185 67.5237 63.7185H73.9782C74.5351 63.7185 74.9879 64.1713 74.9879 64.7281ZM30.0107 90.0503V85.5748H74.9879V90.0503H30.0107ZM31.0203 63.7185H37.4748C38.0317 63.7185 38.4845 64.1713 38.4845 64.7281V72.0972C38.4857 73.0285 38.7073 73.9463 39.1312 74.7756C39.5551 75.6048 40.1692 76.322 40.9233 76.8684L49.0517 82.7417C49.1773 82.8322 49.3058 82.917 49.4366 82.9967H30.0107V64.7277C30.0107 64.1708 30.4635 63.7185 31.0203 63.7185ZM63.936 64.7281V72.0972C63.9352 72.6206 63.8106 73.1363 63.5723 73.6023C63.334 74.0683 62.9888 74.4713 62.5649 74.7783L54.437 80.6516C53.8734 81.0599 53.1952 81.2797 52.4993 81.2797C51.8033 81.2797 51.1251 81.0599 50.5615 80.6516L42.4336 74.7783C42.0098 74.4713 41.6646 74.0683 41.4263 73.6023C41.188 73.1363 41.0633 72.6205 41.0626 72.0972V64.7286C41.0617 64.4549 41.0295 64.1822 40.9665 63.9158C41.4268 63.8067 41.8889 63.7053 42.3525 63.6116C43.2844 67.8134 47.5189 71.0111 52.5363 71.0111C57.5762 71.0111 61.7878 67.8288 62.7201 63.6266C63.1495 63.7143 63.5873 63.8104 64.0326 63.9154C63.9694 64.1817 63.937 64.4544 63.936 64.7281ZM27.4326 90.0503H18.8838C19.1843 80.6872 22.7579 74.528 27.4322 70.4781L27.4326 90.0503ZM77.5659 70.4781C82.2402 74.528 85.8138 80.6872 86.1143 90.0503H77.5659V70.4781ZM60.3361 61.8735C60.3347 65.4903 56.8356 68.433 52.5363 68.433C48.2942 68.433 44.7956 65.5297 44.7379 61.9724L44.722 59.9142C45.2769 60.3071 45.8489 60.6755 46.4362 61.0181C48.278 62.0867 50.3699 62.6488 52.4993 62.6474C54.6287 62.6486 56.7205 62.0865 58.5624 61.0181C59.1707 60.6632 59.7626 60.2808 60.3361 59.872V61.8735ZM3.29922 54.5533C3.55656 50.0004 5.17886 46.7961 7.37349 44.5401V54.5533H3.29922ZM10.042 39.7838H13.9152C13.9649 39.7838 14.0056 39.8246 14.0056 39.8743V44.2959C14.0064 44.9363 14.1587 45.5675 14.4501 46.1377C14.7415 46.708 15.1638 47.2012 15.6823 47.577L19.1121 50.0548H9.95154V39.8743C9.95154 39.8246 9.99232 39.7838 10.042 39.7838ZM10.6218 24.1247C10.6218 23.4558 11.0596 22.8882 11.6634 22.6899L11.9268 25.6205C11.5655 25.5705 11.2345 25.3916 10.9947 25.1169C10.7549 24.8421 10.6225 24.4894 10.6218 24.1247ZM14.7861 7.06129L15.852 11.5715L18.3612 10.9781L17.0585 5.46805C18.3115 4.8451 19.8255 4.43636 21.6414 4.3159V11.8982H24.2194V4.3159C26.0358 4.43589 27.5493 4.84557 28.8027 5.46805L27.4992 10.9776L30.0088 11.5705L31.0747 7.06035C32.6848 8.59734 33.6143 10.597 34.1313 12.614C33.7468 13.1588 33.3883 13.7216 33.057 14.3005C32.0473 14.2995 12.7977 14.3014 11.3845 14.3019C11.7787 11.7543 12.7246 9.02765 14.7856 7.06082L14.7861 7.06129ZM37.9745 7.75033C37.9287 7.55957 37.9213 7.3616 37.9526 7.16793C37.9839 6.97425 38.0533 6.78872 38.1569 6.62209C38.2595 6.45485 38.3943 6.30962 38.5535 6.19481C38.7126 6.07999 38.8929 5.99787 39.084 5.9532C39.2748 5.9076 39.4728 5.90029 39.6665 5.93166C39.8601 5.96304 40.0456 6.03249 40.2123 6.136C40.3795 6.23865 40.5247 6.37346 40.6394 6.53261C40.7541 6.69176 40.8361 6.87209 40.8807 7.06317L43.0505 16.241C43.0962 16.4318 43.1036 16.6298 43.0722 16.8235C43.0408 17.0172 42.9713 17.2027 42.8677 17.3693C42.765 17.5365 42.6302 17.6818 42.4711 17.7966C42.3119 17.9114 42.1316 17.9935 41.9405 18.0382C41.5524 18.1296 41.1516 18.0649 40.8123 17.8554C40.4729 17.6458 40.2357 17.3163 40.1438 16.9287L37.9745 7.75033ZM52.4993 2.65423C52.8953 2.65472 53.2749 2.81229 53.5549 3.09235C53.8349 3.37241 53.9923 3.75209 53.9927 4.14809V17.5493C53.9922 17.9452 53.8347 18.3248 53.5547 18.6047C53.2748 18.8847 52.8952 19.0422 52.4993 19.0427C52.1033 19.0423 51.7236 18.8849 51.4435 18.6049C51.1635 18.3249 51.0059 17.9453 51.0054 17.5493V4.14809C51.0058 3.75201 51.1633 3.37225 51.4434 3.09218C51.7234 2.81211 52.1032 2.6546 52.4993 2.65423ZM52.4993 21.6207C54.7445 21.6207 56.5707 19.7941 56.5707 17.5493V7.01676C58.284 7.25207 59.8228 7.64956 61.2051 8.17876L59.4389 15.6481C58.9229 17.8324 60.2798 20.0308 62.4646 20.5469C62.7716 20.6197 63.0861 20.6565 63.4016 20.6565C65.2456 20.6565 66.9219 19.3924 67.3643 17.5216L68.3309 13.4291C70.8921 16.7276 72.1192 20.807 72.654 24.6057C63.1466 24.616 41.8472 24.616 32.3436 24.6057C32.8784 20.807 34.106 16.7271 36.6667 13.4286L37.6342 17.5207C37.7559 18.0417 37.9797 18.5334 38.2927 18.9673C38.6057 19.4012 39.0016 19.7687 39.4576 20.0486C39.9119 20.3309 40.4177 20.5203 40.9456 20.6057C41.4736 20.6912 42.0133 20.671 42.5335 20.5464C43.0543 20.4247 43.5459 20.201 43.9798 19.8881C44.4136 19.5752 44.7811 19.1793 45.0609 18.7235C45.3432 18.2692 45.5326 17.7634 45.6181 17.2355C45.7036 16.7075 45.6836 16.1678 45.5592 15.6476L43.7934 8.17829C45.1753 7.64862 46.7137 7.25207 48.4269 7.01676V17.5493C48.4269 19.7945 50.2536 21.6207 52.4988 21.6207H52.4993ZM65.5714 5.91335C65.7967 5.91357 66.019 5.96471 66.2217 6.06294C66.4244 6.16117 66.6022 6.30395 66.742 6.48062C66.8817 6.65728 66.9797 6.86325 67.0286 7.08312C67.0776 7.303 67.0761 7.53109 67.0245 7.75033L64.8552 16.9282C64.7637 17.3135 64.5231 17.6467 64.1861 17.8548C63.8492 18.0629 63.4435 18.1288 63.0581 18.0382C62.6728 17.9467 62.3395 17.706 62.1315 17.3691C61.9234 17.0322 61.8574 16.6265 61.9481 16.241L64.1183 7.06317C64.1961 6.73605 64.3817 6.44465 64.6453 6.23597C64.909 6.02728 65.2352 5.91394 65.5714 5.91335ZM73.9234 7.06129L74.9898 11.5715L77.4984 10.9781L76.1963 5.46805C77.4492 4.8451 78.9628 4.43589 80.7791 4.3159V11.8982H83.3572V4.3159C85.1735 4.43589 86.6871 4.84557 87.94 5.46805L86.6374 10.9781L89.1466 11.5715L90.2129 7.06082C92.274 9.02811 93.2199 11.7548 93.6141 14.3023C92.2393 14.3019 72.9939 14.3 71.9411 14.3009C71.6098 13.7221 71.2513 13.1593 70.8667 12.6144C71.3838 10.5974 72.3133 8.59734 73.9234 7.06129ZM95.047 39.8743V50.0548H85.887L89.3162 47.577C89.8348 47.2012 90.257 46.708 90.5484 46.1377C90.8398 45.5675 90.9921 44.9363 90.9929 44.2959V39.8743C90.9929 39.8246 91.0337 39.7838 91.0834 39.7838H94.9565C95.0067 39.7838 95.047 39.8246 95.047 39.8743ZM16.7117 39.759C17.7476 41.9039 20.1447 43.4104 22.9304 43.4104C25.328 43.4104 27.4373 42.2934 28.6392 40.6149C28.7521 41.2669 28.9701 41.8833 29.2776 42.4448V44.2964C29.2772 44.5288 29.2218 44.7579 29.1158 44.9648C29.0099 45.1717 28.8565 45.3507 28.6682 45.487L23.7915 49.0114C23.541 49.1927 23.2398 49.2903 22.9306 49.2903C22.6215 49.2903 22.3202 49.1927 22.0698 49.0114L17.1926 45.487C17.0043 45.3506 16.8509 45.1717 16.745 44.9648C16.6391 44.7579 16.5837 44.5288 16.5832 44.2964V39.8743C16.5832 39.8448 16.58 39.8162 16.579 39.7866L16.7117 39.759ZM18.7441 37.3928V37.2526C18.8407 37.3126 18.9377 37.3703 19.0333 37.4261C20.2172 38.1128 21.5617 38.4741 22.9304 38.4732C24.278 38.4732 25.6256 38.124 26.828 37.4261C26.924 37.3703 27.0201 37.3126 27.1172 37.2526V37.3933C27.1172 39.2898 25.2385 40.8324 22.9304 40.8324C20.6228 40.8324 18.7446 39.2893 18.7441 37.3928ZM9.36281 16.8781C11.1229 16.8827 31.1474 16.8762 31.7834 16.8771C31.4136 17.7634 31.0913 18.6687 30.8178 19.5892C30.5268 19.5888 11.1262 19.5972 9.34125 19.5916L9.36281 16.8781ZM95.6573 19.592C93.9469 19.5967 74.581 19.5888 74.1807 19.5897C73.9073 18.6691 73.585 17.7638 73.2151 16.8776C73.8967 16.8762 93.9052 16.8823 95.6357 16.8776L95.6573 19.592ZM88.4195 39.7866C88.4186 39.8162 88.4149 39.8448 88.4149 39.8743V44.2959C88.4145 44.5284 88.3592 44.7575 88.2534 44.9645C88.1476 45.1715 87.9942 45.3505 87.806 45.487L82.9288 49.0114C82.6784 49.1926 82.3772 49.2902 82.0682 49.2902C81.7591 49.2902 81.4579 49.1926 81.2076 49.0114L76.3299 45.487C76.1417 45.3506 75.9885 45.1716 75.8828 44.9647C75.777 44.7578 75.7217 44.5287 75.7215 44.2964V42.4448C76.0335 41.8741 76.2492 41.2559 76.3599 40.6149C77.5612 42.2939 79.6706 43.4104 82.0682 43.4104C84.8539 43.4104 87.2514 41.9039 88.2869 39.759C88.3314 39.7684 88.375 39.7768 88.4195 39.7866ZM57.2677 58.7892C55.8187 59.6286 54.1738 60.0706 52.4993 60.0706C50.8247 60.0706 49.1798 59.6286 47.7308 58.7892C43.2305 56.1751 37.9089 50.6552 37.7242 43.7015C37.7172 43.4437 37.075 36.1155 37.075 36.1155C44.4178 36.1188 66.4292 36.1216 67.9226 36.1216C67.9226 36.1216 67.2814 43.4433 67.2743 43.702C67.0897 50.6552 61.7681 56.1756 57.2677 58.7892ZM75.961 27.179L76.0149 33.5379C68.7382 33.5515 35.95 33.5379 28.9837 33.5342L29.0376 27.179C36.303 27.1964 68.6871 27.1964 75.961 27.179ZM31.1277 39.5949C31.1277 37.7359 32.6379 36.2233 34.496 36.2177L35.103 42.9722H34.5059C32.6431 42.9722 31.1277 41.4572 31.1277 39.5949ZM70.5025 36.2177C72.3606 36.2228 73.8709 37.7355 73.8709 39.5949C73.8709 41.4572 72.3555 42.9726 70.4932 42.9726H69.8955L70.5025 36.2177ZM30.178 47.577C30.6135 47.2614 30.9818 46.8623 31.2616 46.4029C31.5414 45.9436 31.727 45.4332 31.8078 44.9015C32.643 45.3287 33.5678 45.5512 34.5059 45.5507H35.2948C35.5074 47.1006 35.9256 48.6153 36.5383 50.0548H26.7492L30.178 47.577ZM69.7038 45.5507H70.4932C71.4639 45.5507 72.3803 45.3154 73.1907 44.902C73.2716 45.4335 73.4573 45.9436 73.737 46.4028C74.0167 46.8619 74.3848 47.2609 74.8201 47.5766L78.2494 50.0548H68.4607C69.0732 48.6151 69.4913 47.1003 69.7038 45.5502V45.5507ZM82.0682 40.8324C79.7601 40.8324 77.8823 39.2893 77.8814 37.3928V37.2526C77.9784 37.3122 78.075 37.3703 78.1711 37.4261C79.355 38.1128 80.6995 38.4741 82.0682 38.4732C83.4158 38.4732 84.7634 38.124 85.9652 37.4261C86.0613 37.3703 86.1574 37.3126 86.2549 37.2526V37.3933C86.254 39.2893 84.3762 40.8324 82.0682 40.8324ZM84.6706 35.1968C83.8798 35.6549 82.9821 35.8961 82.0682 35.8961C81.1542 35.8961 80.2565 35.6549 79.4657 35.1968C79.17 35.0242 78.8819 34.8389 78.6023 34.6413L78.5283 25.8741C78.5254 25.5341 78.3883 25.2089 78.1469 24.9695C77.9055 24.7301 77.5792 24.5958 77.2392 24.5958H77.2294C76.9322 24.5982 76.245 24.6005 75.2471 24.6024C75.1382 23.7857 75.0001 22.9732 74.8332 22.1663C75.024 22.1663 90.2345 22.1678 90.7937 22.1687C90.7937 22.1687 90.4229 26.4122 90.4187 26.5758C90.3203 30.2821 87.461 33.5763 84.6706 35.1968ZM93.0718 25.6205L93.3352 22.6899C93.6376 22.7891 93.9011 22.9812 94.0881 23.2388C94.2751 23.4964 94.3761 23.8064 94.3767 24.1247C94.3761 24.4894 94.2437 24.8416 94.0039 25.1164C93.7641 25.3912 93.433 25.5705 93.0718 25.6205ZM14.5799 26.5753C14.5756 26.4126 14.2049 22.1692 14.2049 22.1692C14.87 22.1682 30.0857 22.1659 30.1654 22.1659C29.9984 22.9729 29.8604 23.7855 29.7515 24.6024C29.0909 24.6017 28.4302 24.5995 27.7696 24.5958C27.6003 24.5939 27.4322 24.6255 27.275 24.6888C27.1179 24.7521 26.9748 24.8458 26.8541 24.9646C26.7333 25.0834 26.6372 25.2249 26.5714 25.381C26.5055 25.5371 26.4712 25.7047 26.4703 25.8741L26.3962 34.6418C26.1103 34.8433 25.8211 35.0294 25.5333 35.1968C24.7424 35.6549 23.8446 35.8961 22.9306 35.8961C22.0167 35.8961 21.1189 35.6549 20.328 35.1968C17.5381 33.5763 14.6788 30.2821 14.5799 26.5753ZM9.95154 52.6324H37.8587C38.2603 53.2948 38.6961 53.936 39.1642 54.5533H9.95154V52.6324ZM65.8344 54.5533C66.3025 53.9361 66.7382 53.2951 67.1398 52.6329H95.047V54.5533H65.8344ZM97.6251 54.5533V44.5401C99.8197 46.7961 101.442 50.0009 101.7 54.5533H97.6251Z" fill="#343434"/>
</svg>
