<svg width="95" height="50" viewBox="0 0 95 50" fill="none" xmlns="http://www.w3.org/2000/svg">
<g clip-path="url(#clip0_239_13853)">
<path d="M22.4013 0.370361L17.6758 8.88888V28.1481L22.4013 25.1852L31.8522 30L30.7617 19.2593L38.0317 11.1111L27.1268 8.88888L22.4013 0.370361Z" fill="#FEDC51"/>
<path d="M11.8286 18.0912H8.51095L5.38047 17.2975C3.90072 16.6192 2.76282 15.5813 1.96675 14.184C1.17068 12.773 0.772652 11.0229 0.772652 8.93366C0.772652 7.02076 1.06298 5.39954 1.64364 4.07C2.23367 2.74047 3.06719 1.72975 4.14422 1.03785C5.23062 0.34595 6.51369 0 7.99343 0H14.5399V29.6296H11.8286V3.2153H7.99343C6.49496 3.2153 5.36642 3.73084 4.60781 4.76191C3.85858 5.79297 3.48396 7.18356 3.48396 8.93366C3.48396 10.0733 3.64785 11.0908 3.97564 11.9862C4.3128 12.8816 4.80917 13.587 5.46476 14.1026C6.12034 14.6181 6.93513 14.8759 7.90914 14.8759H11.8286V18.0912ZM8.40148 18.0634L2.87988 29.6296H0L5.38047 17.2975L8.40148 18.0634Z" fill="#FF3333"/>
<path d="M87.7834 20.3251L85.2276 30H84L86.5558 20.3251H87.7834Z" fill="#BEC8CF"/>
<path d="M91.4195 28.8952C90.9032 28.8952 90.441 28.7966 90.0331 28.5993C89.6252 28.3994 89.3012 28.1258 89.0611 27.7786C88.8236 27.4313 88.6971 27.0341 88.6816 26.587H90.0757C90.1015 26.9184 90.2422 27.1893 90.4978 27.3998C90.7534 27.6076 91.0606 27.7115 91.4195 27.7115C91.7009 27.7115 91.9513 27.6457 92.1708 27.5142C92.3902 27.3827 92.5632 27.1999 92.6897 26.9657C92.8162 26.7316 92.8781 26.4646 92.8755 26.1648C92.8781 25.8596 92.8149 25.5887 92.6858 25.352C92.5567 25.1152 92.3799 24.9298 92.1553 24.7956C91.9307 24.6588 91.6725 24.5904 91.3808 24.5904C91.1432 24.5878 90.9096 24.6325 90.6798 24.7246C90.4501 24.8167 90.2681 24.9377 90.1338 25.0876L88.8365 24.8706L89.2509 20.7039H93.8514V21.9271H90.4397L90.2113 24.0696H90.2577C90.4049 23.8934 90.6127 23.7474 90.8812 23.6316C91.1497 23.5133 91.444 23.4541 91.7641 23.4541C92.2443 23.4541 92.6729 23.5698 93.0498 23.8013C93.4267 24.0301 93.7236 24.3458 93.9405 24.7483C94.1573 25.1507 94.2658 25.6111 94.2658 26.1293C94.2658 26.6632 94.1444 27.1394 93.9018 27.5576C93.6617 27.9732 93.3273 28.3007 92.8988 28.5401C92.4728 28.7768 91.9797 28.8952 91.4195 28.8952Z" fill="#BEC8CF"/>
<path d="M57.3037 22.3975V25.21H41.9229L41.8057 23.0859L51.0049 8.67188H53.832L50.7705 13.916L45.4824 22.3975H57.3037ZM54.6377 8.67188V30H51.1074V8.67188H54.6377ZM63.1777 26.6016L63.1631 29.1211C63.1631 30.1172 62.9141 31.1426 62.416 32.1973C61.918 33.252 61.2588 34.1211 60.4385 34.8047L58.5488 33.7061C58.8223 33.2666 59.0713 32.8223 59.2959 32.373C59.5205 31.9238 59.7012 31.4453 59.8379 30.9375C59.9746 30.4297 60.043 29.8682 60.043 29.2529V26.6016H63.1777ZM69.2129 27.2168H69.5059C70.8535 27.2168 71.9766 27.041 72.875 26.6895C73.7832 26.3281 74.5059 25.8301 75.043 25.1953C75.5801 24.5605 75.9658 23.8135 76.2002 22.9541C76.4346 22.0947 76.5518 21.1621 76.5518 20.1562V16.4795C76.5518 15.6104 76.459 14.8486 76.2734 14.1943C76.0977 13.5303 75.8438 12.9785 75.5117 12.5391C75.1895 12.0898 74.8135 11.7529 74.3838 11.5283C73.9639 11.3037 73.5098 11.1914 73.0215 11.1914C72.4844 11.1914 72.001 11.3135 71.5713 11.5576C71.1514 11.792 70.7949 12.1191 70.502 12.5391C70.2188 12.9492 69.999 13.4326 69.8428 13.9893C69.6963 14.5361 69.623 15.1221 69.623 15.7471C69.623 16.333 69.6914 16.8994 69.8281 17.4463C69.9746 17.9834 70.1895 18.4619 70.4727 18.8818C70.7559 19.3018 71.1123 19.6338 71.542 19.8779C71.9717 20.1221 72.4746 20.2441 73.0508 20.2441C73.5977 20.2441 74.1006 20.1416 74.5596 19.9365C75.0186 19.7217 75.4189 19.4336 75.7607 19.0723C76.1025 18.7109 76.3711 18.3057 76.5664 17.8564C76.7617 17.4072 76.8691 16.9482 76.8887 16.4795L78.2363 16.8896C78.2363 17.6318 78.0801 18.3643 77.7676 19.0869C77.4648 19.7998 77.04 20.4541 76.4932 21.0498C75.9561 21.6357 75.3262 22.1045 74.6035 22.4561C73.8906 22.8076 73.1143 22.9834 72.2744 22.9834C71.2588 22.9834 70.3604 22.793 69.5791 22.4121C68.8076 22.0215 68.1631 21.4941 67.6455 20.8301C67.1377 20.166 66.7568 19.4043 66.5029 18.5449C66.249 17.6855 66.1221 16.7822 66.1221 15.835C66.1221 14.8096 66.2783 13.8477 66.5908 12.9492C66.9033 12.0508 67.3574 11.2598 67.9531 10.5762C68.5488 9.88281 69.2715 9.3457 70.1211 8.96484C70.9805 8.57422 71.9521 8.37891 73.0361 8.37891C74.1885 8.37891 75.1992 8.60352 76.0684 9.05273C76.9375 9.50195 77.6699 10.1221 78.2656 10.9131C78.8613 11.7041 79.3105 12.6221 79.6133 13.667C79.916 14.7119 80.0674 15.835 80.0674 17.0361V18.2812C80.0674 19.541 79.9551 20.7568 79.7305 21.9287C79.5059 23.0908 79.1396 24.1699 78.6318 25.166C78.1338 26.1523 77.4746 27.0215 76.6543 27.7734C75.8438 28.5156 74.8477 29.0967 73.666 29.5166C72.4941 29.9268 71.1172 30.1318 69.5352 30.1318H69.2129V27.2168Z" fill="black"/>
<path d="M1.71319 45.9013C1.92586 45.9013 2.11227 45.8738 2.27243 45.8188C2.43522 45.7639 2.57044 45.6867 2.67808 45.5872C2.78836 45.4851 2.87106 45.3647 2.9262 45.226C2.98134 45.0847 3.00891 44.929 3.00891 44.7588C3.00891 44.416 2.90126 44.1464 2.68596 43.9501C2.47329 43.7538 2.14903 43.6556 1.71319 43.6556H0.838871V45.9013H1.71319ZM1.71319 43C2.07552 43 2.39058 43.0419 2.65839 43.1256C2.9262 43.2094 3.14806 43.3285 3.32398 43.4829C3.49989 43.6347 3.62985 43.8192 3.71387 44.0365C3.80052 44.2537 3.84384 44.4945 3.84384 44.7588C3.84384 45.0232 3.79789 45.2666 3.706 45.4891C3.6141 45.7089 3.47888 45.8987 3.30035 46.0583C3.12181 46.218 2.89863 46.3423 2.63082 46.4313C2.36564 46.5177 2.05976 46.5609 1.71319 46.5609H0.838871V48.6377H0V43H1.71319Z" fill="black"/>
<path d="M7.06253 46.1997C7.06253 46.0479 7.04022 45.9078 6.99558 45.7796C6.95357 45.6513 6.89056 45.5401 6.80654 45.4459C6.72252 45.3517 6.62013 45.2784 6.49935 45.226C6.37857 45.1737 6.23942 45.1475 6.08188 45.1475C5.75894 45.1475 5.50426 45.2404 5.31784 45.4262C5.13405 45.6121 5.01721 45.8699 4.96733 46.1997H7.06253ZM7.69661 48.0684C7.60209 48.1784 7.49313 48.2739 7.36973 48.355C7.24632 48.4335 7.11505 48.4977 6.97589 48.5474C6.83673 48.5971 6.69233 48.6338 6.54267 48.6573C6.39564 48.6809 6.24992 48.6927 6.10551 48.6927C5.82983 48.6927 5.57383 48.6468 5.33753 48.5552C5.10386 48.461 4.90037 48.3249 4.72709 48.1469C4.55642 47.9663 4.42252 47.7439 4.32537 47.4795C4.23085 47.2126 4.18359 46.9063 4.18359 46.5609C4.18359 46.2834 4.22691 46.0256 4.31356 45.7874C4.4002 45.5466 4.52361 45.3373 4.68376 45.1593C4.84655 44.9813 5.04478 44.8413 5.27846 44.7392C5.51213 44.6371 5.77469 44.5861 6.06613 44.5861C6.31031 44.5861 6.53479 44.6267 6.73959 44.7078C6.94701 44.7863 7.12555 44.9015 7.27521 45.0533C7.42486 45.2051 7.5417 45.3922 7.62572 45.6147C7.71236 45.8372 7.75569 46.091 7.75569 46.3763C7.75569 46.4941 7.74256 46.5739 7.7163 46.6158C7.69005 46.6551 7.64147 46.6747 7.57058 46.6747H4.94763C4.95551 46.9129 4.98964 47.121 5.05003 47.2989C5.11042 47.4743 5.19313 47.6209 5.29815 47.7386C5.4058 47.8564 5.53314 47.9441 5.68017 48.0017C5.8272 48.0593 5.9913 48.0881 6.17246 48.0881C6.34313 48.0881 6.49016 48.0684 6.61356 48.0292C6.73959 47.9899 6.84724 47.948 6.93651 47.9035C7.0284 47.8564 7.10454 47.8132 7.16493 47.774C7.22795 47.7347 7.28308 47.7151 7.33034 47.7151C7.39336 47.7151 7.44193 47.7386 7.47606 47.7858L7.69661 48.0684Z" fill="black"/>
<path d="M12.0547 44.6489V48.6377H11.2828V46.0308C11.2828 45.9785 11.2854 45.9209 11.2907 45.8581C11.2959 45.7927 11.3038 45.7272 11.3143 45.6618C11.2881 45.7168 11.2618 45.7691 11.2356 45.8188C11.2119 45.866 11.187 45.9078 11.1607 45.9445L9.32146 48.4453C9.29258 48.4924 9.25451 48.5369 9.20725 48.5788C9.15999 48.6207 9.10617 48.6416 9.04578 48.6416H8.58105V44.6489H9.34903V47.2597C9.34903 47.312 9.34641 47.3709 9.34116 47.4363C9.3359 47.4992 9.32803 47.562 9.31752 47.6248C9.37004 47.5096 9.42123 47.4167 9.47112 47.346L11.3104 44.8413C11.3393 44.7968 11.3773 44.7536 11.4246 44.7117C11.4745 44.6698 11.5296 44.6489 11.59 44.6489H12.0547ZM10.3652 43.6674C10.4702 43.6674 10.5582 43.6556 10.629 43.6321C10.7026 43.6085 10.7603 43.5706 10.8023 43.5182C10.847 43.4659 10.8785 43.3978 10.8969 43.3141C10.9179 43.2277 10.9284 43.123 10.9284 43H11.3813C11.4338 43 11.4745 43.0236 11.5034 43.0707C11.5322 43.1178 11.5467 43.1701 11.5467 43.2277C11.5467 43.3586 11.5191 43.4764 11.464 43.581C11.4115 43.6857 11.334 43.776 11.2316 43.8519C11.1292 43.9252 11.0045 43.9828 10.8575 44.0247C10.7131 44.0639 10.549 44.0836 10.3652 44.0836C10.1814 44.0836 10.016 44.0639 9.86889 44.0247C9.72449 43.9828 9.60109 43.9252 9.49869 43.8519C9.39629 43.776 9.31752 43.6857 9.26239 43.581C9.20988 43.4764 9.18363 43.3586 9.18363 43.2277C9.18363 43.1701 9.19806 43.1178 9.22694 43.0707C9.25582 43.0236 9.29652 43 9.34903 43H9.80194C9.80194 43.123 9.81113 43.2277 9.82951 43.3141C9.85052 43.3978 9.88203 43.4659 9.92404 43.5182C9.96868 43.5706 10.0265 43.6085 10.0974 43.6321C10.1709 43.6556 10.2602 43.6674 10.3652 43.6674Z" fill="black"/>
<path d="M16.4782 45.2299H14.9698V48.6377H14.1979V45.2299H12.6895V44.6489H16.4782V45.2299Z" fill="black"/>
<path d="M20.5928 44.6489V48.6377H19.8209V46.0308C19.8209 45.9785 19.8235 45.9209 19.8287 45.8581C19.834 45.7927 19.8419 45.7272 19.8524 45.6618C19.8261 45.7168 19.7999 45.7691 19.7736 45.8188C19.75 45.866 19.725 45.9078 19.6988 45.9445L17.8596 48.4453C17.8307 48.4924 17.7926 48.5369 17.7453 48.5788C17.6981 48.6207 17.6443 48.6416 17.5839 48.6416H17.1191V44.6489H17.8871V47.2597C17.8871 47.312 17.8845 47.3709 17.8792 47.4363C17.874 47.4992 17.8661 47.562 17.8556 47.6248C17.9081 47.5096 17.9593 47.4167 18.0092 47.346L19.8484 44.8413C19.8773 44.7968 19.9154 44.7536 19.9626 44.7117C20.0125 44.6698 20.0677 44.6489 20.128 44.6489H20.5928Z" fill="black"/>
<path d="M25.0362 44.6489V48.6377H24.2643V46.8003H22.433V48.6377H21.665V44.6489H22.433V46.2193H24.2643V44.6489H25.0362Z" fill="black"/>
<path d="M28.7343 45.2299H26.8793V48.6377H26.1113V44.6489H28.7343V45.2299Z" fill="black"/>
<path d="M33.7903 44.857C33.8297 44.7968 33.8822 44.7471 33.9478 44.7078C34.0134 44.6685 34.083 44.6489 34.1565 44.6489H34.7591L33.7469 46.1565C33.6839 46.2559 33.6183 46.3371 33.55 46.3999C33.4818 46.4627 33.3977 46.5111 33.298 46.5451C33.424 46.5818 33.5303 46.6368 33.617 46.71C33.7036 46.7807 33.7811 46.8736 33.8493 46.9888L34.8694 48.6377H34.3377C34.1985 48.6377 34.0909 48.6154 34.0148 48.5709C33.9412 48.5238 33.8782 48.4571 33.8257 48.3707L33.0932 47.1655C33.0328 47.066 32.9567 46.9914 32.8648 46.9417C32.7755 46.8919 32.6718 46.8671 32.5536 46.8671H32.1401V48.6416H31.3721V44.6489H32.1401V46.3528H32.5024C32.6127 46.3528 32.7059 46.3305 32.782 46.286C32.8608 46.2415 32.9278 46.1761 32.9829 46.0897L33.7903 44.857Z" fill="black"/>
<path d="M37.0548 44.5861C37.3489 44.5861 37.6141 44.6345 37.8504 44.7314C38.0893 44.8256 38.2915 44.963 38.4569 45.1436C38.6249 45.3216 38.7536 45.5375 38.8429 45.7914C38.9321 46.0426 38.9768 46.3253 38.9768 46.6394C38.9768 46.9534 38.9321 47.2374 38.8429 47.4913C38.7536 47.7452 38.6249 47.9611 38.4569 48.1391C38.2915 48.3171 38.0893 48.4545 37.8504 48.5513C37.6141 48.6455 37.3489 48.6927 37.0548 48.6927C36.7582 48.6927 36.4904 48.6455 36.2514 48.5513C36.0151 48.4545 35.813 48.3171 35.6449 48.1391C35.4769 47.9611 35.3469 47.7452 35.255 47.4913C35.1657 47.2374 35.1211 46.9534 35.1211 46.6394C35.1211 46.3253 35.1657 46.0426 35.255 45.7914C35.3469 45.5375 35.4769 45.3216 35.6449 45.1436C35.813 44.963 36.0151 44.8256 36.2514 44.7314C36.4904 44.6345 36.7582 44.5861 37.0548 44.5861ZM37.0548 48.0959C37.4329 48.0959 37.7152 47.969 37.9016 47.7151C38.088 47.4612 38.1812 47.1039 38.1812 46.6433C38.1812 46.1827 38.088 45.8254 37.9016 45.5715C37.7152 45.315 37.4329 45.1868 37.0548 45.1868C36.6715 45.1868 36.3853 45.315 36.1963 45.5715C36.0099 45.8254 35.9167 46.1827 35.9167 46.6433C35.9167 47.1039 36.0099 47.4612 36.1963 47.7151C36.3853 47.969 36.6715 48.0959 37.0548 48.0959Z" fill="black"/>
<path d="M44.3356 44.6371V48.6377H43.6424V46.1015C43.6424 46.023 43.6464 45.934 43.6542 45.8345C43.6647 45.7351 43.6792 45.6435 43.6976 45.5597L42.3585 47.9232C42.3349 47.9677 42.3047 48.003 42.2679 48.0292C42.2312 48.0527 42.1879 48.0645 42.138 48.0645H42.0513C42.0041 48.0645 41.9607 48.0527 41.9214 48.0292C41.8846 48.003 41.8544 47.9677 41.8308 47.9232L40.4721 45.5519C40.4878 45.6356 40.5009 45.7285 40.5114 45.8306C40.5219 45.9301 40.5272 46.0204 40.5272 46.1015V48.6377H39.834V44.6371H40.4563C40.5088 44.6371 40.5613 44.6489 40.6138 44.6725C40.6663 44.696 40.711 44.7418 40.7477 44.8099L41.9174 46.7807C41.9516 46.8435 41.9831 46.9103 42.012 46.9809C42.0408 47.0516 42.0684 47.1223 42.0947 47.1929C42.1209 47.1223 42.1472 47.0516 42.1734 46.9809C42.2023 46.9103 42.2338 46.8435 42.2679 46.7807L43.4219 44.8099C43.4586 44.7392 43.5033 44.6934 43.5558 44.6725C43.6083 44.6489 43.6608 44.6371 43.7133 44.6371H44.3356Z" fill="black"/>
<path d="M48.7814 48.6377H48.0095V45.2299H46.1782V48.6377H45.4102V44.6489H48.7814V48.6377Z" fill="black"/>
<path d="M52.0073 46.8671C51.6949 46.8775 51.4297 46.9024 51.2117 46.9417C50.9938 46.9783 50.8166 47.028 50.6801 47.0909C50.5435 47.1537 50.4451 47.2283 50.3847 47.3146C50.3243 47.3984 50.2941 47.4926 50.2941 47.5973C50.2941 47.6968 50.3099 47.7831 50.3414 47.8564C50.3755 47.9271 50.4201 47.986 50.4753 48.0331C50.533 48.0776 50.6 48.1103 50.6761 48.1312C50.7523 48.1522 50.835 48.1626 50.9243 48.1626C51.0424 48.1626 51.15 48.1509 51.2472 48.1273C51.347 48.1038 51.4402 48.071 51.5268 48.0292C51.6135 47.9847 51.6962 47.931 51.7749 47.8682C51.8537 47.8054 51.9312 47.7334 52.0073 47.6523V46.8671ZM49.7546 45.2064C49.9777 44.9944 50.2193 44.836 50.4792 44.7314C50.7418 44.6267 51.0293 44.5743 51.3417 44.5743C51.5701 44.5743 51.7723 44.6123 51.9482 44.6882C52.1241 44.7615 52.2725 44.8648 52.3933 44.9983C52.514 45.1318 52.6046 45.2915 52.665 45.4773C52.728 45.6631 52.7595 45.8686 52.7595 46.0937V48.6377H52.4169C52.3407 48.6377 52.283 48.6259 52.2436 48.6024C52.2042 48.5762 52.1727 48.5291 52.1491 48.461L52.0664 48.1116C51.964 48.2058 51.8629 48.2896 51.7631 48.3629C51.6633 48.4335 51.5583 48.495 51.4481 48.5474C51.3404 48.5971 51.2249 48.6351 51.1015 48.6612C50.9781 48.6874 50.8415 48.7005 50.6919 48.7005C50.5344 48.7005 50.386 48.6796 50.2469 48.6377C50.1103 48.5932 49.9909 48.5265 49.8885 48.4375C49.7861 48.3485 49.7047 48.2372 49.6443 48.1038C49.5865 47.9703 49.5576 47.8145 49.5576 47.6366C49.5576 47.4795 49.5997 47.329 49.6837 47.1851C49.7703 47.0385 49.9095 46.9076 50.1011 46.7925C50.2954 46.6773 50.5475 46.5831 50.8573 46.5098C51.1697 46.4365 51.5531 46.3947 52.0073 46.3842V46.0937C52.0073 45.7927 51.943 45.5676 51.8143 45.4184C51.6857 45.2692 51.4966 45.1946 51.2472 45.1946C51.0792 45.1946 50.9374 45.2156 50.8219 45.2574C50.709 45.2993 50.6105 45.3464 50.5265 45.3988C50.4451 45.4485 50.3729 45.4943 50.3099 45.5362C50.2495 45.5781 50.1865 45.599 50.1208 45.599C50.0683 45.599 50.0224 45.5846 49.983 45.5558C49.9462 45.527 49.916 45.493 49.8924 45.4537L49.7546 45.2064Z" fill="black"/>
<path d="M57.1584 44.6489V48.6377H56.3864V46.8003H54.5551V48.6377H53.7871V44.6489H54.5551V46.2193H56.3864V44.6489H57.1584Z" fill="black"/>
<path d="M61.707 44.6489V48.6377H60.9351V46.0308C60.9351 45.9785 60.9377 45.9209 60.943 45.8581C60.9482 45.7927 60.9561 45.7272 60.9666 45.6618C60.9403 45.7168 60.9141 45.7691 60.8878 45.8188C60.8642 45.866 60.8392 45.9078 60.813 45.9445L58.9738 48.4453C58.9449 48.4924 58.9068 48.5369 58.8596 48.5788C58.8123 48.6207 58.7585 48.6416 58.6981 48.6416H58.2334V44.6489H59.0013V47.2597C59.0013 47.312 58.9987 47.3709 58.9935 47.4363C58.9882 47.4992 58.9803 47.562 58.9698 47.6248C59.0223 47.5096 59.0735 47.4167 59.1234 47.346L60.9626 44.8413C60.9915 44.7968 61.0296 44.7536 61.0769 44.7117C61.1267 44.6698 61.1819 44.6489 61.2423 44.6489H61.707Z" fill="black"/>
<path d="M66.2529 44.6489V48.6377H65.481V46.0308C65.481 45.9785 65.4836 45.9209 65.4889 45.8581C65.4941 45.7927 65.502 45.7272 65.5125 45.6618C65.4863 45.7168 65.46 45.7691 65.4338 45.8188C65.4101 45.866 65.3852 45.9078 65.3589 45.9445L63.5197 48.4453C63.4908 48.4924 63.4528 48.5369 63.4055 48.5788C63.3582 48.6207 63.3044 48.6416 63.244 48.6416H62.7793V44.6489H63.5473V47.2597C63.5473 47.312 63.5447 47.3709 63.5394 47.4363C63.5341 47.4992 63.5263 47.562 63.5158 47.6248C63.5683 47.5096 63.6195 47.4167 63.6694 47.346L65.5086 44.8413C65.5375 44.7968 65.5755 44.7536 65.6228 44.7117C65.6727 44.6698 65.7278 44.6489 65.7882 44.6489H66.2529Z" fill="black"/>
<path d="M72.5082 45.5754V43.6596H71.433C71.2203 43.6596 71.0392 43.6831 70.8895 43.7302C70.7398 43.7747 70.6177 43.8388 70.5232 43.9226C70.4287 44.0064 70.3591 44.1071 70.3145 44.2249C70.2725 44.3401 70.2515 44.4683 70.2515 44.6096C70.2515 44.7588 70.2725 44.8936 70.3145 45.014C70.3591 45.1344 70.4274 45.2365 70.5193 45.3202C70.6138 45.4014 70.7359 45.4642 70.8856 45.5087C71.0352 45.5532 71.2164 45.5754 71.4291 45.5754H72.5082ZM73.347 48.6377H72.5082V46.235H71.7874C71.7192 46.235 71.6549 46.2415 71.5945 46.2546C71.5341 46.2651 71.475 46.286 71.4172 46.3174C71.3595 46.3462 71.303 46.3881 71.2479 46.4431C71.1928 46.4954 71.1363 46.5635 71.0785 46.6472L69.9088 48.3393C69.8563 48.4309 69.7854 48.5042 69.6962 48.5592C69.6095 48.6115 69.5058 48.6377 69.385 48.6377H68.7549L70.1766 46.6001C70.3316 46.3646 70.5193 46.197 70.7398 46.0976C70.5193 46.0505 70.3263 45.9824 70.1609 45.8934C69.9955 45.8018 69.8576 45.6932 69.7474 45.5676C69.6397 45.4393 69.5583 45.2954 69.5032 45.1357C69.4507 44.9761 69.4244 44.8033 69.4244 44.6175C69.4244 44.3767 69.4691 44.1569 69.5583 43.9579C69.6476 43.759 69.7776 43.5889 69.9482 43.4476C70.1215 43.3062 70.3316 43.1963 70.5784 43.1178C70.8278 43.0393 71.1127 43 71.433 43H73.347V48.6377Z" fill="black"/>
<path d="M77.8967 44.6489V48.6377H77.1248V46.8003H75.2934V48.6377H74.5254V44.6489H75.2934V46.2193H77.1248V44.6489H77.8967Z" fill="black"/>
<path d="M81.7048 48.0802V45.2496H80.5075C80.4813 45.6369 80.4458 45.9824 80.4012 46.286C80.3566 46.5896 80.3041 46.8566 80.2437 47.0869C80.1859 47.3146 80.1216 47.5109 80.0507 47.6758C79.9798 47.8381 79.9049 47.9729 79.8261 48.0802H81.7048ZM83.1816 48.0566V49.7644C83.1816 49.8377 83.1607 49.8953 83.1187 49.9372C83.0793 49.9791 83.0268 50 82.9611 50H82.4846V48.6377H79.2158V49.7801C79.2158 49.8377 79.1987 49.8888 79.1646 49.9333C79.1304 49.9778 79.0766 50 79.0031 50H78.5146V48.0802H78.6447C78.7366 48.0802 78.8272 48.0658 78.9164 48.037C79.0057 48.0082 79.0909 47.9506 79.1723 47.8643C79.2564 47.7779 79.3352 47.6562 79.4087 47.4992C79.4823 47.3421 79.5492 47.1367 79.6096 46.8828C79.67 46.6289 79.7225 46.3201 79.7671 45.9563C79.8118 45.5898 79.8472 45.154 79.8735 44.6489H82.4492V48.0566H83.1816Z" fill="black"/>
<path d="M86.4521 46.1997C86.4521 46.0479 86.4298 45.9078 86.3852 45.7796C86.3432 45.6513 86.2802 45.5401 86.1962 45.4459C86.1121 45.3517 86.0097 45.2784 85.889 45.226C85.7682 45.1737 85.629 45.1475 85.4715 45.1475C85.1486 45.1475 84.8939 45.2404 84.7075 45.4262C84.5237 45.6121 84.4068 45.8699 84.3569 46.1997H86.4521ZM87.0862 48.0684C86.9917 48.1784 86.8827 48.2739 86.7593 48.355C86.6359 48.4335 86.5047 48.4977 86.3655 48.5474C86.2263 48.5971 86.0819 48.6338 85.9323 48.6573C85.7852 48.6809 85.6395 48.6927 85.4951 48.6927C85.2194 48.6927 84.9634 48.6468 84.7271 48.5552C84.4935 48.461 84.29 48.3249 84.1167 48.1469C83.946 47.9663 83.8121 47.7439 83.715 47.4795C83.6205 47.2126 83.5732 46.9063 83.5732 46.5609C83.5732 46.2834 83.6165 46.0256 83.7032 45.7874C83.7898 45.5466 83.9132 45.3373 84.0734 45.1593C84.2362 44.9813 84.4344 44.8413 84.6681 44.7392C84.9017 44.6371 85.1643 44.5861 85.4557 44.5861C85.6999 44.5861 85.9244 44.6267 86.1292 44.7078C86.3366 44.7863 86.5152 44.9015 86.6648 45.0533C86.8145 45.2051 86.9313 45.3922 87.0153 45.6147C87.102 45.8372 87.1453 46.091 87.1453 46.3763C87.1453 46.4941 87.1322 46.5739 87.1059 46.6158C87.0797 46.6551 87.0311 46.6747 86.9602 46.6747H84.3372C84.3451 46.9129 84.3793 47.121 84.4396 47.2989C84.5 47.4743 84.5827 47.6209 84.6878 47.7386C84.7954 47.8564 84.9227 47.9441 85.0698 48.0017C85.2168 48.0593 85.3809 48.0881 85.5621 48.0881C85.7327 48.0881 85.8798 48.0684 86.0032 48.0292C86.1292 47.9899 86.2368 47.948 86.3261 47.9035C86.418 47.8564 86.4942 47.8132 86.5545 47.774C86.6176 47.7347 86.6727 47.7151 86.72 47.7151C86.783 47.7151 86.8315 47.7386 86.8657 47.7858L87.0862 48.0684Z" fill="black"/>
<path d="M90.3889 44.857C90.4283 44.7968 90.4808 44.7471 90.5464 44.7078C90.6121 44.6685 90.6817 44.6489 90.7552 44.6489H91.3577L90.3456 46.1565C90.2826 46.2559 90.2169 46.3371 90.1487 46.3999C90.0804 46.4627 89.9964 46.5111 89.8966 46.5451C90.0226 46.5818 90.129 46.6368 90.2156 46.71C90.3023 46.7807 90.3797 46.8736 90.448 46.9888L91.468 48.6377H90.9363C90.7972 48.6377 90.6895 48.6154 90.6134 48.5709C90.5399 48.5238 90.4769 48.4571 90.4244 48.3707L89.6918 47.1655C89.6314 47.066 89.5553 46.9914 89.4634 46.9417C89.3741 46.8919 89.2704 46.8671 89.1523 46.8671H88.7387V48.6416H87.9707V44.6489H88.7387V46.3528H89.1011C89.2113 46.3528 89.3045 46.3305 89.3807 46.286C89.4595 46.2415 89.5264 46.1761 89.5815 46.0897L90.3889 44.857Z" fill="black"/>
<path d="M94.7523 45.3948C94.7287 45.4236 94.705 45.4472 94.6814 45.4655C94.6604 45.4812 94.6289 45.4891 94.5869 45.4891C94.5449 45.4891 94.5002 45.4734 94.453 45.442C94.4083 45.4079 94.3506 45.3726 94.2797 45.336C94.2114 45.2967 94.1274 45.2614 94.0276 45.2299C93.9305 45.1959 93.8097 45.1789 93.6653 45.1789C93.4763 45.1789 93.3095 45.2129 93.1651 45.281C93.0207 45.349 92.8999 45.4459 92.8028 45.5715C92.7083 45.6971 92.6361 45.8503 92.5862 46.0308C92.5363 46.2114 92.5114 46.4143 92.5114 46.6394C92.5114 46.8723 92.5376 47.0804 92.5901 47.2636C92.6426 47.4442 92.7175 47.5973 92.8146 47.7229C92.9118 47.846 93.0299 47.9402 93.1691 48.0056C93.3082 48.0684 93.4631 48.0998 93.6338 48.0998C93.7992 48.0998 93.9357 48.0802 94.0434 48.0409C94.151 47.9991 94.2403 47.9546 94.3112 47.9075C94.3821 47.8603 94.4412 47.8172 94.4884 47.7779C94.5357 47.736 94.5842 47.7151 94.6341 47.7151C94.6971 47.7151 94.7457 47.7386 94.7799 47.7858L95.0004 48.0684C94.9085 48.181 94.8048 48.2765 94.6893 48.355C94.5764 48.4335 94.4556 48.4977 94.3269 48.5474C94.1983 48.5971 94.0631 48.6338 93.9213 48.6573C93.7821 48.6809 93.6404 48.6927 93.496 48.6927C93.2465 48.6927 93.0128 48.6468 92.7949 48.5552C92.5796 48.4636 92.3919 48.3302 92.2317 48.1548C92.0742 47.9794 91.9495 47.7648 91.8576 47.5109C91.7657 47.2544 91.7197 46.9639 91.7197 46.6394C91.7197 46.3436 91.7604 46.0701 91.8418 45.8188C91.9259 45.5676 92.0479 45.3517 92.2081 45.1711C92.3709 44.9878 92.5704 44.8452 92.8067 44.7431C93.043 44.6384 93.3135 44.5861 93.618 44.5861C93.9042 44.5861 94.1563 44.6319 94.3742 44.7235C94.5921 44.8151 94.7864 44.9447 94.9571 45.1122L94.7523 45.3948Z" fill="black"/>
<path opacity="0.2" d="M95 39H0V40H95V39Z" fill="#2A2A30"/>
</g>
<defs>
<clipPath id="clip0_239_13853">
<rect width="95" height="50" fill="white"/>
</clipPath>
</defs>
</svg>
