<svg width="148" height="150" viewBox="0 0 148 150" fill="none" xmlns="http://www.w3.org/2000/svg">
<path d="M134.603 81.5089V136.656C134.603 143.605 128.97 149.238 122.021 149.238C115.072 149.238 109.439 143.605 109.439 136.656V112.034V117.706C109.439 124.655 103.806 130.288 96.8566 130.288C89.9076 130.288 84.2744 124.655 84.2744 117.706V71.8241" fill="#23C7EF"/>
<path d="M46.1387 101.862C48.0083 103.731 51.0395 103.731 52.9088 101.862L73.9215 80.849C75.7911 78.9794 75.7911 75.9482 73.9215 74.0789L32.6775 32.835C29.7271 29.8846 29.7271 25.0841 32.6775 22.1334L41.0648 13.7461C44.0152 10.7957 48.816 10.7954 51.7664 13.7461L93.0104 54.9901C94.88 56.8597 97.9112 56.8597 99.7805 54.9901C101.65 53.1205 101.65 50.0893 99.7805 48.22L58.5365 6.97601C51.853 0.292503 40.9783 0.292503 34.2948 6.97601L25.9072 15.3633C19.2237 22.0468 19.2237 32.9215 25.9072 39.605L63.7661 77.464L46.1387 95.0914C44.2691 96.961 44.2691 99.9921 46.1387 101.862Z" fill="#756E78"/>
<path d="M47.2255 33.5128C68.783 56.7802 91.2199 79.217 114.487 100.775C117.634 103.69 122.377 104.021 125.91 101.589C133.993 96.0258 140.816 89.2028 146.379 81.1199C148.811 77.5868 148.48 72.8433 145.565 69.6972C124.007 46.4298 101.57 23.993 78.3028 2.43549C75.1568 -0.479553 70.413 -0.811168 66.8801 1.62078C58.7973 7.18416 51.9742 14.0073 46.4108 22.0901C43.9789 25.6229 44.3105 30.3664 47.2255 33.5128Z" fill="#23C7EF"/>
<path d="M52.0643 14.8053C50.0424 17.1244 48.155 19.5574 46.4113 22.0923C43.9787 25.6264 44.3103 30.3677 47.226 33.5135C68.7829 56.781 91.2196 79.2177 114.487 100.775C117.633 103.69 122.377 104.024 125.91 101.591C128.445 99.8476 130.878 97.9602 133.197 95.9385C130.519 96.1978 127.772 95.3383 125.689 93.4087C101.095 70.6239 77.3788 46.9082 54.594 22.3133C52.6623 20.2282 51.8049 17.4838 52.0643 14.8053Z" fill="#1BA5C7"/>
<path d="M68.283 114.236L62.6657 119.856C60.3631 119.279 57.9818 119.083 55.6158 119.274C50.4389 119.688 45.5787 121.933 41.9062 125.605L22.2105 145.3C18.6109 148.9 12.7771 148.9 9.17753 145.3L5.93758 142.061L2.70068 138.821C-0.898925 135.224 -0.898925 129.387 2.70068 125.788L22.3934 106.095C26.4924 101.993 28.7957 96.4318 28.7971 90.6328C28.7971 88.868 28.5837 87.0911 28.1448 85.3355L33.7621 79.7151L51.0226 96.9755L68.283 114.236Z" fill="#FB9369"/>
<path d="M4.55902 140.681L2.69948 138.822C-0.899825 135.222 -0.899825 129.386 2.69948 125.787L22.3937 106.093C25.0628 103.424 26.9953 100.109 28.003 96.4713C29.0107 92.8337 29.0593 88.9972 28.1439 85.3352L33.7631 79.7161L43.6676 89.6206L38.0485 95.2398C37.2383 100.017 33.4223 106.261 27.9924 111.691L8.29822 131.385C4.69892 134.985 3.02439 139.146 4.55902 140.681Z" fill="#F06B37"/>
<path d="M62.6664 119.856C60.3639 119.279 57.9825 119.083 55.6165 119.274L28.7277 92.3854C28.9183 90.0195 28.7217 87.6382 28.1455 85.3356L62.6664 119.856Z" fill="#F06B37"/>
</svg>
