<svg width="292" height="235" viewBox="0 0 292 235" fill="none" xmlns="http://www.w3.org/2000/svg">
<path d="M68.8974 87.9501C65.0728 101.53 63.6401 116.926 62.8691 130.798L74.9621 137.761C80.4865 141.027 84.7239 148.464 84.6572 154.71L84.6086 184.846C96.4405 189.763 108.892 193.515 125.246 196.052C125.853 190.303 128.725 169.469 130.856 158.225C134.966 136.541 142.858 102.763 153.397 83.4335C167.001 58.3369 191.473 39.0136 219.392 32.2872C225.317 30.8302 231.382 29.8406 237.586 29.4339C213 7.86442 174.493 -8.08351 138.657 4.37979C96.3434 19.0347 79.0599 51.3433 68.8974 87.9501Z" fill="#23C7EF"/>
<path d="M158.964 86.4567C148.735 105.228 141.068 138.362 137.079 159.446C134.859 171.871 133.029 184.363 131.591 196.902C150.593 199.221 172.63 198.997 192.384 195.585C209.868 192.562 230.187 186.09 245.861 176.796C266.933 164.193 279.463 147.699 281.133 130.379C283.713 102.72 271.984 63.4424 244.192 35.5775C204.216 36.2149 174.232 58.2944 158.97 86.4506L158.964 86.4567ZM52.6649 183.061L74.7808 195.858C77.1484 197.218 78.229 196.605 78.2593 193.873L78.32 154.692V154.662C78.3686 150.667 75.3089 145.325 71.7697 143.231L49.7024 130.524C47.3773 129.189 46.2056 129.638 46.2056 132.461L46.0781 171.69C46.0781 175.715 49.156 181.027 52.6649 183.055V183.061ZM53.1506 145.786C53.1506 144.937 53.3934 144.493 53.5998 144.372C53.7009 144.32 53.8139 144.294 53.9276 144.299C54.2069 144.299 54.6136 144.402 55.1236 144.694L67.6172 151.888C69.6206 153.071 71.3568 156.101 71.3265 158.359V158.377L71.2901 180.56C71.284 181.428 71.023 181.877 70.8044 181.999C70.5919 182.12 70.0698 182.108 69.3231 181.677L56.8052 174.434C54.814 173.281 53.0717 170.276 53.0717 167.999L53.1445 145.792L53.1506 145.786Z" fill="#23C7EF"/>
<path d="M33.4504 135.788C34.6646 140.802 36.8622 145.671 39.8126 150.376L39.8733 132.455C39.8733 124.927 46.0655 121.182 52.8405 125.018L56.7622 127.277C57.6121 113.812 59.0145 99.685 62.7905 86.2443C72.5401 51.1491 87.0614 21.5784 125.332 3.12927C72.0241 17.3895 32.4184 66.8542 32.2666 125.692C32.2666 129.201 32.6673 132.473 33.4504 135.788Z" fill="#23C7EF"/>
<path d="M290.341 144.263C289.474 141.7 288.143 139.319 286.414 137.239C286.371 137.421 286.298 137.585 286.256 137.761C281.703 156.69 266.046 172.103 249.097 182.248C232.985 191.797 212.453 198.517 193.622 201.783C159.407 207.733 118.89 205.353 84.5966 191.748V193.909C84.5056 201.686 78.0888 205.08 71.6052 201.34L49.4954 188.543C44.0438 185.392 39.7396 177.998 39.7396 171.672L39.7761 161.121C34.7738 155.117 31.1131 148.749 28.8062 142.12C27.677 143.121 26.5357 144.087 25.4187 145.119C18.3341 151.602 11.0916 158.796 5.9922 167.508C-0.594598 178.969 -1.83911 191.512 2.69576 201.043C8.01984 212.383 20.9506 218.654 30.2207 222.394C61.7402 235.003 97.4849 238.19 130.905 231.354C153.039 226.831 226.641 202.73 258.567 187.262C267.078 183.176 276.712 178.174 283.542 170.403C290.402 162.481 293.073 152.209 290.341 144.263Z" fill="#23C7EF"/>
</svg>
